<?xml version="1.0" encoding="utf-8"?>
<!-- Generator: Adobe Illustrator 24.0.1, SVG Export Plug-In . SVG Version: 6.00 Build 0)  -->
<svg version="1.1" id="缝线" xmlns="http://www.w3.org/2000/svg" xmlns:xlink="http://www.w3.org/1999/xlink" x="0px" y="0px"
	 viewBox="0 0 800 800" style="enable-background:new 0 0 800 800;" xml:space="preserve">
<style type="text/css">
	.st0{fill-rule:evenodd;clip-rule:evenodd;fill:#1200FF;}
</style>
<path id="形状_153" class="st0" d="M567,529v2c-2.4-0.6-1.9-0.3-3-2H567z M567,531c1.4,0,2.8,0.4,4,1v1
	C568,532.7,568.3,532.9,567,531z M574,534v2l-3-1v-2h1C573.1,534.1,572,533.4,574,534z M577,537c0.6,2.4,1,2.2,2,4h-2
	c-1.2-2.1-2.3-2.2-3-5h1C576.1,537.1,575,536.4,577,537z M555,538h2c-0.3,1-0.7,2-1,3h-1V538z M579,544h2v4h-2V544z M550,546h2
	c-0.6,2.4-0.3,1.9-2,3v1h-1v-2C550.1,546.9,549.4,548,550,546z M579,551h2v4h-2V551z M546,552h1v1c-0.3,0.7-0.7,1.3-1,2h-1
	C545.3,554,545.7,553,546,552z M578,557h2v3h-2V557z M540,561h2c-0.4,0.9-1.1,1.6-2,2v1h-1C539.3,563,539.7,562,540,561z M537,566h1
	c0.7,2.1-1.1,2.3-2,3v1h-1C535.6,567.6,536,567.8,537,566z M532,572h1v3h-1v1h-2v-1C530.9,574.2,531.6,573.1,532,572z M527,578h2v3
	h-2V578z M525,587h-2c0.3-1,0.7-2,1-3h1V587z M519,591h1c1.5,2.9-2,4-2,4C516.3,593.1,518,592.9,519,591z M515,600
	c5.7,1.5,6.4,7.4,12,9c0.7,2.8,0.3,2.2,3,3v2c-3.3-0.8-6.7-4.8-9-7c-0.3-0.7-0.7-1.3-1-2h-2l-2-3h-1V600z M542,612v-2
	c2.7-0.6,2.3-1.3,5-2v1h-1v1C544.2,610.9,544.4,611.4,542,612z M541,615h-3v-1h1c1.1-1.7,0.6-1.4,3-2v1
	C540.9,614.1,541.6,613,541,615z M530,614l3,1v1h4v1h-1v1h-4C531.1,616.2,530.6,616.4,530,614z"/>
</svg>
