<?xml version="1.0" encoding="utf-8"?>
<!-- Generator: Adobe Illustrator 24.0.1, SVG Export Plug-In . SVG Version: 6.00 Build 0)  -->
<svg version="1.1" id="缝线" xmlns="http://www.w3.org/2000/svg" xmlns:xlink="http://www.w3.org/1999/xlink" x="0px" y="0px"
	 viewBox="0 0 800 800" style="enable-background:new 0 0 800 800;" xml:space="preserve">
<style type="text/css">
	.st0{fill-rule:evenodd;clip-rule:evenodd;fill:#1200FF;}
</style>
<path id="形状_154" class="st0" d="M393.9,467c-2,10.7-2,23.8-2,37v17h1c0,0.7-1.7,3.4-1,6h1v13h1v6h1c0.8,2.8,0.1,5.4,1,8
	c6.1,0.2,6.1,1.7,10,3h5v1h10v1l15,1v-1h4c0.7-0.3,0-1.3,3-2c0.7-2.8,0.3-2.2,3-3c1.1-1.1,0-0.4,2-1c0.7-2.9,1.1-3.3,4-4
	c0.8-1.1-0.1-0.1,1-1v3c-2.7,1.6-1.8,2.5-6,3c-0.7,3.2-1.4,3.6-5,4v2l-5,1v1h-9v-1l-3,1c-3.6,0.1-8.3-1.2-11-2h-8v-1h-2v-1h-4v-1h-2
	v-1l-4,1v-1h-1v-5h-1v-1c0.3-0.4,1.8-0.8,1-3l-2-1c-0.9-2.3,1.2-2.8,1-4h-1v-4h-1c0.3-2,0.7-4,1-6h-1c-0.6-2.3,1.2-2.8,1-4h-1v-2h-1
	c0.3-2.7,0.7-5.3,1-8c0.5-4-1.3-0.1-1-2h1c-0.3-2.3-0.7-4.7-1-7h1c-0.3-2.7-0.7-5.3-1-8h1c0.3-2-1.8-3.7-1-7h1c-0.3-3-0.7-6-1-9h1
	v-4c-0.8-0.3-1.2-1.2-1-2h1c1.2-3.3-0.3-2.7,0-4h1v-4h-1c-0.3-1.7,0.9-1.7,1-2c-0.3-1-0.7-2-1-3h1v-1h5c1.1,1.1,0,0.4,2,1v1H393.9z
	 M399.9,465h5v2h-5V465z M410.9,465v2h-5v-1h1v-1H410.9z M414.9,467h-2c0.8-1.1-0.1-0.1,1-1v-1C415.1,466.1,414.3,465,414.9,467
	L414.9,467z M419.9,468l1-3h1v1h3v1h-2v1H419.9z M425.9,466c4.7,0,5.5,1.2,9,2v2c3,1.3,5.1,2.5,6,6h-2c-0.3-0.7-0.7-1.3-1-2l-3-1
	l-1-3c-1.4-1-5.8-1.8-8-2V466z M441.9,479c-0.3-1-0.7-2-1-3h2v1c2.9,0.7,3.3,1.1,4,4h-1C444.8,479.6,444.1,479.5,441.9,479
	L441.9,479z M446.9,481c3,0.6,3.8,1.8,6,3v2h-1c-1.2-1.4-1.8-1.5-4-2C447.6,483,447.3,482,446.9,481L446.9,481z M452.9,486
	c2.8,0.7,3.8,1.8,5,4c1.1,0.8,0.1-0.1,1,1h-2v-1C454,489.3,453.6,488.9,452.9,486L452.9,486z M458.9,491c2.8,0.7,3.8,1.8,5,4
	c1.1,0.8,0.1-0.1,1,1h-2v-1C460,494.3,459.6,493.9,458.9,491L458.9,491z M470.9,502c4.2,1.1,1.8,1.8,4,4c3,3,4.8,1.3,6,7h2
	c0,4.2-0.8,5.4-2,8h-2v-1c2.2-1.4,2-2.4,2-6c-3.4-1.9-2.9-3.2-5-6h-1c-1.9-2.3-4.1-3.7-5-7c-3.1-0.7-4.3-1.9-5-5h1v1
	C468.6,498.2,470.1,498.8,470.9,502L470.9,502z M476.9,522h2c-0.3,3.7-0.8,4.2-4,5C475.6,524.3,476.2,524.7,476.9,522L476.9,522z
	 M473.9,528v3h-1c-0.8,0.9-1.9,1.6-3,2v-2c1.1-1.1,0.4,0,1-2L473.9,528z M467.9,538h-3c0.6-2.6,1.1-2.8,3-4c0.8-1.1-0.1-0.1,1-1v3
	C467.8,537.1,468.5,536,467.9,538L467.9,538z M460.9,539h2v3h-1v1h-3v-1C460.6,540.9,460.3,541.4,460.9,539L460.9,539z M456.9,548
	l-3,1v-3l2-1v-1h1v1h1L456.9,548z"/>
</svg>
