<?xml version="1.0" encoding="utf-8"?>
<!-- Generator: Adobe Illustrator 24.0.1, SVG Export Plug-In . SVG Version: 6.00 Build 0)  -->
<svg version="1.1" id="图层_1" xmlns="http://www.w3.org/2000/svg" xmlns:xlink="http://www.w3.org/1999/xlink" x="0px" y="0px"
	 viewBox="0 0 800 800" style="enable-background:new 0 0 800 800;" xml:space="preserve">
<style type="text/css">
	.st0{fill-rule:evenodd;clip-rule:evenodd;fill:#1200FF;}
</style>
<polygon class="st0" points="564,529 567,530 567,531 564,531 "/>
<path class="st0" d="M570,531v2c-2.4-0.6-1.9-0.3-3-2H570z"/>
<path class="st0" d="M571,533c1.7,1.1,1.4,0.6,2,3h-1v-1C570.9,533.9,571.6,535,571,533z"/>
<path class="st0" d="M574,536c1.7,1.1,1.4,0.6,2,3h-1v-1C573.9,536.9,574.6,538,574,536z"/>
<path class="st0" d="M577,541v-2h1v1h1C577.9,541.1,579,540.4,577,541z"/>
<path class="st0" d="M581,548c-2.8-0.7-2.2-0.3-3-3h1c0.6-2-0.1-0.9,1-2v1l2,1C581.7,546,581.3,547,581,548z"/>
<path class="st0" d="M550,546h2v1h-1v1C549.9,546.9,550.6,548,550,546z"/>
<polyline class="st0" points="579,555 579,550 581,550 581,555 "/>
<path class="st0" d="M547,552v2c-1.1,1.1-0.4,0-1,2c-2-0.6-0.9,0.1-2-1c1.1-1.1,0.4,0,1-2h1v-1"/>
<path class="st0" d="M540,560h2c-0.3,1-0.7,2-1,3h-2v-1C540.1,560.9,539.4,562,540,560z"/>
<path class="st0" d="M537,566c0.4,0.6,1.6,0.1,1,2h-1c0,0-1,2.4-2,1L537,566z"/>
<path class="st0" d="M532,572h1v3h-1v1h-2v-1C530.9,574.2,531.6,573.1,532,572z"/>
<path class="st0" d="M529,581h-2c0.3-1,0.7-2,1-3h1V581z"/>
<path class="st0" d="M524,588h-2v-1h1v-1C524.1,587.1,523.4,586,524,588z"/>
<path class="st0" d="M519,591h1c0.9,1.8-0.7,3.1-1,4h-1C518,593.6,518.4,592.2,519,591z"/>
<path class="st0" d="M514,598h2v1C514,598.4,515.1,599.1,514,598z"/>
<path class="st0" d="M515,600c4,1,4.9,4.1,8,6v1h-2C519.1,603.9,516.1,604,515,600z"/>
<path class="st0" d="M523,608l3,1v2C524.4,610.5,523.8,609.3,523,608z"/>
<path class="st0" d="M542,612v-2c2.4-0.6,2.2-1,4-2v2h-1C543.9,611.7,544.4,611.4,542,612z"/>
<polygon class="st0" points="528,611 528,613 527,613 527,612 526,612 526,611 "/>
<path class="st0" d="M542,612v2l-4,1v-1h1C540.1,612.3,539.6,612.6,542,612z"/>
<path class="st0" d="M530,614c3.2,0.7,2,1.5,3,2h4v1h-1v1h-4C531.1,616.2,530.6,616.4,530,614z"/>
</svg>
