<?xml version="1.0" encoding="utf-8"?>
<!-- Generator: Adobe Illustrator 24.0.1, SVG Export Plug-In . SVG Version: 6.00 Build 0)  -->
<svg version="1.1" id="图层_1" xmlns="http://www.w3.org/2000/svg" xmlns:xlink="http://www.w3.org/1999/xlink" x="0px" y="0px"
	 viewBox="0 0 800 800" style="enable-background:new 0 0 800 800;" xml:space="preserve">
<style type="text/css">
	.st0{fill-rule:evenodd;clip-rule:evenodd;fill:#1200FF;}
</style>
<path id="形状_27" class="st0" d="M398,465.2v2h-4c-0.3,1.3-0.7,2.7-1,4h-3v-1c0.9-1.1,1.3-0.4,1-3h-1l1-2
	C393.9,466.2,393.8,465.5,398,465.2L398,465.2z M400,465.2h5v2h-5V465.2z M411,465.2v2h-5v-1h1v-1H411z M417,465.2v2h-4v-1h1v-1H417
	z M420,466.2h5v1h-2v1C420.6,467.6,421.1,467.9,420,466.2L420,466.2z M426,466.2c1.7,0,3.4,0.3,5,1v1h-5V466.2z M440,475.2
	c-4.2-0.8-6.3-3.9-8-7h2l3,4l3,1V475.2z M391,472.2h2c-0.3,7-0.7,14-1,21h-2c-0.4-2.1-1.8-4-1-7h1v-5c-0.8-0.3-1.2-1.2-1-2h1v-2h1
	c0.3-0.8-0.1-1.7-0.9-2c0,0,0,0-0.1,0C390.3,474.2,390.7,473.2,391,472.2L391,472.2z M441,478.2v-3h1c2,2.4,4,2.3,5,6h-1
	C444.7,479.7,443,478.6,441,478.2L441,478.2z M448,482.3h3c0.9,1.8,1.4,1.6,2,4h-1C450.7,484.6,449.2,484.2,448,482.3L448,482.3z
	 M458,488.3c0.3,1,0.7,2,1,3h-2c-2-2.5-2.4-0.4-3-5h1C456.1,488,455.6,487.6,458,488.3L458,488.3z M459,491.3c2.5,0.9,4.6,2.7,6,5
	h-2v-1C460.1,494.6,459.7,494.1,459,491.3L459,491.3z M392,515.3h-2v-4h-1v-1h1v-6h-1v-1c0-1.3,1.1-1.7,1-4l-1-2h1v-3h1
	c0.3,3.3,0.7,6.7,1,10c-0.2,1.4-1.2-0.4-1,1h1V515.3L392,515.3z M469,500.3c-2.9-0.7-3.3-1.1-4-4h1c2,2.4,3.5,1.6,4,6h-1V500.3z
	 M472,503.3h2v2c-2.6-0.6-2.8-1.1-4-3c1.1-0.8,0.1,0.1,1-1C472.1,502.4,471.4,501.3,472,503.3L472,503.3z M479,508.3
	c1.2,4.5,3.8,3.7,4,10c-0.9,0.8-1.6,1.9-2,3h-2v-1c1.8-1.5,1.9-2.7,2-6c-2.7-1.5-4.5-4.3-6-7h2C478.1,508.4,477,507.7,479,508.3
	L479,508.3z M390,516.3h2c-0.1,13.7,2.8,24.6,3,37h-2c-0.3-2.7-0.7-5.3-1-8h-1c0.3-1.3,0.7-2.7,1-4h-1v-3h-1c0-0.2,1.6-3.7,1-6h-1
	c0.3-1.7,0.7-3.3,1-5h-1v-2h-1C389,525.1,390,518.5,390,516.3L390,516.3z M477,522.3h2c-0.3,3.7-0.8,4.2-4,5
	C475.6,524.5,476.3,525,477,522.3L477,522.3z M472,528.3h2c-0.3,3.7-0.8,4.2-4,5C470.6,530.5,471.3,531,472,528.3L472,528.3z
	 M469,534.3c-0.3,1.3-0.7,2.7-1,4h-3v-1c1.1-1.1,0.4,0,1-2L469,534.3z M461,539.3h2c-0.3,1.3-0.7,2.7-1,4h-3v-1
	C460.7,541.2,460.4,541.7,461,539.3L461,539.3z M454,548.3c0.6-2.4,0.3-1.9,2-3c0.8-1.1-0.1-0.1,1-1v3h-1
	C454.9,548.4,456,547.7,454,548.3L454,548.3z M452,548.3h1v3l-4,3v-1c-1.1-1.1-0.4,0-1-2C449.5,550.5,450.9,549.5,452,548.3
	L452,548.3z M394,554.3c4.1-0.1,8.2,0.5,12,2v1l19,2v3l-11-1l-1-2c-1,0.1-4.4,1.9-7,1v-1h-2v-1h-4l-1-2l-5,1V554.3z M444,554.3h3
	c-0.6,2.4-0.3,1.9-2,3v1h-1v-1h-1C443.3,556.3,443.7,555.3,444,554.3L444,554.3z M426,559.3l10,1v-1l6-1v1h-1v1
	c-1.4,0.5-2.2,0.4-4,1v1h-4v-1c-3.1-0.5-1.7,2-6,0v1h-1V559.3z"/>
</svg>
