<svg xmlns="http://www.w3.org/2000/svg" width="800" height="800" viewBox="0 0 800 800">
  <defs>
    <style>
      .cls-1 {
        fill: #fff100;
        fill-rule: evenodd;
      }
    </style>
  </defs>
  <path id="_1" data-name="1" class="cls-1" d="M386.96,72.156c7.521-.355,18.294-0.593,21,4h-4c-4.052,2.484-15.133-.785-22-1v-1h1C383.82,73.507,386.1,72.819,386.96,72.156Zm115.015,12c4.007,0.832,6.807,2.441,10,4v2h-3C506.925,87.621,503.6,87.077,501.975,84.153Zm-107.014,6C394.113,101.765,381.579,124.2,377,135c-12.638,29.822-24.624,59.539-35,91-9.1,27.6-13.367,57.421-17.049,89.093-0.666,14-2.333,27.994-3,41.989-0.739,10.548-.136,36.663-1,46.988,0,10,1,20,1,29.992,2,15.661,3,31.327,5,46.988-10.118-.568-15.892,1.691-25,2v-1c0.4-3.851-5.019-39.118-5-46.987q-0.5-19.494-1-38.99c-2.967-14.318-1.008-50.374,2-63.983v-11c2.707-25.836,4.9-50.843,11.6-73.823,15.887-54.483,37.181-106.773,61.424-156.289C378.965,87.99,384.5,89.72,394.961,90.152Zm-86.012,1c2.543,1.455,1.129-.217,2,3-0.7,3.988-2.644,4.463-11,4l-1-1,1-3C301.792,92.426,306.792,90.582,308.949,91.151Zm167.023,6c10.348-.231,19.689-0.75,24,5-6.839,16.448-9.133,35.627-15,53.986-22.167,69.347-37.42,147.036-58.008,215.944-8.895,29.774-15.359,58.614-24,85.978-2.751,8.707-3.016,21.039-8,27.992-1.073.752-.946,0.6-3,1-5.71-3.949-14.058-3.922-20-5a68.949,68.949,0,0,0-.314-8.03c2.878-7.944,4.72-19.475,7.315-28.96,5.837-21.337,11.2-42.937,18-64.983,21.185-68.65,37.643-150.324,59.008-217.945C463.623,137.908,466.161,118.139,475.972,97.15Zm-183.025,15h7v1c-6.294,11.469-17.621,40.884-24,55.985C263.132,199.447,255.515,233.644,246,268c-3.332,12.03-4.286,22.985-6.06,36.1-2.3,16.973-1.033,46.255,0,63.983,0,4,1,8,1,12q4,26.991,8,53.986c5.28,18.948,13.26,39.186,15,59.984-6.207,1.357-9.993,4.8-16,6-2.845-12.461-8.874-33.644-13-45.988-6.591-19.717-6.948-42.18-12-63.984-3.12-13.462-3.131-54.7-2-68.982,1.2-15.108,1.428-29.206,5-42.988,8.717-33.632,16.541-68.61,29.062-98.1,7.67-18.065,14.385-35.448,22.945-51.859,3.216-6.166,4.029-16.64,12-14C290.718,113.464,292.179,112.834,292.947,112.146ZM688,327.09c-0.451,8.323-4.441,19.5-7,25.91-6.248,15.646-8.981,27.689-17,41.072l-1-1c-4.166-3.234-13.384-18.43-14-24.994,3.8-8.6,10.263-28.529,14.952-41.953,2.271-6.5,2.644-12.5,7.051-15.032C673.661,313.8,679.784,322.676,688,327.09ZM644.994,440.06c-1.4,10.845-11.774,28.289-17,36.991h1c2.036-2.617,4.8-3.513,9-4a57.846,57.846,0,0,0,5,4C639.112,492.82,620.845,515.762,612,529c-4.767,7.134-10.291,17.894-17.012,23.031,0.876,2.252,1.778,2.579,1,4-2.01,6.487-10.1,17.282-18,18-6.933-3.108-23.661,26.548-30.222,34.693-3.239.01-1.264-.361-3.782,0.3a14.125,14.125,0,0,0-1,4l-5,1c0.392,2.932,1.636,1.253-1,3-0.713-.565-0.043-1.442-2-1v1l-1,1c2.266-.4,1.085-0.918,3,0-14.243,11.361-22.579,48.233-39,53.986v-2c11.2-8.971,10.366-53.367,4-68.983-2.343-5.749-6.159-9.864-8.328-16.2,16.76-10.871,33.562-27.631,48.333-41.784,7.147-6.848,13-14,20-21,4.881-6.5,15.163-22.67,22-25.993v2c5.25,7.96,3.068,24.722,12,28.993,1.073,0.751.945,0.6,3,1a15.669,15.669,0,0,0,1-5c-14.848-9.9-.953-29.354,0-35.991-1.831-5.351-5.081-4.706-5-10,4.227-3.357,4.48-8.928,8-13,2.661-3.075,8.549-2.428,11-6,2.636-3.837,1.9-8.357,4-13,2.123-4.7,8.146-8.927,11-13,2.031-2.894,1.963-6.108,4-9,5.777-8.19,13.819-10.305,15-23.994-2.387-2.58-7.269-9.284-6-12q0.5-1.5,1-3c5.821,5.857,8.225,15.09,14,21-3.108,15.371-11.53,16.6-15,34.99h3Zm-80.01,88.977v2h1v-2h-1Zm3,2c1.66,1.115,1.069,1.769,2,0h-2Zm-5,3c-2.433,7.246-8.891,13.829-13,20-8.15,12.225-19.939,32.359-30,41.989,4.1,5.176,10.515,9.734,14,15,1.755-.631.972-0.193,2-1,11.7-4.25,29.515-33.952,36-41.989,3.53-4.372,6.413-17.851,3-22.994C573.184,539.726,567.476,536.621,562.983,534.036Zm14,6c1.021,0.8.274,0.355,2,1C577.964,540.23,578.711,540.679,576.985,540.034Zm2,4,1,3h1C580.144,544.644,580.584,545.388,578.985,544.033Zm-29,3v2h1v-2h-1Zm-14,19.994v2h1v-2h-1Zm-4,6-1,2C532.723,573.626,531.979,573.026,531.979,573.026Zm-8,11q-0.5,2-1,4h1v-2c0.566-.712,1.442-0.042,1-2h-1Zm-5,7q-0.5,1.5-1,3h1v-1c0.566-.713,1.443-0.043,1-2h-1Zm-4,9,3,3Zm4,4,2,2Z"/>
</svg>
