<svg xmlns="http://www.w3.org/2000/svg" width="800" height="800" viewBox="0 0 800 800">
  <defs>
    <style>
      .cls-1 {
        fill: #54917e;
        fill-rule: evenodd;
      }
    </style>
  </defs>
  <path id="形状_16" data-name="形状 16" class="cls-1" d="M387.92,72.156c7.033-.342,16.548-0.394,19,4-8.261.939-14.921-.9-25.007-1v-1h1C383.926,73.463,386.918,72.869,387.92,72.156Zm115.03,12,9,4v2h-2C507.636,87.891,504.5,87.267,502.95,84.153ZM302.9,483.049q-3.5-30.489-7-60.984V391.073c-0.434-12.97-2.022-32.451,1-45.988v-12l8-63.983c8.925-37.514,18.337-70.445,32.01-101.974,8.688-20.036,17.647-40.439,27.006-58.984,3.319-6.576,2.736-16.236,12-17,3.323-2.173,12.863-1.13,18-1l1,1c-2.828,11.988-10.363,23.277-15,33.991-11.4,26.324-20.92,52.422-31.009,78.98C325.838,264.852,314.422,380.61,326.9,480.05h-6C320.176,480.4,307.15,482.537,302.9,483.049Zm-3-384.9c0.924-5.753,4.246-6.279,11-6v2C307.624,97.5,307.251,98.365,299.9,98.149Zm176.047-1c6.734-.187,14.625-0.181,18,2a12.794,12.794,0,0,1,6,4c-6.744,7.759-6.618,21.953-10,32.992-7.143,23.291-12.256,46.512-20,69.981-8.242,24.962-11.923,52.535-20.006,78.98-14.5,47.429-24.735,100.337-40.011,146.961-6.049,18.465-8.424,36.92-15,54.986-3.605-.611-19.749-4.473-22.006-6-1.05-1.549-1.031-4.085-1-7,3.822-9.513,4.86-21.758,8-31.991,6.187-20.151,10.867-40.2,17-60.984,19.79-67.028,34.514-140.706,57.015-206.946C462.558,148.753,465.162,120.321,475.943,97.15Zm-212.057,396.9c-5.956.733-10.4,3.72-15,6v-2c-5.094-6.775-11.237-34.777-14-44.988-26.03-96.1-13.859-196.228,19-268.93,8.265-18.283,14.423-36.1,23.006-52.986,3.36-6.611,3.944-15.986,13-17,2.389-1.766,5.779-1.993,10-2v1c-5.469,4.753-6.9,14.908-10,21.994-6.583,15.032-12.32,30.8-19,46.988-11.37,27.538-17.586,59.022-26.007,89.976a168.611,168.611,0,0,0-6,39.99c-0.607,15.828-.914,43.387,1,57.984v12l8,51.987C253.237,453,262.191,473.542,263.886,494.046ZM669,311.094c2.272,1.042,17.92,16.818,19,19-3.488,5.3-3.637,12.647-6,19-3.641,9.773-8.144,20.688-12,29.992-2.413,5.818-1.21,12.472-8,14-2.921-9.307-11.2-14.292-13-24.993C653.079,360.377,667.053,319.82,669,311.094ZM641.988,440.06c3.246,0.828,1.528-.49,3,2-3.624,7.426-8.654,22.921-17,34.991h1c3.456-4.6,7.97-3.258,13-2v6c-3.351,3.439-4.317,7.729-7,12-7.322,11.635-15.222,23.282-23.006,34.991-4.774,7.181-13.117,15.824-16,23.994-1.156,3.27.047,5.671-3,10l-12,12c-5.037,1.423-6.048-1.618-12,3-8.356,6.48-15.84,23.678-22.006,32.991-3.007,4.542-10.638,6.536-14,11-8.526,11.3-21.6,45.639-34.01,49.987v-2c10.877-11.261,10.388-52.409,4-68.982-2.088-5.421-7.042-9.222-9-15,7.975-2.767,12.839-10.372,19-15a214.35,214.35,0,0,0,32.009-29.992l18-18c4.665-6.2,14.61-22.881,21-25.993v2c6.468,9.91,3.05,20.215,13,30.992,1.754-.63.971-0.193,2-1l2-2c-1.837-5.249-10.929-11-7-21,2.114-5.379,8.079-12.942,6-18-1.831-5.351-5.081-4.707-5-10,4.033-3.191,5.787-11.559,9-14,3.241-2.458,7.859-1.156,11-6,2.213-3.409,1.053-8.177,3-12,2.53-4.959,9.044-8.445,12-13,2.093-3.218,1.87-7.033,4-10,5.8-8.069,13.289-9.909,14-23.994a22.89,22.89,0,0,1-6-13q0.5-.5,1-1c0.8,1.021.355,0.274,1,2C668.248,408.939,646.256,414.4,641.988,440.06Z"/>
</svg>
