<svg xmlns="http://www.w3.org/2000/svg" width="800" height="800" viewBox="0 0 800 800">
  <defs>
    <style>
      .cls-1 {
        fill: #fff100;
        fill-rule: evenodd;
      }
    </style>
  </defs>
  <path id="_2" data-name="2" class="cls-1" d="M529,118c15.186,1.8,32.44,10.317,43,18,5.546,4.035,8.349,11.019,13,16,0.078,11.684-4.551,19.834-7,29-5.551,20.777-12.387,38.308-17,58-0.8-1.021-.355-0.274-1-2-9.106-9.3-10.762-20.525-11-31-3.1.084-4.023,0.59-5,0-2.809-3.113-3.713-7.086-6-11-5.914-10.124-12.046-20.914-18-31-2.221-3.762-2.2-8-5-11C518.694,140.432,524.921,129.326,529,118Zm12,273q-1-36.5-2-73c2.982-.827,3.075-1.49,5-3q1-6.5,2-13c-0.578-2.021-4.228-4.24-5-6-1.759-4.013-.355-7.325-2-11l-5-5c1.178-10.355,4.932-34.293,11-42v2c11.774,12.556,10.45,22.552,4,45q-0.5,8.5-1,17c-2.732,17.962-2.926,58.29-2,77v12c2.58,11.684,4.78,23.678,9,34,3.417,8.359,8.6,13.727,9,25h-3c0.029-2,1.023-.282,0-2-1.295.877-2.467,0.894-5,1v2c-2.439,3.574.073,7.79,1,11,3.349,0.593,6.547,1.322,8,4,5.59,6.759,4.738,22.062,5,34h-2c-2.5-3.732-5.64-5-12-5v2c-4,8.089,10.125,13.765,11,22-4.04,6.229-2.186,17.593-9,21a14.512,14.512,0,0,0-11-3v1c11.087,11.283,30.231,47.962,25,72-2.573,11.821,2.617,28.4-10,30l-1-1c-1.828-20.44,1.461-41.888-7-56-2.4-4-3.376-11.409-6-12l-1-1c-3.832,4.039-5.69,9.386-9,14-5,6.969-14.043,9.988-20,16l-6,9c-2.232,1.48-5.1-.216-8,1-4.5,1.886-10.2,7.229-15,9l-4-1c-2.227.7-2.406,4.117-4,5-1.43.792-3.592-.546-4-1l-1,3-4-1c-1.7.494-2.6,2.313-5,3-38.7-38.022-54.765-48.6-80-64-8.968-5.472-25.73-8.35-33-15,3.384-9.866,8.54-21.5,13-32,7.024-16.531,13.961-34.382,21-51,3.21-7.578,6.2-24.159,13-28,1.639,2.23,1.709,3.009,4,2,4.486-.945,5.806-1.457,6-7-3.421-1.622-5.712-3.166-7-7,33.807-86.93,68.622-172.015,104-256,0.8,1.021.355,0.274,1.424,1.576,19.6,17.3,4.585,74.077,10.576,106.424-4.48,0-5.5-.04-7,3-6.055,8.623,3.675,24.6,9,28-3.32,6.768-11.05,11.124-12,18-3.98,28.808,2.235,31.418,8,43v1c3.594-8.39,2.491-31.159,0-39,3.605-.867,5.986-2.523,9-4v64c2.667,0.924,6.931,1.051,11,1C539.073,391.248,538.946,391.4,541,391ZM531,214c2.467,1.295.681-.429,2,2,1.5,1.624,1.552,2.023,2,5-1.692,1.86-1.584,3.662-4,5V214ZM402,465c0.327,2.212-1.038,1.079,1,2l1-1C402.979,465.2,403.726,465.645,402,465Zm14,0c-0.771.682-2.232,1.311-3,2h3l1-2h-1Zm-25,1c0.062,11.953-1.327,17.765-1,26h2v-1c-2.323-3.7.189-18.056,1-24,2.328-.195,2.826-0.193,4-1h-6Zm16,0c1.737,1.077,2.271,1.035,4,0h-4Zm14,0c1.72,0.881,1.278.889,3,0h-3Zm6,1c1.737,1.077,2.271,1.035,4,0h-4Zm5,1c1.35,1.624.64,1.121,3,2v-1Zm3,3c3.578,5.079,24.163,22.1,30,25C461.69,491.669,439.842,472.73,435,471Zm-40,2c-0.551,25.193-1.783,56.051,3,80,5.428,0.134,15.864,2.319,18,6,0,0-3.971.438-2,1h1c4.3,2.336,22.954,3.052,27-2h-1c-2.061,2.02-8.884,3.22-12,1,3.65-.139,7.786-0.224,10-2,1.98-1.588,3.177-5.151,5-7,9.234-9.362,25.73-19.5,30-33-0.4-3.3-6.57-7.57-10-11l-33-34H407C404.688,473.541,398.9,473.119,395,473Zm-5,20c-0.007,2.72.039,4.6,1,6C391.007,496.28,390.961,494.4,390,493Zm76,4c2.411,3.771,13.173,16.215,17,18v-1Zm-76,3c-0.06,2.9-.048,5.468,1,7C391.06,504.1,391.048,501.532,390,500Zm0,8c0.228,10.539-1.023,21.482,1,32,0.983,5.109,2.387,11.665,2,16,7.376,0.133,11.517,2.931,18,4l1-1v-1l-17-4c-0.524-4.08-1.916-9.68-3-15C390.252,530.426,394.164,514.231,390,508Zm91,8q-0.5,2.5-1,5h1v-1C482.077,518.263,482.035,517.729,481,516Zm-4,7-1,3h1v-1c0.566-.713,1.442-0.042,1-2h-1Zm-5,6-1,3h1l2-2C472.979,529.2,473.726,529.645,472,529Zm-4,5c-1.411,2.524-4.119,2.543-1,4v-1c0.8-1.021.355-.274,1-2C468.251,534.032,468.784,534.621,468,534Zm-7,6-1,3h1l2-2C461.979,540.2,462.726,540.645,461,540Zm-5,5c-1.041,2.814-2.516,1.367,0,3v-1c0.566-.713,1.442-0.042,1-2h-1Zm-5,4c-1.411,2.524-4.119,2.543-1,4,1.133-1.546,1.085-.843,2-3l1-1h-2Zm-6,5c-1.041,2.814-2.516,1.367,0,3,1.133-1.546,1.085-.843,2-3h-2Zm64,52c0.075,2.235-.217.707,2,1v-1h-2Z"/>
</svg>
