<svg xmlns="http://www.w3.org/2000/svg" width="800" height="800" viewBox="0 0 800 800">
  <defs>
    <style>
      .cls-1 {
        fill: #54917e;
        fill-rule: evenodd;
      }
    </style>
  </defs>
  <path id="形状_17" data-name="形状 17" class="cls-1" d="M529,118c15.668,1.925,33.1,11.061,44,19,5.11,3.721,7.581,10.544,12,15-0.054,11.217-3.159,19.407-6,28-6.373,19.277-13.431,38.506-18,58l-1-1c-3.78-3.942-8.759-14.338-10-20-0.763-3.483,2.788-6.266,0-10-1.743-2.334-4.43-1-6-2-4.6-4.979-6.513-10.721-10-17-6.011-10.824-15.557-22.994-18-38C518.425,144.646,525.084,126.842,529,118ZM519,277l-6,1v2c-1.657,2.3-2.57,10.916-2,12,3.207,5.193,9.523,11.1,11,18-13.17,14.454-18.674,30.331-8,51,1.842,3.566,1.539,8.012,5,10,0-1.667,0-3.334-.109-4.924,2.617-5.768,1.655-28.58-.891-35.076,3.925-.814,6.182-2.33,9-4v64c2.893,1,7.674,1.059,12,1,1.021-.8.274-0.355,2-1V369c-3.091-4.681-1.01-31-1-39V318c1.333-.667,3.667-1.333,5-2-1.179-.869-3.55-7.335,2-8v1c-2.852,7.96-2,27.259-2,38a400.6,400.6,0,0,0,5,63c1.926,12.456,13.328,26.476,14,40h-2c0.573-2.95,2.033-3.1-1-5-0.416,3.58.472,2.516-2,4-1.545-.707-0.135-0.129-3,0v2c-1.844,2.672-.664,7.113,0,10,16.443,3.156,12.214,20.89,13,39h-1c-2.378-3.682-5.531-5.365-11-6-1.225,2.281-1.638,2.251-2,6,2.412,2.523,1.125,3.459,3,7,2.667,5.037,7.432,3.557,8,12-3.873,6.485-1.356,17.356-8,21a20.606,20.606,0,0,0-10-4l-1,1c5.952,12.649,15.917,23.084,21,36,7.476,19,4.367,45.415,0,65-2.281,1.225-2.251,1.638-6,2-1.079-3.127-1.065-8.414-1-13-5.5-8.674,2.38-19.222-2-30-1-.667-1-1.333-2-2-0.93-2.555,1.826-7.118-1-10-3.473-3.542-5.514-10.8-8-16l-1,1c-4.532,4.456-7.136,10.872-11,16-3.653,4.848-10.081,7.325-15,11-4.154,3.1-8.4,9.163-12,13h-2v-1c2.542-1.287,2.872-1.1,4-4h-1c-7.6,9.9-14.5,9.325-24,14-1.065.524-3.2,2.471-4,3l-4-1c-1.8.663-.9,3.2-2,4h-2c-6.193.542-2.31,0.908-6,2-3.316-4.743-8.936-7.937-13-12-20.432-20.426-43.59-37.488-69-53l-32-14c3.356-4.867,10.069-26.732,16-39,10.963-22.676,19.024-48.748,30-72,2.488,1.551,2.522,2.976,5,2,4.1-.865,6.154-1.58,7-6-3-1.829-6.7-4.372-8-8,3.41-4.048,3.72-9.654,6-15,6.129-14.375,11.513-29.753,18-45,18.2-42.781,34.578-87.614,53-130,6.785-15.611,12.6-31.24,19-46,2.957-6.816,4.631-14.64,9-20v2c3.071,3.25,7.825,11.608,9,16q-0.5,8-1,16c2.527,12.036,2.566,34.968,0,47Q518,263.5,519,277Zm12-63c2.689,1.809,3.427,2.92,4,7-1.692,1.86-1.584,3.662-4,5C531.324,224.053,531.037,218.634,531,214Zm13,25c12.409,11.906,11.716,23.971,6.085,45.192-2.012,7.581-.469,15.046-4.085,19.808-0.9-4.742-3.576-4.959-5-8-1.981-4.231-.115-8.233-2-12l-4-4C531.055,270.271,542.6,249.651,544,239Z"/>
</svg>
