<svg xmlns="http://www.w3.org/2000/svg" width="800" height="800" viewBox="0 0 800 800">
  <defs>
    <style>
      .cls-1 {
        fill: #1200ff;
        fill-rule: evenodd;
      }
    </style>
  </defs>
  <path id="形状_82" data-name="形状 82" class="cls-1" d="M432,84V80c1.834-1.284,1.712-1.967,4-3,2.915-2.043,8.037-2.073,13-2v3c-4.1,2.957-3.568,7.191-10,8C437.252,84.712,434.778,84.312,432,84ZM352,95.989l-16,2c0.44-3.584.844-5.3,3-7,3.154-2.507,8.874-3.67,14-4v3C352.039,91.409,352.024,93.264,352,95.989Zm182,3a69.028,69.028,0,0,1,14,1c-1.021.8-.274,1.355-2,2-2.569,2.865-5.437,6.122-10,7-2.2-2.017-4.534-3.059-6-6,0.333,0,.667,1,1,1A23.667,23.667,0,0,1,534,98.987Zm64,52.971c9.169,0.817,15.716,3.73,22,7v1h-2c-6.483-4.847-12.181.723-18,2-1.989-3.747-5.214-4.5-7-8A10.975,10.975,0,0,0,598,151.958ZM114,250.9c6.2-1.574,5.279,3.231,7,7-8.782.042-16.664,2.244-20,21.1-0.8-1.021,2.645-10.381,2-12.106h-1C106.051,261.238,108.688,252.005,114,250.9ZM256,508.761c0.444,5.43,6.08,23.411,9,26.985,1.775,2.171,4.289.514,7,2,4.072,2.229,10.555,13.172,12,17.99h-1a19.487,19.487,0,0,0-4-2v2c4.045,4.308,2.833,8.166,2,12.992,9.536,2.344,22.741,9.291,26,17.991,1.88,5.018.376,7.428,3,10.993,2.01,2.731,5.517,1.765,8,4,2.959,2.662,3.816,14.939,7,18.99,6.468,8.229,22.966,11.6,37,11.993v6l-3,1c-9.032,5.04-36.417-5.889-41-9.994-4.1-3.669-5.771-9.381-9-13.993-8.531-12.184-21.8-27.931-38-31.982l-7,1c-5.607.163-13.929-.939-21-1-3.23-4.925-8.493-6.535-9-13.992,3.967-6.467-4.234-12.274-3-17.99l2-1c2.35-8.589-8.143-18.843-11-23.986-9.629-17.339-21.5-30.767-33-45.975-4.72-6.244-13-9.963-16-17.99a11.556,11.556,0,0,0,2-3h2c6.707,10.32,17.792,17.325,25,26.985,8.588,11.51,16.882,21.815,25,33.981,3.217,4.821,7.985,8.933,10,14.992,0.8-1.021.355-.274,1-2,0.752-1.073.6-.945,1-3-6.5-4.667-17.621-25.158-20-33.981h3c5.3,5.2,10.356,2.27,19,5C246.479,503.493,248.9,507.74,256,508.761Z"/>
</svg>
