<svg xmlns="http://www.w3.org/2000/svg" width="800" height="800" viewBox="0 0 800 800">
  <defs>
    <style>
      .cls-1 {
        fill: #fff100;
        fill-rule: evenodd;
      }
    </style>
  </defs>
  <path id="_4" data-name="4" class="cls-1" d="M376.725,93a75.414,75.414,0,0,1,15,1c1.333,2.333,3.666,5.667,5,8h-14c-3.347,2.2-10.863,2.065-16,2-1.283-2.072-3.077-3.3-4-6C366.544,97.463,373.81,95.215,376.725,93Zm86.986,11,18,2c7.7,11.7,11.637,23.229,18,37,16.722,36.209,31.193,77.114,42.992,118,3.756,13.012,4.213,24.21,7,39,3.91,20.75,9.755,39.443,8.229,65.068-0.337,5.656-.231,11.266-0.032,17.251-3.44,22.188-6.4,41.94-11.2,61.681-4.661,19.173-11,40.657-18,61-1.3.474-4.959,1.214-6,2,4.372-.239,5.6-1.752,7,1h-1c-0.9,2.189-.862,1.443-2,3-1.754-.631-0.971-0.193-2-1-3.761-1.092-3.547-1.787-5-5-3.093.867-7.431,1.062-12,2,0-1.333,0-2.667-.1-4.065,7.021-13,11.893-42.592,17.1-58.935,7.729-24.273,11.991-49.524,12-81V343c-2.747-12.236-5.258-24.723-8-36-3.675-15.128-2.567-28.754-7-43-11.41-36.675-22.361-74.4-36.994-107C476.846,139.485,471.714,120.519,463.711,104Zm-89.985,13c10.474-.824,20.125-2.066,30,0,7.708,18.168,14.8,41.647,22,59,9.164,22.086,14.476,46.6,22,69q13,56.495,26,113,2,20,4,40c1.778,28.011,4.072,56.138,2,85-0.577,8.04,1.23,24.835-4,28,0.028-2,1.023-.282,0-2-2.859,4.976-5.224,2.6-10,4v1c4.111-.1,3.8-1.653,4,4-0.8,1.021-.355.274-1,2l-3,1c-2.347,1.544-4.28.586-7,0a14.163,14.163,0,0,1-1-4c1.849-4.78.887-26.346-1-35V460c0-18.43-1.439-36.842-3-54q-1.5-18.5-3-37c-11.316-43.96-20.049-90.556-34-131-9.714-28.173-18.567-56.244-30-84C382.092,142.752,375.78,130.182,373.726,117Zm-124.98,91c0.9,27.174,7.742,52.11,12,75,0.528,2.836-5.719,11.4-6,18,6.167,6.436,2.828,4.693,4,11,1.191,6.413,9.948,9.829,13,15,4.019,6.814,3.814,15.6,3,24q5.5,18.5,11,37,1,8,2,16l3,1v11a170.249,170.249,0,0,0,22,48c4.891,7.358,14.053,16.589,17,25,2.607,7.447.455,45.774-1,52,0,4.333-1,8.667-1,13-2,9.666-3,19.334-5,29-8.37,25.3-27.468,56.5-44.993,73v-1a42.292,42.292,0,0,1-16-21c7.282,0.372,12.417-.25,13-7-4.053-4.895-6.386-5.348-16-5-1.073-.752-0.946-0.6-3-1V610c6.444-1.03,12.848-2.362,14-9-2.078-1.166-14.129-2.662-15-4,0.858-10.673-4.727-23.146,3-28,3.413,2.511,6.3,1.422,11,1,1.121-2.091,1.434-1.832,2-5-2.768-2.03-14.923-10.314-16-13-1.95-2.868-2.039-9.345-2-14,4.832,0.392,7.613.86,12,0a15.708,15.708,0,0,0,1-5c-2.315-2.773-4.012-5.938-7-8-6.011-4.15-7.582-1.98-8-11l-1-1c3.162,0.008,1.344,1.694,3-1-2.186-.472-1.74,0-2-1-0.361-2.951-2-2.068,1-4l1,1c-2.045-2.886-2.862-2.549-3-8,0.707-1.545.129-.135,0-3h3c1.273,0.822,6.06,1.3,9-1,0.877-1.3.894-2.467,1-5-2.2-2.2-4.356-6.338-7-8-3.124-1.964-2.212,1.414-4-2,11.832-12.471,20.058-60.7,14-90-7.774-37.576-13.528-85.058-22-124-3.267-15.023-4.789-26.8-8-43-3.377-17.052-5.212-32.239-7-55-0.36-4.579-4.132-15.19-2-19,3.949-12.021,17.874-15.9,28-22,2.617-1.577,6.943-5.723,10-4,4.669,5.754,3.889,16.653,6,25,4.54,17.96,5.687,36.513,11,54,5.458,17.973,8.833,37.77,14,56,4.5,15.874,5.573,30.385,10,46,11.2,39.514,19.509,85.412,21,133h-1c-2.143-3.672-6.019-6.627-8-10-4.516-7.695-7.428-15.45-12-23-1.08-1.784-3.492-4.782-4-7-0.5-2.164,1.878-4.635,1-8-1.489-5.708-5.539-12.068-8-18-2.159-5.207-9.238-26.452-7-34,2.122-7.15,5.9-17.642,7-26-5.36-4.921-22.82-20.093-18-27,3.1-4.938-1.319-15.182-4-18,1.981-2.044.461-10.254-1-16-2.88-11.332-7.966-43.413-15-45C254.918,207.274,251.489,207.706,248.746,208ZM517.7,137c10.319,8.42,16.538,29.99,24,42A433.666,433.666,0,0,1,588.69,283c4.408,14.6,5.6,26.628,9.31,42,2.936,12.163,6.52,47.855,3.688,65-3.754,22.719-8.7,43.874-16.688,61-8.309,17.812-15.372,33.552-25,49-3.1,4.978-5.473,9.806-11.3,12v-3c7.413-10.388,15.082-41.119,20-56,5.757-17.429,11.864-37.557,14-57,5.514-50.24-.6-58.92-6-78-4.159-14.695-3.794-29.731-7.692-44-5.385-19.711-10.609-38.352-18.3-57-4.389-10.636-8.1-22.763-13-34C531.371,168.5,520.485,154.424,517.7,137ZM330.733,491c2.542,1.455,1.127-.217,2,3h-1Zm129.978,22v2h2q0.5-.5,1-1v-1h-3Z"/>
</svg>
