<svg xmlns="http://www.w3.org/2000/svg" width="800" height="800" viewBox="0 0 800 800">
  <defs>
    <style>
      .cls-1 {
        fill: #54917e;
        fill-rule: evenodd;
      }
    </style>
  </defs>
  <path id="形状_1" data-name="形状 1" class="cls-1" d="M350,619c5.746-.062,13.916,1.186,16,5h-2c-7.923,7.725-17.4,11.89-24,21-3.158,4.357-7.722,14.212-11,15-8.336-8.6-2.126-28.77,5-34C338.591,622.63,343.387,619.19,350,619Zm22,8c5.991,4.036,7.357,10.481,10,18h-3c-3.149-2.161-10.669-.758-14,0v-3C367.591,637.239,369.27,630.449,372,627Zm-12,6c2.467,1.295.681-.429,2,2-2.639,2.944-2.986,8.41-6,11-1.964,1.562-5.154,2.367-8,3v-2C351.275,643.552,356.1,636.979,360,633Zm15,16h6l1,1c-2.131,11.6-8.087,21.278-19,24V652h2C367.414,650.363,372.482,650.668,375,649Zm74,4-12,2c0.631,1.754.193,0.971,1,2,3.847,3.167,8.619,1.531,10.3,7.43A32.145,32.145,0,0,1,449,668l-3,3c-6.661,5.14-31.359,3.171-38.543,1.3A32.261,32.261,0,0,0,403,666a34.11,34.11,0,0,1,1-11l6-5a88.956,88.956,0,0,1,12,0c3.148,4.042,6.706,4.535,7,12-4.611,1.573-13.8,1.076-20,1v2c1.546,1.133.843,1.085,3,2,1.584,3.236,21.427.9,30,2l1-3h-1c-3.7-6.145-11.809-2.147-11.507-12.77,4.933-3.97,9.544-4.472,17.507-4.23l1,1v3Zm-48-3v4a56.259,56.259,0,0,0-12,1c-1.354,2.991-1.98,5.051-2,10,3.846,2.413,6.82,3.141,14,3v5a28.942,28.942,0,0,1-16-2,24.935,24.935,0,0,0-4-5,26.847,26.847,0,0,1,2-12C386.069,650.269,390.24,649.286,401,650Zm9,9h12v-2c-1.546-1.133-.843-1.085-3-2-1.549-1.049-4.085-1.031-7-1l-2,2v3Zm-57,17c-7.01-.106-17.648-2.57-15-9,1.262-1.359,1.365-1.768,2-4,5.742-1.822,8.161-5.863,15-7v1C352.522,660.83,352.921,670.352,353,676Z"/>
</svg>
