<svg xmlns="http://www.w3.org/2000/svg" width="800" height="800" viewBox="0 0 800 800">
  <defs>
    <style>
      .cls-1 {
        fill: #54917e;
        fill-rule: evenodd;
      }
    </style>
  </defs>
  <path id="形状_2" data-name="形状 2" class="cls-1" d="M378.055,601c2.071,0.372,1.92.242,2.994,1,0.8,1.18.771,1.681,1,4-2.318,2.863-2.957,6.815-2.994,12l1,1c1.75-.631.969-0.193,2-1,7.911-2.919,6.433-11.049,18.961-9a14.609,14.609,0,0,0,4.287,4.741c2.918,8.633-12.844,44.944-18.258,50.259-7.38,7.245-23.022,3.806-25.948-5-2.344-2.953-2.141-8.487-2-14,4.255-7.494,8.759-16.96,23.951-11q0.5,1.5,1,3c-2.925,3.535-9.791,18.252-7.984,22,1.177,0.8,1.678.773,3.992,1,1.019-.8.273-0.355,2-1,4.313-8.235,15.771-30.1,15.967-42h-3.992c-3.819,5.314-8.762,9.912-17.963,10-1.019-.8-0.273-0.355-2-1-2.969-3.72-2.9-5.6-2-11C373.822,610.882,375.211,604.7,378.055,601Zm-7.984,39c-3.056,4.628-5.264,7.219-3.992,14,1.763,0.961,1.677,1.257,3.992,2,0.752-5.867,3.809-10.956,5.988-16h-5.988Zm10.978,34c1.62,1.35,1.119.64,2,3h-2v-3Z"/>
</svg>
