<svg xmlns="http://www.w3.org/2000/svg" width="800" height="800" viewBox="0 0 800 800">
  <defs>
    <style>
      .cls-1 {
        fill: #1200ff;
        fill-rule: evenodd;
      }
    </style>
  </defs>
  <path id="形状_1_拷贝_13" data-name="形状 1 拷贝 13" class="cls-1" d="M395.538,303.664c8.477-2.615,17.685-1.549,24.588-.755-0.8,1.466.113,0.4-1.7,1.579-1.041,2.254-1.715,1.435-3.4,3.159q0.147,0.5.292,1l-1.99.583-0.411,2.283-3.688,2.163-0.411,2.283-1.99.583q-0.908,2.43-1.817,4.859l-1.99.583-3.223,7.434-5.916,9.305q0.291,1,.583,1.992l-3.1,4.155q0.292,1,.584,1.992l-2.4,2.867q-2.348,10.421-4.695,20.845c-0.761-.138-2.762-0.954-3.523-1.092l-6.9-8.8q-0.876-2.988-1.751-5.976l-1,.291c-1.2-2.061-.974-8.962-0.929-10.544q-0.525-3.632-1.048-7.264l1-.291q-0.087-2.139-.173-4.276l1.7-1.579q-0.293-1-.584-1.993l1.7-1.579q-0.291-1-.584-1.992l1.7-1.579,1.818-4.859,1.989-.583q0.207-1.142.412-2.284l1.989-.583q0.207-1.141.412-2.284l9.776-7.191,4.975-1.457Q395.685,304.162,395.538,303.664Zm53,22.328-24.8,7.267c-1.281-10.049,1.75-19.8,3.623-28.062,1.375,0.51.108-.169,1.287,0.7C435.421,307.589,445.268,317.736,448.535,325.992Zm-32.952,12.9c-4.019,2.259-9,4.8-13.018,7.059q-0.145-.5-0.292-1c1.982-2.37,1.243-4.206,2.229-7.143l2.4-2.867q-0.293-1-.584-1.992c2.441-3.96,5.56-9.161,8-13.121,0.371-1.19,1.024-1.421,1.395-2.611l1.99-.584,0.292,1C416.02,320.745,414.649,333.919,415.583,338.892Zm8.8,3.951c10.152-5.553,16.1-7.642,24.911-10.583a16.294,16.294,0,0,1,2.746,5.685l-1,.291q0.584,1.992,1.168,3.985l-1,.291q0.436,1.494.875,2.988l-0.995.292q-0.119,3.279-.238,6.56l-1,.291q0.291,1,.584,1.992l-3.105,4.155c-2.593,7.025-6.079,11.59-12.391,16.57-0.584-1.992-1.431-4.593-2.015-6.585C430.815,364.655,425.67,347.742,424.38,342.843ZM398.644,380.63a43.84,43.84,0,0,1-.5-12.755c5.052-4.951,10.24-13.911,17.682-17.079q0.147,0.5.292,1c-2.019,4.19,4.1,21.672,6.161,28.4a10.975,10.975,0,0,1-3.688,2.162c-2.446-1.147-5.59.609-8.543,0.34l-0.291-1-2.985.875C404.045,382.214,402.024,380.525,398.644,380.63Z"/>
</svg>
