<?xml version="1.0" encoding="utf-8"?>
<!-- Generator: Adobe Illustrator 24.0.1, SVG Export Plug-In . SVG Version: 6.00 Build 0)  -->
<svg version="1.1" id="缝线" xmlns="http://www.w3.org/2000/svg" xmlns:xlink="http://www.w3.org/1999/xlink" x="0px" y="0px"
	 viewBox="0 0 800 800" style="enable-background:new 0 0 800 800;" xml:space="preserve">
<style type="text/css">
	.st0{fill-rule:evenodd;clip-rule:evenodd;fill:#1200FF;}
</style>
<path id="形状_149" class="st0" d="M567,528.9v2c-2.4-0.6-1.9-0.3-3-2H567z M561,533.9h-2c0-1.4,0.4-2.8,1-4h1V533.9z M567,530.9
	c1.4,0,2.8,0.4,4,1v1C568,532.6,568.3,532.8,567,530.9z M571,532.9h2c0.3,1,0.7,2,1,3h-2v-1C570.9,533.8,571.6,534.9,571,532.9
	L571,532.9z M577,536.9v2h2v3h-1c-1.1-1.1,0-0.4-2-1c-0.6-2.7-1.3-2.3-2-5h1C576.1,537,575,536.3,577,536.9L577,536.9z M553,542.9
	c0.6-2.7,1.9-3.7,3-6h1v1c1.1,1.1,0.4,0,1,2C555.9,541.1,555.8,542.2,553,542.9L553,542.9z M581,547.9h-2v-5h1v1h1V547.9z
	 M550,545.9h2c-0.3,1.3-0.7,2.7-1,4h-2C549.3,548.6,549.7,547.2,550,545.9L550,545.9z M579,548.9h2v6h-2V548.9z M544,554.9h2v1h-1
	c-0.7,0.5,0,1.4-2,1C543.3,556.2,543.7,555.6,544,554.9L544,554.9z M578,555.9h2v3h-2V555.9z M536,565.9h2v3l-3,1v-2
	C536.1,566.8,535.4,567.9,536,565.9L536,565.9z M525,587.9h-3v-1c0.9-0.8,1.6-1.9,2-3h1v1h1C525.7,585.9,525.3,586.9,525,587.9
	L525,587.9z M521,589.9c-0.5,2.4-1.2,3.1-2,5h-1v-4L521,589.9z M514,596.9h2v3c4.2,2.5,5.9,7.6,11,9c0.7,2.8,0.3,2.2,3,3v2
	c-3.6-0.9-5.5-3.9-8-6v-1h-2v-1l-6-5l1-1C514.7,598.9,514.3,597.9,514,596.9L514,596.9z M542,611.9c-0.7,2.8-0.3,2.2-3,3v1h-1v-2
	l9-7v2h-1C544.9,610.9,544.6,611.2,542,611.9L542,611.9z M530,613.9c3.2,0.7,2,1.5,3,2h4v1h-1v1h-4
	C531.1,616.1,530.6,616.3,530,613.9L530,613.9z"/>
</svg>
