<?xml version="1.0" encoding="utf-8"?>
<!-- Generator: Adobe Illustrator 24.0.1, SVG Export Plug-In . SVG Version: 6.00 Build 0)  -->
<svg version="1.1" id="缝线" xmlns="http://www.w3.org/2000/svg" xmlns:xlink="http://www.w3.org/1999/xlink" x="0px" y="0px"
	 viewBox="0 0 800 800" style="enable-background:new 0 0 800 800;" xml:space="preserve">
<style type="text/css">
	.st0{fill-rule:evenodd;clip-rule:evenodd;fill:#1200FF;}
</style>
<path id="形状_150" class="st0" d="M398,465v2h-4c-0.4,3.4-1.1,6.7-2,10v16h-2c-0.3-2.3-0.7-4.7-1-7h1v-5h-1v-1h1v-3h1v-6h-1
	c-0.2-1.4,0.7,0.4,1-1v-4L398,465z M400,465h5v2h-5V465z M411,465v2h-5v-1h1v-1H411z M417,465v2h-4v-1h1v-1H417z M420,466h5v1h-2v1
	C420.6,467.4,421.1,467.7,420,466z M427,466c1.4,0,2.8,0.4,4,1v1h-5L427,466z M440,475c-2.7-0.6-2.3-1.3-5-2c-0.7-2.8-1.8-2.9-3-5h2
	C435.9,471.1,438.9,471,440,475z M442,476c1.4,0.7,1.2,1.5,2,2c2.5,1.8,1.9-1.1,3,3h-1c-1.1-1.1,0-0.4-2-1
	C443.1,478.2,442.6,478.4,442,476z M448,482c1.4,0,2.8,0.4,4,1v2h-1C450,483.7,449,483.5,448,482z M458,488l1,3h-2
	c-2-2.5-2.4-0.4-3-5h1C456.1,487.7,455.6,487.4,458,488z M469,500h-2l-4-5h-2v-1l-2-1v-2h1c1.4,1.6,3.5,2.5,5,4l1,2l3,1V500z
	 M392,515h-2c-0.3-4.3-0.7-8.7-1-13c0.3-1.4,0.8,0.4,1-1c0.3-2.4-1-3-1-3c-0.5-2.3,0.6-2.7,1-4c1.1,0.8,0.1-0.1,1,1
	c1.6,1.7,1.7,10.5,1,14h-1v1h1V515z M470,501c2.8,0.7,2.2,0.3,3,3C470.2,503.3,470.8,503.7,470,501z M480,512c-4.1-1.1-1.2-0.4-3-3
	h-1l-1-3h1v1l3,1v2c0,0,1.7,1.7,2,2l2,1v5c-0.9,0.8-1.6,1.9-2,3h-2v-1C482.1,518,480.7,515.3,480,512z M390,516h2
	c-0.1,14.1,2.8,25,3,38c5.9,0.1,7.1,1.7,11,3l19,2v3c-1.7,0.1-3.4-0.3-5-1v-1h-1v1l-12-1c-4.8-1.5-7.7-3.8-14-4v-8h-1v-3h-1l1-4h-1
	v-3h-1v-1h1c-0.3-2.7-0.7-5.3-1-8c0.8-0.3,1.2-1.2,1-2h-1v-2h-1C388.9,524.7,390,518.3,390,516z M478,526l-3,1v-2l4-3v2
	C477.9,525.1,478.6,524,478,526z M472,528h2v3h-1c-0.8,0.9-1.9,1.6-3,2v-2C471.7,529.9,471.4,530.4,472,528z M469,534l-1,4h-3v-1
	c1.1-1.1,0.4,0,1-2L469,534z M461,539h2l-1,4h-3v-1C460.7,540.9,460.4,541.4,461,539z M458,544l-1,4l-4,1c-0.7,3.1-1.9,4.3-5,5v-3
	c2.2-1.2,3-2.3,6-3C454.7,545.1,455.1,544.7,458,544z M447,554c-0.7,2.9-1.1,3.3-4,4C443.7,555.1,444.1,554.7,447,554z M426,561v-2
	l10,1v-1l6-1v1h-1v1C435.6,562.3,431.6,562,426,561z"/>
</svg>
