<svg xmlns="http://www.w3.org/2000/svg" width="800" height="800" viewBox="0 0 800 800">
  <defs>
    <style>
      .cls-1 {
        fill: #54917e;
        fill-rule: evenodd;
      }
    </style>
  </defs>
  <path id="形状_3" data-name="形状 3" class="cls-1" d="M548.882,564h4.969v2c-0.773,1.065-1.48,3.692-1.988,5-2.969-1.309-4.707-1.747-5.962-5A10.865,10.865,0,0,0,548.882,564Zm6.957,1,4.968,1c2.6,1.539,6.9,5.2,4.976,8-1.868.936-6.867-.273-9.944-1v-8Zm-13.914,4c0.5,0.433,14.746,21.528,14.914,22h-7.957c-5.128-1.53-5.977-3.992-7.957-7C537.763,580.2,540.1,572.857,541.925,569Zm5.963,4c2.945,0.829,2.716.443,3.975,3,0.747,1.073.6,0.946,0.994,3h-0.994C550.317,576.611,548.959,576.076,547.888,573Zm8.944,5c2.65,0.333,6.3.667,8.951,1q-0.5,3-.994,6a23.522,23.522,0,0,1-4.975,1q-0.5-1-.994-2C557.484,582.319,557.193,580.857,556.832,578Z"/>
</svg>
