<svg xmlns="http://www.w3.org/2000/svg" width="800" height="800" viewBox="0 0 800 800">
  <defs>
    <style>
      .cls-1 {
        fill: #54917e;
        fill-rule: evenodd;
      }
    </style>
  </defs>
  <path id="形状_4" data-name="形状 4" class="cls-1" d="M422.18,492.063c10.916-.457,21.4,1.569,24.227,9.033l1.009,1c-7.092,1.023-10.647,4.527-19.179,5.018C425.416,502.562,420.86,497.786,422.18,492.063Zm-17.161,16.059v-3.011c3.364-3.346,2.867-7.477,10.095-10.037,1.77,0.633.98,0.193,2.018,1,2.35,3.366,3.379,9.432,5.048,13.048H409.057C407.866,508.32,407.36,508.35,405.019,508.122Zm47.445,1.007c0.569,6.092,1.152,11.317-1.01,16.056-6.033.128-12.687-4.1-17.161-11.041C440.35,512.806,446.408,510.467,452.464,509.129ZM403,514.144c14.55,9.2,22.493,15.669,43.407,20.074v1H445.4c-3.3,5.154-6.042,5.315-13.132,7.026C414.6,546.511,397.96,528.408,403,514.144Zm9.085,0,14.133,1q2.017,3.511,4.038,7.025h-2.019C423.356,518.609,415.815,518.838,412.085,514.144Z"/>
</svg>
