<svg id="CF" xmlns="http://www.w3.org/2000/svg" width="800" height="800" viewBox="0 0 800 800">
  <defs>
    <style>
      .cls-1 {
        fill: #1200ff;
        fill-rule: evenodd;
      }
    </style>
  </defs>
  <path id="形状_1_拷贝_9" data-name="形状 1 拷贝 9" class="cls-1" d="M447.42,411c8.871-.125,17.407,3.487,23.808,6.19-1.181,1.182,0,.413-2.073,1.038-1.633,1.87-2.05.894-4.147,2.076v1.038h-2.074l-1.036,2.076-4.147,1.038q-0.519,1.038-1.037,2.076H454.64l-3.11,4.152h-2.073l-5.184,6.227-8.294,7.266v2.076l-4.147,3.114v2.076l-3.11,2.076L418.354,472.2c-0.691-.346-2.382-1.692-3.073-2.038l-4.147-10.38v-6.228H410.1c-0.575-2.317,1.586-8.874,2.074-10.38q0.518-3.632,1.036-7.266h1.037q0.519-2.075,1.037-4.152l2.073-1.037v-2.076l2.074-1.038v-2.076l2.073-1.038,3.111-4.152h2.073l1.037-2.076H429.8q0.519-1.038,1.037-2.076l11.4-4.152h5.184V411ZM492,447.329H466.155c1.6-10,7.248-18.513,11.367-25.911,1.177,0.876.151-.132,1.037,1.038C484.59,425.982,491.186,438.488,492,447.329Zm-35.249,3.114c-4.492,1.038-9.986,2.076-14.478,3.114v-1.038c2.568-1.717,2.375-3.687,4.147-6.228l3.11-2.076v-2.076c3.456-3.113,7.912-7.228,11.368-10.342,0.691-1.037,1.382-1.076,2.073-2.113h2.074v1.038C462.272,433.151,457.253,445.409,456.751,450.443Zm7.33,6.266c11.305-2.475,17.6-2.806,26.882-3.152A16.276,16.276,0,0,1,492,459.785h-1.037v4.152h-1.036v3.114H488.89l-2.074,6.227H485.78v2.076l-4.147,3.114c-4.465,6.013-9.093,9.413-16.552,12.418,0-2.076-.081-4.81-0.081-6.886C464.124,479.45,463.942,461.773,464.081,456.709Zm-35.322,29.025a43.805,43.805,0,0,1,3.11-12.38c6.24-3.331,13.739-10.47,21.771-11.417v1.038c-3.116,3.453-2.162,21.949-2.073,28.987A10.975,10.975,0,0,1,447.42,493c-2.026-1.789-5.536-.987-8.294-2.076v-1.038h-3.11C433.5,488.773,432.032,486.584,428.759,485.734Z"/>
</svg>
