<svg xmlns="http://www.w3.org/2000/svg" width="800" height="800" viewBox="0 0 800 800">
  <defs>
    <style>
      .cls-1 {
        fill: #1200ff;
        fill-rule: evenodd;
      }
    </style>
  </defs>
  <path id="形状_1_拷贝_12" data-name="形状 1 拷贝 12" class="cls-1" d="M480.73,382.552c8.669,1.886,16.165,7.336,21.789,11.418-1.418.884-.1,0.4-2.255,0.542-2.013,1.452-2.2.407-4.509,1.083q-0.117.505-.235,1.011l-2.02-.469-1.479,1.787-4.275.073-1.479,1.787-2.02-.469-3.969,3.34-2.02-.47-6.459,4.893-9.723,5.2q-0.236,1.011-.47,2.022l-4.745,2.094q-0.234,1.011-.469,2.022l-3.5,1.318q-7.162,7.926-14.328,15.852c-0.594-.493-1.937-2.187-2.532-2.681q-0.844-5.523-1.69-11.049l1.41-6.066-1.01-.235c-0.035-2.386,3.554-8.284,4.37-9.641q1.326-3.42,2.654-6.842l1.01,0.235,1.95-3.81,2.254-.541q0.236-1.011.47-2.023l2.255-.541q0.236-1.011.47-2.022l2.254-.542,3.97-3.34,2.02,0.469,1.479-1.787,2.02,0.469,1.48-1.787,12.048-1.463,5.049,1.174Q480.612,383.058,480.73,382.552Zm35.2,45.477-25.174-5.85c3.819-9.383,11.25-16.392,16.938-22.666,0.947,1.12.176-.094,0.774,1.246C513.543,405.559,517.138,419.234,515.929,428.029Zm-35.039-4.946c-4.611-.006-10.2-0.238-14.807-0.244q0.117-.505.235-1.011c2.89-1.091,3.148-3.054,5.449-5.128l3.5-1.318q0.235-1.01.47-2.022c4.071-2.25,9.343-5.249,13.414-7.5,0.908-.854,1.59-0.735,2.5-1.589l2.02,0.469q-0.119.505-.235,1.011C490.182,407.49,482.518,418.293,480.89,423.083Zm5.722,7.763c11.571,0.148,17.781,1.251,26.9,3.015a16.276,16.276,0,0,1-.4,6.3l-1.009-.235q-0.471,2.022-.94,4.044l-1.01-.235-0.7,3.034-1.01-.235-3.429,5.6L504,451.9q-0.236,1.011-.47,2.022l-4.744,2.094c-5.71,4.847-10.988,7.111-18.933,8.349,0.47-2.022,1.01-4.7,1.48-6.726C481.505,453.006,485.33,435.747,486.612,430.846Zm-40.977,20.276a43.86,43.86,0,0,1,5.832-11.355c6.833-1.832,15.753-7.088,23.791-6.193q-0.117.505-.235,1.011c-3.817,2.658-7.075,20.89-8.581,27.766a10.975,10.975,0,0,1-4.274.072c-1.569-2.2-5.169-2.215-7.609-3.9q0.117-.505.235-1.011l-3.03-.7C449.563,455.154,448.632,452.69,445.635,451.122Z"/>
</svg>
