<svg xmlns="http://www.w3.org/2000/svg" width="800" height="800" viewBox="0 0 800 800">
  <defs>
    <style>
      .cls-1 {
        fill: #54917e;
        fill-rule: evenodd;
      }
    </style>
  </defs>
  <path id="形状_3" data-name="形状 3" class="cls-1" d="M549.237,564h5.168v2.077c-0.8,1.105-1.539,3.834-2.067,5.192-3.089-1.359-4.895-1.814-6.2-5.192A11.285,11.285,0,0,0,549.237,564Zm7.235,1.038,5.168,1.039c1.682,2.508,5.378,6.07,4.134,8.308-1.942.971-6.1-.284-9.3-1.039C553.989,568.151,555.257,566.62,556.472,565.038ZM542,570.231c0.52,0.45,14.3,20.279,14.47,20.769h-7.235c-2.776-2.331-5.176-3.107-7.235-6.231C538.713,580.819,538.446,573.039,542,570.231Zm6.2,3.115c3.062,0.861,2.824.46,4.134,3.116,0.777,1.114.621,0.982,1.033,3.115h-1.033C550.729,577.1,549.317,576.54,548.2,573.346Zm9.3,5.192,8.268,1.039q-0.518,3.115-1.034,6.231a14.543,14.543,0,0,1-4.134,1.038l-1.033-2.077C558.184,583.024,557.881,581.505,557.506,578.538Z"/>
</svg>
