<svg xmlns="http://www.w3.org/2000/svg" width="800" height="800" viewBox="0 0 800 800">
  <defs>
    <style>
      .cls-1 {
        fill: #54917e;
        fill-rule: evenodd;
      }
    </style>
  </defs>
  <path id="形状_4" data-name="形状 4" class="cls-1" d="M421.963,492.064c11.353-.466,22.253,1.6,25.2,9.21l1.05,1.024c-7.376,1.043-11.073,4.616-19.947,5.117C425.329,502.769,420.591,497.9,421.963,492.064Zm-17.847,16.374v-3.07c3.5-3.411,4.9-7.43,10.5-10.234,1.842,0.645,1.02-.8,2.1.023,2.443,3.432,3.514,10.617,5.249,14.3H408.315C407.077,508.64,406.55,508.67,404.116,508.438Zm49.335,2.017c0.6,6.241,1.206,10.549-1.042,15.38-7.228-2.121-13.195-4.176-17.848-11.257C440.736,512.74,446.5,509.318,453.451,510.455Zm-51.435,3.123c15.287,9.675,17.054,15.258,45.143,20.468v2.023H446.11c-3.434,5.254-7.325,5.418-14.7,7.163C413.043,547.58,401.425,532.035,402.016,513.578Zm9.449,1c4.9,0.341,9.8-.318,14.7.023,1.4,2.388,2.8,5.776,4.2,8.164h-2.1C423.186,519.131,415.344,519.364,411.465,514.578Z"/>
</svg>
