<svg xmlns="http://www.w3.org/2000/svg" width="800" height="800" viewBox="0 0 800 800">
  <defs>
    <style>
      .cls-1 {
        fill: #54917e;
        fill-rule: evenodd;
      }
    </style>
  </defs>
  <path id="形状_1" data-name="形状 1" class="cls-1" d="M350,619c5.746-.062,13.916,1.186,16,5h-2c-7.923,7.725-17.4,11.89-24,21-3.158,4.357-7.722,14.212-11,15-8.336-8.6-2.126-28.77,5-34A38.129,38.129,0,0,1,350,619Zm22,8c6.173,3.891,8.353,9.687,10.03,17.976C381,645,380,645,379,645c-3.149-2.161-10.669-.758-14,0v-3C366.928,637.051,369.253,630.773,372,627Zm-12,6c2.733-.885.681-0.429,2,2-2.639,2.944-2.986,8.41-6,11-1.964,1.562-5.154,2.367-8,3v-2C351.72,643.466,356.045,636.466,360,633Zm15,16h6l1,1c-2.131,11.6-8.087,21.278-19,24V652h2C367.414,650.363,372.482,650.668,375,649Zm74,4-12,2c0.631,1.754.193,0.971,1,2,4.188,3.407,10.7,3.592,10.578,8.225,0.174,0.848.023,0.721,0.422,2.775l-3,3c-6.407,5-34.518,2.655-38,1l-5-6a15.468,15.468,0,0,1,1-11l6-5a88.956,88.956,0,0,1,12,0c3.148,4.042,6.812,4.2,6,12,0.414,2.183-12.8,1.076-19,1v2c1.546,1.133.843,1.085,3,2,3.238,2.986,20.155.974,30,2l1-3h-1c-5.058-6.687-12.985-3.58-10.992-13.054,4.884-4.1,9.122-4.228,16.992-3.946l1,1v3Zm-48-3v4a56.259,56.259,0,0,0-12,1c-1.354,2.991-1.98,5.051-2,10,3.846,2.413,6.82,3.141,14,3v5c-7.633,1.47-11.908.231-16-2a24.935,24.935,0,0,0-4-5,26.847,26.847,0,0,1,2-12C387.553,649.824,391.351,648.651,401,650Zm9,9h12v-2c-1.546-1.133-.843-1.085-3-2-1.549-1.049-4.085-1.031-7-1l-2,2v3Zm-57,17c-7.01-.106-18.876-3.151-15-9,1.262-1.359,1.365-1.768,2-4,5.5-1.931,6.668-6.545,14.772-7.1A2.113,2.113,0,0,1,355,657C353.754,661.05,352.921,670.352,353,676Z"/>
</svg>
