<svg xmlns="http://www.w3.org/2000/svg" width="800" height="800" viewBox="0 0 800 800">
  <defs>
    <style>
      .cls-1 {
        fill: #54917e;
        fill-rule: evenodd;
      }
    </style>
  </defs>
  <path id="形状_3" data-name="形状 3" class="cls-1" d="M378.055,601c2.071,0.372,1.92.242,2.994,1,0.8,1.18.771,1.681,1,4-2.318,2.863-2.957,6.815-2.994,12l1,1c1.75-.631.969-0.193,2-1,7.7-3.812,6.18-11.205,18.961-9A24.933,24.933,0,0,0,405,614c3.958,7.388-13.026,45.1-17.963,50-7.343,7.282-23.022,3.806-25.948-5-2.344-2.953-2.141-8.487-2-14,4.468-9.3,9.5-17.348,23.951-11q0.5,1.5,1,3c-1.806,3.651-8.846,18.349-7.984,22,1.177,0.8,1.678.773,3.992,1,1.019-.8.273-0.355,2-1,4.325-9.039,16.346-31.3,15.967-42h-3.992c-3.819,5.314-8.762,9.912-17.963,10-1.019-.8-0.273-0.355-2-1-0.941-3.755-2.914-5.616-3-11C373.734,611.128,375.894,604.888,378.055,601Zm-7.984,39c-3.056,4.628-5.264,7.219-3.992,14,1.763,0.961,1.677,1.257,3.992,2,0.752-5.867,3.809-10.956,5.988-16h-5.988Zm10.978,34c1.62,1.35,1.119.64,2,3h-2v-3Z"/>
</svg>
