<svg xmlns="http://www.w3.org/2000/svg" width="800" height="800" viewBox="0 0 800 800">
  <defs>
    <style>
      .cls-1 {
        fill: #54917e;
        fill-rule: evenodd;
      }
    </style>
  </defs>
  <path id="形状_2" data-name="形状 2" class="cls-1" d="M548.882,564h4.969v2c-0.773,1.065-1.48,3.692-1.988,5-2.969-1.309-4.707-1.747-5.962-5A10.865,10.865,0,0,0,548.882,564Zm6.957,1,4.968,1c1.618,2.415,5.172,5.845,3.976,8-1.868.936-5.867-.273-8.944-1v-8Zm-13.914,5c0.5,0.433,13.746,19.528,13.914,20h-6.957c-2.669-2.245-5.977-2.992-7.957-6C537.763,580.2,538.981,572.521,541.925,570Zm5.963,3c2.945,0.829,2.716.443,3.975,3,0.747,1.073.6,0.946,0.994,3h-0.994C550.317,576.611,548.959,576.076,547.888,573Zm8.944,5,7.951,1c1.389,2.5-.663,4-0.994,6a13.966,13.966,0,0,1-3.975,1q-0.5-1-.994-2C557.484,582.319,557.193,580.857,556.832,578Z"/>
</svg>
