<svg xmlns="http://www.w3.org/2000/svg" width="800" height="800" viewBox="0 0 800 800">
  <defs>
    <style>
      .cls-1 {
        fill: #54917e;
        fill-rule: evenodd;
      }
    </style>
  </defs>
  <path id="形状_2" data-name="形状 2" class="cls-1" d="M548.882,564h4.969a9.113,9.113,0,0,0,.167,2.082c-0.338,1.279-.428,4.651-1.018,5.918-2.97-1.309-7.733-2.669-7.1-6C546.458,564.923,547.24,564.467,548.882,564Zm6.957,1,4.968,1c1.618,2.415,5.172,5.845,3.976,8-1.868.936-5.867-.273-8.944-1A27.635,27.635,0,0,1,555.839,565Zm-13.914,5c0.632,0.417,15.772,20.42,15.243,20.979C554.681,591,551.319,591,549,591c-2.669-2.245-5.02-2.992-7-6C538.837,581.2,539.111,572.715,541.925,570Zm5.963,3c2.945,0.829,2.716.443,3.975,3,0.747,1.073.6,0.946,0.994,3h-0.994C550.317,576.611,548.959,576.076,547.888,573Zm8.944,5,7.951,1c1.311,2.042.038,4.018-.994,6a13.966,13.966,0,0,1-3.975,1q-0.5-1-.994-2C557.484,582.319,557.193,580.857,556.832,578Z"/>
</svg>
