<svg xmlns="http://www.w3.org/2000/svg" width="800" height="800" viewBox="0 0 800 800">
  <defs>
    <style>
      .cls-1 {
        fill: #54917e;
        fill-rule: evenodd;
      }
    </style>
  </defs>
  <path id="形状_2" data-name="形状 2" class="cls-1" d="M422.18,492.063c11.811-1.042,22.025,1.158,24.227,9.033l1.009,1c-7.092,1.023-10.884,5.409-19.416,5.9C424.751,503.974,418.161,493.921,422.18,492.063Zm-17.161,16.059v-3.011c2.841-4.1,6.576-9.27,10.981-11.111,1.072,0.889.49,1,1,2,2.349,3.365,3.511,9.509,5.18,13.125H409.057C407.866,508.32,407.36,508.35,405.019,508.122Zm47.541,1.75c0.473,6.349,1.056,10.574-1.211,15.629-7.662.07-12.717-4.006-17.056-11.357C440.5,512.4,447.317,509.046,452.56,509.872ZM402.3,513.363c14.757,9.041,23.175,16.417,44.106,20.855v1H445.4c-3.3,5.154-5.3,6.1-12.4,7.779C415,547.252,400.372,532.17,402.3,513.363Zm9.16,0.5c3.547-.2,9.826.853,14.757,1.288q2.017,3.511,4.038,7.025h-2.019C423.356,518.609,415.815,518.838,411.461,513.86Z"/>
</svg>
