<?xml version="1.0" encoding="utf-8"?>
<!-- Generator: Adobe Illustrator 24.0.1, SVG Export Plug-In . SVG Version: 6.00 Build 0)  -->
<svg version="1.1" id="缝线" xmlns="http://www.w3.org/2000/svg" xmlns:xlink="http://www.w3.org/1999/xlink" x="0px" y="0px"
	 viewBox="0 0 800 800" style="enable-background:new 0 0 800 800;" xml:space="preserve">
<style type="text/css">
	.st0{fill-rule:evenodd;clip-rule:evenodd;fill:#1200FF;}
</style>
<path id="形状_157" class="st0" d="M564,528.9h3v2h-3V528.9z M567,530.9c1.4,0,2.8,0.4,4,1v1C568,532.6,568.3,532.8,567,530.9
	L567,530.9z M571,532.9c1.7,1.1,1.4,0.6,2,3h-1v-1C570.9,533.8,571.6,534.9,571,532.9L571,532.9z M574,535.9c0.3,0.2,5,5,5,5h-2v-1
	C575,538.8,574.7,538.5,574,535.9L574,535.9z M555,539.9h1v1l-1,2h-1C554.3,541.9,554.7,540.9,555,539.9L555,539.9z M579,542.9
	c2.2,1.4,2,2.4,2,6h-1v-1h-1V542.9z M552,545.9c-0.3,1.3-0.7,2.7-1,4h-2v-3h1C551.1,545.8,550,546.5,552,545.9L552,545.9z
	 M579,549.9h2v5h-2V549.9z M546,551.9h1v1l-1,2h-1C545.3,553.9,545.7,552.9,546,551.9L546,551.9z M578,555.9h2v2h-2V555.9z
	 M540,560.9h2c-0.4,0.9-1.1,1.6-2,2v1h-1C539.3,562.9,539.7,561.9,540,560.9L540,560.9z M536,566.9h2c-0.4,0.9-1.1,1.6-2,2v1h-1
	C535.3,568.9,535.7,567.9,536,566.9L536,566.9z M532,571.9h1v3h-1v1h-2v-1C530.9,574.1,531.6,573.1,532,571.9L532,571.9z M527,577.9
	h2c-0.3,1-0.7,2-1,3h-1V577.9z M523,583.9h2c0,1.4-0.4,2.8-1,4h-2v-1h1V583.9z M519,589.9h1c1,1.9-0.7,4.2-1,5h-1v-3
	C519.1,590.8,518.4,591.9,519,589.9L519,589.9z M515,599.9c2.8,0.7,2.2,0.3,3,3h1v1h-2v-1C515.3,601.8,515.6,602.3,515,599.9
	L515,599.9z M520,606.9c-0.3-1-0.7-2-1-3h2c0.9,1.8,1.4,1.6,2,4h-1C520.9,606.8,522,607.5,520,606.9L520,606.9z M542,611.9v-2
	c2.8-0.7,2.9-1.8,5-3v2h-1C544.9,610.9,544.6,611.2,542,611.9L542,611.9z M527,608.9c0.7,2.8,0.3,2.2,3,3v2c-3.3-0.8-5.6-3.4-7-6h2
	C526.1,609,525,608.3,527,608.9L527,608.9z M540,611.9h2c-2,3.7-5.8,6-10,6c-0.9-1.8-1.4-1.6-2-4h1c1.4,1.6,2.2,1.7,5,2
	C537.3,614.3,538.8,613.8,540,611.9L540,611.9z"/>
</svg>
