<?xml version="1.0" encoding="utf-8"?>
<!-- Generator: Adobe Illustrator 24.0.1, SVG Export Plug-In . SVG Version: 6.00 Build 0)  -->
<svg version="1.1" id="缝线" xmlns="http://www.w3.org/2000/svg" xmlns:xlink="http://www.w3.org/1999/xlink" x="0px" y="0px"
	 viewBox="0 0 800 800" style="enable-background:new 0 0 800 800;" xml:space="preserve">
<style type="text/css">
	.st0{fill-rule:evenodd;clip-rule:evenodd;fill:#1200FF;}
</style>
<path class="st0" d="M393.2,556l-1-12h-1l1-3h-1v-3h-1v-1h1v-5h-1l1-5l-2-1c-0.4-1.1,0-2.4,1-3v-19h-1c0-0.4,1.6-3.6,1-6h-1l1-9h-1
	l1-12h1v-5h-1c-0.3-1.7,0.9-1.7,1-2v-5h1c0.4,0.9,1.1,1.6,2,2c-3,8.2-0.4,18.7-2,29h-1l1,3v3h-1c-0.3,1.7,0.9,1.7,1,2
	c1.7,7.2-0.7,17,1,23v13h1v6h1c0.8,2.8,0,5.4,1,8c6,0.1,6.1,1.7,10,3h5v1h8v1l19,1v-1l4-1v1h-1v1c-1.6,0.7-3.3,1-5,1v1l-5-1
	c-0.3,0.8-1.2,1.2-2,1c-0.7-1-1.9-1.4-3-1v1h-5l-1-2l-6,1l-1-2c0,0-4.2,1.6-6,1v-1h-2v-1h-6v-1L393.2,556z"/>
<path class="st0" d="M395.2,465l3,1v1c-2.1-0.1-3.2,0.5-4-1h1V465z"/>
<rect x="400.2" y="465" class="st0" width="4" height="2"/>
<polygon class="st0" points="411.2,465 411.2,467 406.2,467 406.2,466 407.2,466 407.2,465 "/>
<polygon class="st0" points="418.2,465 418.2,467 413.2,467 413.2,466 414.2,466 414.2,465 "/>
<polygon class="st0" points="420.2,466 425.2,466 425.2,467 423.2,467 423.2,468 420.2,468 "/>
<path class="st0" d="M426.2,466c1.7,0,3.4,0.3,5,1v1h-5V466z"/>
<path class="st0" d="M432.2,468l3,1v2C433.5,470.5,432.9,469.3,432.2,468L432.2,468z"/>
<path class="st0" d="M435.2,471h3c1.2,2.1,2.2,2.2,3,5h-1c-1.2-1.6-3-2.6-5-3V471z"/>
<path class="st0" d="M441.1,476c3,0.6,3.8,1.8,6,3v2h-1C444.5,479.1,442.5,478.3,441.1,476L441.1,476z"/>
<path class="st0" d="M447.1,481c3,0.6,3.8,1.8,6,3v2h-1C450.5,484.1,448.5,483.3,447.1,481L447.1,481z"/>
<path class="st0" d="M453.1,486c2.6,0.6,2.8,1.1,4,3c1.1,0.8,0.1-0.1,1,1h-3C454.2,488.2,453.7,488.4,453.1,486L453.1,486z"/>
<path class="st0" d="M459.1,492h3c1.9,3.1,4.7,5.6,8,7v2h-1c-1.4-1.6-3.4-2.5-5-4l-1-2h-2L459.1,492z"/>
<path class="st0" d="M474.1,505l-3-1v-3h1c0.8,1.1-0.1,0.1,1,1L474.1,505z"/>
<path class="st0" d="M479.1,508c0.6,2.7,1.3,2.3,2,5h2v6l-4,3v-2c1.8-1.5,1.9-2.7,2-6c-2.7-1.6-4.8-4.1-6-7h2
	C478.2,508.1,477.1,507.4,479.1,508L479.1,508z"/>
<path class="st0" d="M475.1,527c0.6-2.6,1.1-2.8,3-4c0.8-1.1-0.1-0.1,1-1v3C477.3,525.9,477.5,526.4,475.1,527L475.1,527z"/>
<path class="st0" d="M470.1,533c0.6-2.6,1.1-2.8,3-4c0.8-1.1-0.1-0.1,1-1v3C472.3,531.9,472.5,532.4,470.1,533z"/>
<path class="st0" d="M467.1,534h2c-0.7,2.9-1.1,3.3-4,4v-1C466.8,535.9,466.5,536.4,467.1,534z"/>
<path class="st0" d="M463.1,539v3h-1v1h-3v-1c1.1-1.1,0.4,0,1-2L463.1,539z"/>
<path class="st0" d="M456.1,544h1v3h-1v1h-2v-1C455,546.2,455.7,545.1,456.1,544L456.1,544z"/>
<path class="st0" d="M453.1,549c-0.9,3.8-2.3,3.1-5,5v1c-1.7,1.4-2,1.7-5,2v-1h1c1.1-2,1.4-2.3,4-3
	C448.9,549.8,449.5,549.4,453.1,549L453.1,549z"/>
</svg>
