<svg xmlns="http://www.w3.org/2000/svg" width="800" height="800" viewBox="0 0 800 800">
  <defs>
    <style>
      .cls-1 {
        fill: #54917e;
        fill-rule: evenodd;
      }
    </style>
  </defs>
  <path id="形状_1" data-name="形状 1" class="cls-1" d="M623.012,281c3.731-4.04-1.867,17.33-5,19v-1C610.442,291.556,617.1,282.249,623.012,281Zm5,1h3l3,3-1,1c-1.567,1.829-.881,1.395-4,2Zm-3,5c1.958,2.511,1.32,1.64,1,5h-2v-2C624.762,288.927,624.612,289.054,625.01,287ZM636,288a10.454,10.454,0,0,1-1,10h-2v-1c-1.618-1.673-2.3-3.3-3-6C631.061,289.956,629.652,289.622,636,288Zm-6,14c-3.912.2-2.638,0.378-5.994,0v-3c1.722-1.732,1.5-2.783,4-4v2C629.5,298.624,629.558,299.023,630.005,302ZM348.26,621c6.256,0.124,10.983,1.78,15.986,3l-1,1c-6.1,5.926-13.859,9.109-18.982,16-5.138,6.91-9.066,16.741-14.988,23v-1c-1.815-1.436-2.418-3.39-4-5-1.228-14.646,1.321-25.7,10.99-32C339.883,623.648,344.911,623.528,348.26,621Zm31.971,24a117.478,117.478,0,0,0-15.985,1c0.345-7.66,3.345-12.657,5.994-18,0.333,0.333.666-.333,1,0A15.485,15.485,0,0,1,380.231,645Zm-19.982-12c3.614,7.006-2.28,20.018-12.988,18v-1C351.868,645.46,356.737,638.379,360.249,633Zm83.924,13c2.074,0.372,3.923.242,5,1,0.751,1.073-1.4.946-1,3-2.283.363-8.186,0.779-9.991,2-0.751,1.073-.6.946-1,3,4.938,0.9,10.434,2.519,11.991,7,6.147,12.36-37.44,11.411-41.963,8a24.956,24.956,0,0,0-4-5c-0.328-4.527-1.389-6.727,1-10,1.036-3.261,1.783-3.918,5-5,4.244-3.491,10.266-2.23,14.986-1,1.842,3.186,4.358,6.252,5,11-0.333.333-1.666,0.667-2,1-5.406-.246-15.892-0.341-17.984,3,1.544,1.133.842,1.085,3,2,3,2.662,24.648.576,29.973-1,0.8-1.021.355-.274,1-2-3.936-1.969-10.265-3.646-11.989-8-1.206-2.111-.482-2.232,0-5C433.715,647.735,441.811,646.082,444.173,646Zm-41.961,22v4h-3c-3.975,2.734-10.423-.06-13.987-1a24.956,24.956,0,0,0-4-5,50.2,50.2,0,0,1,1-11c4.9-4,8.113-6.649,16.985-6a14.163,14.163,0,0,1,1,4l-1,1c-9.7-.512-11.684,1.154-11.214,11,0.8,1.021,1.579.274,2.224,2h2C394.37,668.438,398.523,668.113,402.212,668ZM381.23,650c0.859,11.887-4.976,21.724-16.984,25v-1c-2.065-3.151-1.129-12.069-1-17-0.044-1.423-.8-2.451,2-4C368.7,650.269,375.089,649.935,381.23,650Zm29.973,3a25.767,25.767,0,0,0-2,5H415.2c1.417-.961,3.271-0.976,6-1v-2l-2-2H411.2Zm-55.948,25c-6.958-.143-11.638-2.516-16.986-4v-4a19.535,19.535,0,0,0,2-4c4.722-2.8,8.933-6.36,14.988-8v11C354.13,671.015,355.042,673.982,355.255,678Z"/>
</svg>
