<svg id="JP11" xmlns="http://www.w3.org/2000/svg" width="800" height="800" viewBox="0 0 800 800">
  <defs>
    <style>
      .cls-1 {
        fill: #13d904;
        fill-rule: evenodd;
      }
    </style>
  </defs>
  <g id="_1" data-name="1">
    <g id="svg">
      <path id="形状_4" data-name="形状 4" class="cls-1" d="M619.979,300.447c-2.766-.723-2.24-0.279-3-3-6.625-5.186,2.881-18.053,7.009-14.982h1C622.547,287.943,620.117,292.3,619.979,300.447Zm8.011-17.979h3a6.721,6.721,0,0,0,3,3v1h-1c-1.258,1.907-1.015,1.657-4,2Q628.49,285.466,627.99,282.468Zm-2,9.988h-2l1-4.994h1v2h1Q626.487,290.959,625.987,292.456Zm10.013-4q-0.5,4.994-1,9.988c-3.366-.891-4.347-3.578-5.007-6.991C632.744,289.875,631.791,288.99,636,288.461Zm-10.013,6.992h2c0.626,3.071,1.6,3.458,2,6.992-2.145.119-3.407,1.017-4,1v-1h-2C624.3,298.906,625.3,298.5,625.987,295.453ZM553.893,564.135q-1,3.5-2,6.992c-2.783-1.128-5.116-1.751-6.008-5l3-1v-1h5.007Zm2,1,5.007,1c1.207,2.014,5.83,6.335,4,7.991-1.141,1.137,0,.4-2,1v-1H557.9c-0.092-.029.186-0.623-2-1v-7.99Zm0,24.97-10.013-1-4-4.994c-1.224-1.141-3.268-7.647-2-10.987h1q0.5-1.5,1-3h1v1h1q0.5,2.5,1,4.994h1v2l2,1v2l2,1C552.072,584.426,554.95,586.654,555.9,590.1Zm-8.01-16.98,4,1q0.5,2.5,1,4.994h-1C550.449,576.655,548.748,576.333,547.885,573.124Zm9.012,4.994,8.01,1q-0.5,3-1,5.993a10.646,10.646,0,0,1-4,1l-1-2h-1Q557.4,581.116,556.9,578.118ZM348.625,621.067c6.335,0.026,10.967,1.935,16.021,3-0.846,1.133.127,0.145-1,1-1.837,2.141-4.614,2.336-7.009,4q-1,1.5-2,3h-2l-2,3-7.009,5.993v2l-3,2v2l-2,1v2l-2,1q-0.5,1.5-1,3h-1c-2,3.153-2.138,7.5-5.006,9.989v-1c-2.3-1.514-2.1-3.354-4-4.994-0.513-9.162-1.668-12.489,2-19.977v-2h1v-2l2-1v-2l2-2h2l2-3h2v-1l4-1v-1l6.008-1v-1Zm32.041,23.972a144.8,144.8,0,0,0-16.02,1c0.158-7.655,3.494-12.64,6.007-17.979h1v1C375.771,631.4,380.391,638.791,380.666,645.039ZM360.64,633.053h1l-1,4h-1v3h-1v3h-1q-0.5,2.5-1,4.994h-1v1h-3v1l-5.007,1v-1c2.567-2.147,3.02-5.18,5.007-7.99l3-2Q358.136,636.55,360.64,633.053Zm88.115,16.98-10.013,1c-0.845,1.133.127,0.145-1,1v3c4.624,0.7,9.909,2.59,11.014,6.992h1c0.847,1.825-2.381,6.576-3,6.992h-2v1h-4c-4.745,1.485-13.117-.559-19.025,1-1.412.373-6.084,1.955-9.012,1v-1l-5.006-1a21.91,21.91,0,0,0-4-4.994c-0.277-4.042-1.531-7.353,1-9.988,0.706-3.084,1.951-4.249,5.006-4.994,1.9-1.993.522-.024,3-1,4.94-1.94,7.492,0,12.016,1,1.723,3.187,3.529,5.216,4,9.988-2.44.917-6.2,1.036-10.013,1-1.6,1.483-5.9,1.09-9.012,1l1,4,4,1v1l6.008-1h17.022v-1h5.007v-1c1.14-1.138.4,0,1-2-1.111-.531-1.709-1.84-2-2h-3v-1h-2v-1h-2v-1c-2.711-1.67-1.909.91-3-3h-1q0.5-2.5,1-4.994l3-1v-1h2v-1l11.014-1c0.845,1.133-.127.145,1,1v3Zm-60.078,16.98a76.248,76.248,0,0,0,13.017,1v4c-7.448,1.457-9.647.328-16.021-1a21.91,21.91,0,0,0-4-4.994,53.345,53.345,0,0,1,1-10.987l4-3v-1l13.017-2a10.574,10.574,0,0,1,1,4h-1v1c-9.767-.413-12.424,1.082-12.015,10.987C388.816,666.153,388.074,665.019,388.677,667.013Zm-7.009-16.98c-0.244,11.169-7.955,22.826-17.022,24.971v-1c-2.7-2.974-.343-12.132-1-16.98h-1v-1h1v-3C369.513,651.928,373.914,650.11,381.668,650.033Zm28.036,7.991,12.016-1v-2c-3.321-1.754-4.373-2.056-10.013-2C410.883,654.9,410.224,655.642,409.7,658.024Zm-55.072,0v10.987h-1q0.5,4.494,1,8.989c-7.023-.019-10.6-2.746-16.02-4a18.284,18.284,0,0,1,2-7.991C345.411,663.442,348.477,659.388,354.632,658.024Z"/>
    </g>
  </g>
</svg>
