<svg xmlns="http://www.w3.org/2000/svg" width="800" height="800" viewBox="0 0 800 800">
  <defs>
    <style>
      .cls-1 {
        fill: #54917e;
        fill-rule: evenodd;
      }
    </style>
  </defs>
  <path id="形状_2" data-name="形状 2" class="cls-1" d="M294.762,250h-3.006v-2c-4.472-4.614-2.516-12.119-1-18,5.932-4.006,7.466-7.922,18.039-8v1C302.651,227.2,299.187,236.99,294.762,250Zm26.057-17-9.02,2a50,50,0,0,1,1-11h1C316.813,227.051,319.8,227.716,320.819,233Zm-14.031-4c1.241,1.838,1.091,5.7,1,9a9.27,9.27,0,0,0-4.008,3h-1v-2C304.655,236.626,305.98,232.2,306.788,229Zm16.035,7c0.722,6.839,1.387,10.87-5.832,14.864-0.515.469-.849,0.8-1.183,1.136v-2c-2.445-2.576-3-5.869-3.007-11a9.622,9.622,0,0,0,5.011-3h5.011ZM309.8,256h-9.02v-6l6.013-6h1v2C309.561,248.388,309.789,251.777,309.8,256Zm68.147,345c2.08,0.372,1.928.242,3.006,1,0.805,1.18.775,1.681,1,4-2.328,2.863-2.969,6.815-3.006,12l1,1c1.758-.631.974-0.193,2-1,7.945-2.919,6.76-9.9,19.041-10A24.977,24.977,0,0,0,405,613c4.168,8.589-13.081,46.1-18.039,51-7.374,7.282-23.119,3.806-26.056-5-2.355-2.953-2.15-8.487-2-14,4.257-7.675,7.936-17.217,24.051-11q0.5,1.5,1,3c-1.066,3.149-6.861,17.639-8.018,22,1.182,0.8,1.685.773,4.009,1,1.023-.8.275-0.355,2-1,3.456-7.274,14.971-28.92,16.035-42h-4.009c-3.835,5.314-8.8,9.912-18.039,10-1.023-.8-0.274-0.355-2-1-0.945-3.755-2.922-5.616-3-11C373.607,611.128,375.772,604.888,377.942,601Zm-8.018,39c-3.069,4.628-5.286,7.219-4.008,14,1.77,0.961,1.684,1.257,4.008,2,0.755-5.867,3.825-10.956,6.013-16h-6.013Zm11.024,34c1.627,1.35,1.124.64,2,3h-2v-3Z"/>
</svg>
