<svg id="JP11" xmlns="http://www.w3.org/2000/svg" width="800" height="800" viewBox="0 0 800 800">
  <defs>
    <style>
      .cls-1 {
        fill: lime;
        fill-rule: evenodd;
      }
    </style>
  </defs>
  <g id="_2" data-name="2">
    <path id="svg" class="cls-1" d="M295.466,250h-3c-0.621-2.777-2.3-4.786-3-7-1.6-5.1,1.306-9.574,2-13l5-4v-1c3.432-2.4,7.131-2.983,13-3v1C303.243,226.758,296.348,240.763,295.466,250Zm25.99-17-9,2a53.689,53.689,0,0,1,1-11h1C317.165,227.18,320.785,227.57,321.456,233Zm-13.994-4c1.484,1.593,1.091,5.892,1,9-1.88.833-2.919,1.323-4,3h-1v-2h1v-3C305.435,233.791,306.869,231.83,307.462,229Zm15.994,7q-0.5,5-1,10h-1v2h-1q-0.5,1.5-1,3l-3,1v-2c-2.569-2.2-3.037-6.152-3-11l3-1v-1h2v-1h5Zm-13,20h-9v-6a16.935,16.935,0,0,0,6-6h1v2C310.233,247.828,310.5,252.225,310.461,256ZM422.418,492c7.007-.249,14.88.329,18.993,3l2,3c2.493,1.883,1.881-1.092,3,3,1.134,0.844.145-.127,1,1-4.194.4-4.39,1.866-7,3l-12,2C425.908,502.5,420.735,497.65,422.418,492Zm-16.994,16v-3c2.442-1.561.611-1.137,2-3l8-7c2.009,0.574.864-.12,2,1h1q0.5,3.5,1,7h1v3h1q0.5,1.5,1,3h-13v-1h-4Zm46.982,2c0.443,6.773,1.509,9.395-1,15-1.488-.484-1.583-1.132-4-1v1h-1v-1c-4.714-1.959-9.582-5.759-12-10Zm-48.981,4,14,11,5,1v1l6,2v1l17.993,4v1h-1c-3.113,5.57-16.959,10.656-25.99,7v-1l-6-2-4-5-2-1q-0.5-2-1-4l-2-1v-3h-1V514Zm26.99,8c-5.022-.8-15.771-4.52-17.993-8h4c0.943,0.865,5.325,1.117,10,1C427.771,517.912,429.552,518.8,430.415,522ZM387.431,664a8.721,8.721,0,0,0-4,2v1l-12,1c-3.345-3.682-8.419-2.965-10-9-2.6-2.549-2.111-8.793-2-14h1l1-4,2-1v-2c1.859-2.612,9.667-8.075,15.994-6v1c1.768,0.65,2.59.412,4,1l1,3h-1v3h-1v2h-1q-0.5,2.5-1,5h-1l-1,4h-1q-0.5,3-1,6h-1c-0.276,2.034.443,1.194,1,2v1h4c1.139-1.139,0-.4,2-1l2-3h1v-2h1v-2h1v-3h1l1-4h1v-3h1v-2h1v-3h1v-2h1v-3h1v-2h1v-2h1v-3c1.821-4.6,1.821-2.605,1-8h-4c-1.973,3-2.825.941-4,5-2.678.721-3.113,1.621-5,3v1l-9,1c-1.138-1.139,0-.4-2-1l-1-4h-1c-0.787-2.333,1.347-12.515,2-14h1v-2h1v-3h1c1.466-1.742.869-1.649,4-2a12.694,12.694,0,0,1,1,5c-2.132,2.085-3.015,7.491-3,12h1v1c2.009-.574.865,0.12,2-1,5.248-1.437,6.427-7.264,11-9h8a21.92,21.92,0,0,0,4,5c0.126,5.61-.293,11.145-2,15h-1q-0.5,2-1,4h-1l-1,6h-1q-0.5,2-1,4h-1v3h-1v2h-1q-0.5,2.5-1,5h-1v3h-1q-0.5,2-1,4h-1A8.542,8.542,0,0,0,387.431,664Zm-16.993-8c0.316-3.832,1.914-4.579,3-7q1.5-4.5,3-9h-6c-2.385,4.15-4.671,5.213-5,12C367.732,653.916,366.714,655,370.438,656Zm13,21h-2v-3h1v1C383.571,676.139,382.831,675,383.433,677Z"/>
  </g>
</svg>
