<svg xmlns="http://www.w3.org/2000/svg" width="800" height="800" viewBox="0 0 800 800">
  <defs>
    <style>
      .cls-1 {
        fill: #54917e;
        fill-rule: evenodd;
      }
    </style>
  </defs>
  <path id="形状_2" data-name="形状 2" class="cls-1" d="M548.882,564h4.969v2c-0.773,1.065-1.48,3.692-1.988,5-2.969-1.309-4.707-1.747-5.962-5A10.865,10.865,0,0,0,548.882,564Zm6.946,0.914c1.484-1.109,3.291.48,4.979,1.086,2.861,2.561,6.99,6.059,3.976,8-1.868.936-5.867-.273-8.944-1C555.839,570.334,555.839,567.666,555.828,564.914ZM541.925,570c0.5,0.433,14.907,19.528,15.075,20h-8.118c-2.669-2.245-5.9-1.992-7.882-5C537.837,581.2,538.716,573.068,541.925,570Zm5.963,3c2.945,0.829,2.716.443,3.975,3,0.747,1.073.6,0.946,0.994,3h-0.994C550.317,576.611,548.959,576.076,547.888,573Zm8.944,5,7.951,1c1.474,2.177.2,4.085-.994,6a13.966,13.966,0,0,1-3.975,1q-0.5-1-.994-2C557.484,582.319,557.193,580.857,556.832,578Z"/>
</svg>
