<svg xmlns="http://www.w3.org/2000/svg" width="800" height="800" viewBox="0 0 800 800">
  <defs>
    <style>
      .cls-1 {
        fill: #54917e;
        fill-rule: evenodd;
      }
    </style>
  </defs>
  <path id="形状_1" data-name="形状 1" class="cls-1" d="M548.882,564h4.969v2c-0.773,1.065-1.344,4.692-1.851,6-2.97-1.309-4.844-2.747-6.1-6A10.865,10.865,0,0,0,548.882,564ZM556,564c1.656,0.333,4.344,1.667,6,2,1.617,2.415,5.2,5.845,4,8-1.974,1.159-7.661.933-10.175-.973C555.839,570.334,556,566.666,556,564Zm-14.075,5c0.5,0.433,14.746,20.528,14.914,21-2.319,0-5.638,1-7.957,1-2.669-2.245-5.977-2.992-7.957-6C537.763,581.2,539.2,572.835,541.925,569Zm5.963,4c2.945,0.829,3.716.443,4.975,3,0.747,1.073-.4.946-0.006,3h-0.994C550.317,576.611,548.959,576.076,547.888,573ZM556,577c2.65,0.333,7.35,1.667,10,2-0.331,2-1.669,4-2,6-1.506.536-1.708,1.675-4,2-0.331-.667-0.849-2.333-1.18-3A14.308,14.308,0,0,1,556,577Z"/>
</svg>
