<svg xmlns="http://www.w3.org/2000/svg" width="800" height="800" viewBox="0 0 800 800">
  <defs>
    <style>
      .cls-1 {
        fill: #54917e;
        fill-rule: evenodd;
      }
    </style>
  </defs>
  <path id="形状_1" data-name="形状 1" class="cls-1" d="M421.892,491.937c12.811-1.131,21.829,1.568,24.4,9.159l1.03,1c-7.235,1.023-10.861,4.527-19.564,5.018C424.88,502.562,420.234,497.786,421.892,491.937Zm-17.817,16.185v-3.011l10.3-10.037c1.806,0.633,1.569-.884,2.628-0.074,2.4,3.365,2.878,10.509,4.579,14.125H408.194C406.979,508.32,406.463,508.35,404.075,508.122Zm48.394,2.007c0.581,6.092,1.175,10.317-1.02,15.357-7.033-.326-12.94-4.066-17.514-11.342C440.112,512.806,447.742,509.593,452.469,510.129Zm-50.453,3.015c14.84,9.2,22.943,16.669,44.275,21.074v1h-1.03c-3.367,5.154-5.029,6.067-12.261,7.779C414.984,547.264,401.436,531.246,402.016,513.144Zm9.267,1,14.415,1a11.768,11.768,0,0,1,4.119,7.025h-2.06C422.779,518.609,415.088,518.838,411.283,514.144Z"/>
</svg>
