<?xml version="1.0" encoding="utf-8"?>
<!-- Generator: Adobe Illustrator 19.0.0, SVG Export Plug-In . SVG Version: 6.00 Build 0)  -->
<svg version="1.1" id="图层_1" xmlns="http://www.w3.org/2000/svg" xmlns:xlink="http://www.w3.org/1999/xlink" x="0px" y="0px"
	 viewBox="94 -4 800 800" style="enable-background:new 94 -4 800 800;" xml:space="preserve">
<style type="text/css">
	.st0{fill:#35D629;stroke:#FFFF00;stroke-dasharray:4,4;}
</style>
<path id="形状_1" class="st0" d="M346.1,487c-0.2-16-0.1-31.3,3-45.1v-19c1.5-10.2,0.9-24.6,3-34.1c6.3-28.4-4.1-47.2,22-58.1
	c13.1-5.4,42.8-4.9,53,2c10.7,7.3,11.8,26.2,16,40.1c2.9,9.5,6.4,21.2,9,31.1c2.3,8.7,1.2,15.7,4,24c4.6,13.7,12.8,32.8,13,49.1h-2
	c-6.7-4.3-19-0.1-28-2c-23.6-4.9-53.2,0.3-72,6C360.4,483,353.9,486.4,346.1,487z"/>
</svg>
