<svg xmlns="http://www.w3.org/2000/svg" width="800" height="800" viewBox="0 0 800 800">
  <defs>
    <style>
      .cls-1 {
        fill: #35d629;
        stroke: #ff0;
        stroke-width: 1px;
        stroke-dasharray: 4 4;
        fill-rule: evenodd;
      }
    </style>
  </defs>
  <path id="形状_1" data-name="形状 1" class="cls-1" d="M252.062,500c-0.173-15.963-.054-31.257,3-45.088V435.875c1.533-10.225.895-24.589,3-34.067,6.3-28.406-4.142-47.241,21.989-58.113,13.06-5.434,42.845-4.91,52.973,2,10.674,7.286,11.789,26.172,15.992,40.078,2.875,9.512,6.359,21.2,9,31.061,2.33,8.714,1.211,15.7,4,24.047,4.567,13.687,12.811,32.837,12.993,49.1h-2c-6.708-4.277-19.018-.146-27.986-2-23.648-4.9-53.242.3-71.963,6.011C266.423,496.01,259.885,499.4,252.062,500Z"/>
</svg>
