<svg xmlns="http://www.w3.org/2000/svg" width="800" height="800" viewBox="0 0 800 800">
  <defs>
    <style>
      .cls-1 {
        fill: #35d629;
        fill-rule: evenodd;
      }
    </style>
  </defs>
  <path id="形状_1" data-name="形状 1" class="cls-1" d="M291,316.094c4.973,0.221,7.516,3.5,11,3,2.067-.295,4.328-3.715,8-3,31.306,6.072,27.57,48.056,32,82.085,0.8,6.14-4.073,25.152-1,32.033l5,4q0.5,21.519,1,43.044,2,9.009,4,18.019c-1.5,6.481-7.941,15.233-12,20.02-18.269,21.548-61.782,14.223-70-11.011-2.657-8.158,3.737-15.3,3-22.023-1.619-14.765-6.773-26.384-7-40.041,5.055-2.338,7.152-4.208,7-12.012-3.024-4.789-2.374-25.465-4-33.034-4.842-22.536-3.177-55.926,7-70.073C278.9,321.68,285.742,320.234,291,316.094Z"/>
</svg>
