<svg xmlns="http://www.w3.org/2000/svg" width="800" height="800" viewBox="0 0 800 800">
  <defs>
    <style>
      .cls-1 {
        fill: #35d629;
        stroke: #ff0;
        stroke-width: 1px;
        stroke-dasharray: 4 4;
        fill-rule: evenodd;
      }
    </style>
  </defs>
  <path id="形状_1" data-name="形状 1" class="cls-1" d="M416.892,310c10.366,0.1,8.516,4.35,13.013,6.01l6.006-1a20.558,20.558,0,0,1,17.017,9.015c25.15,35.015-9.593,85.715-13.013,120.2,2.5,2.37,3.649,4.277,7.007,6.01-8.578,14.813-19.132,28.023-22.022,49.082l9.009,4.006c-6.613,30.864-58.147,42.985-82.083,19.032-4.621-4.625-17.185-20.333-13.013-29.048,2.87-11.59,12.581-19.45,16.016-30.051V435.209c1.509-4.5,7.351-5.069,9.01-10.017,2.739-8.173.864-14.971,3-24.04,4.677-19.838,7.5-48.682,17.017-64.107,4.675-7.574,12.316-17.475,20.02-22.037C408.031,312.55,413.482,312.989,416.892,310Z"/>
</svg>
