<svg xmlns="http://www.w3.org/2000/svg" width="800" height="800" viewBox="0 0 800 800">
  <defs>
    <style>
      .cls-1 {
        fill: lime;
        fill-rule: evenodd;
      }
    </style>
  </defs>
  <path id="svg_拷贝_4" data-name="svg 拷贝 4" class="cls-1" d="M260.692,665.59v2a28.694,28.694,0,0,0-9,4l-1,2h-2l-4,4.994h-2l-1,2-3,2v2l-5,4v2l-2,1v2l-2,1v2l-2,1q-0.5,2-1,4l-2,1v2l-1-1c-5.121-4.273-4.387-14.8-2-20.975v-3h1v-2q3-3.995,6-7.991h2q0.5-1,1-2l4-1v-1h2v-1h3c1.82-.68,5.667-2.928,9.005-2C253.091,663.544,256.647,665.107,260.692,665.59Zm-1,22.973c0.507-7.138,4.216-13,7-17.979h1v1c5.6,3.372,6.533,10.368,9,16.98h-3C271.157,686.171,262.513,687.978,259.692,688.563Zm-3-11.986-2,5.993h-1q-0.5,3-1,5.993l-2,1c-1.425,1.436-5.585,2.543-8,3v-2l3-2v-2l4-3v-2h1l4-4.994h2Zm1,40.951V695.555c5.82-1.037,10.907-2.852,18.009-3,0.845,1.133-.127.145,1,1C274.876,704.745,268.416,715.378,257.691,717.528Zm46.023-10.986q0.5,2,1,4l4,1v1h28.014q0.5-1.5,1-3c-1.139-1.138-.4,0-1-2-6.227-.953-11.043-3.507-11.006-10.987,5.187-2.8,8.535-4,17.009-4,0.844,1.133-.127.145,1,1v3l-12.006,2c0.574,2.007-.12.864,1,2,3.477,3.706,8.287,1.441,10,7.99h1v3c-1.3,1.046-1.49,2.041-3,3-4.261,4.282-31.1,1.721-38.019,1l-5-5.993a53.484,53.484,0,0,1,1-10.987l6-4.994,7-1v1h5c1.958,2.955,1.471.71,3,2,1.961,1.65,2.93,6.148,3,9.988C318.184,707.23,309.864,706.591,303.714,706.542Zm-8-12.985v4a60.758,60.758,0,0,0-12.006,1c-1.336,2.983-2.009,5.044-2,9.988a21.777,21.777,0,0,1,3,3H295.71v4.994H284.7v-1l-5-1a21.881,21.881,0,0,0-4-4.994c-0.121-5.39.574-8.575,2-11.986,1.827-1,4.149-3.327,6-4H295.71Zm9,8.989h12.006q-0.5-2-1-4a46.145,46.145,0,0,0-9-1C305.621,699.628,305.1,699.321,304.715,702.546Zm-57.029,16.98c-3.749,0-14-3.1-15.008-4.994v-4c1.362-1.164,1.529-1.823,2-4,5.825-1.425,8.08-6.158,15.008-6.992v1C247.971,702.461,247.629,715.385,247.686,719.526Z"/>
</svg>
