<svg xmlns="http://www.w3.org/2000/svg" width="800" height="800" viewBox="0 0 800 800">
  <defs>
    <style>
      .cls-1 {
        fill: #13d904;
        fill-rule: evenodd;
      }
    </style>
  </defs>
  <path id="形状_8" data-name="形状 8" class="cls-1" d="M153,339l-4-1v-1l-17-1v-1h1c2.254-2.782,5.881-4.017,9-6l1-2h4C149.2,331.039,152.36,333.265,153,339Zm-16,2h2v1h1v-1l3,1v1c-7.26.871-15.713,8.042-21,0h5v-1C130.041,340.321,134.693,343.018,137,341Zm1,11v-2c3.907-.862,13.1-6.007,16-4h1v4h-1v4a36.252,36.252,0,0,1-5,7v-1C144.921,357.616,143.251,353.354,138,352Zm-18-1v2l-3,1-2,3h-2l-2,3h-2v1c-2.471,2.045-3.765,3.57-8,4-1.212-2.128-2.252-2.177-3-5l9-5,1-2c2.235-1.887,4.083-2.724,8-3v1h4Zm-6,19v-2l5-4v-1h2l4-5h2l2-3h4c3.325,3.6,9.356,3.58,12,8h1v1h-1c-3.374,4.041-13.726,5.9-20,7a1.76,1.76,0,0,1-2-1,2.843,2.843,0,0,0-3,1Zm30-3c5.673,0.411,12.813,5.17,14,10h-1v1h-3c-1.95-3.624-4.214-5.97-10-6-3.567,4.155-5.03,1.484-5,10,2.586,1.414,5.179,3.768,6,7h-1c-1.127,1.719-.633,1.355-3,2v-1c-2.768-1.5-10.322-8.926-8-15,1.155-3.022,5.025-4.682,7-7h4v-1Zm9,24q-0.5,3-1,6h1v3h1l1,3,2,1,2,6,2,1v2h1v2h1v3a10.149,10.149,0,0,1,2,2c1.135-.844.145,0.127,1-1,3.006-2.035,2.157-9.02,2-14,1.139-1.139.4,0,1-2l3-1v-1l3,1,1,3h1c1.595,2.665,1.863,4.939,2,9h-2v-1h-1c-2.205-3.118,1.8-4.228-4-6,0.119,3.771.871,10.953-1,13-0.907,4.066-2.881,5.056-8,5l-5-7v-3h-1v-2h-1v-2l-2-1v-2l-2-1a28.77,28.77,0,0,1-5-16h1v-3h1l4-5h2v-1c3.93-2.282,11.162,2.783,12,4v2h1v2h1a53.612,53.612,0,0,1-1,11c-2.128,1.212-2.177,2.252-5,3v-1C159.057,399.427,159.008,392.579,153,391Zm5-4a10.83,10.83,0,0,0,2,5h1v2h1c1.353,1.477.489,1.371,3,2v-6C162.269,388.416,162.554,387.258,158,387Z"/>
</svg>
