<svg xmlns="http://www.w3.org/2000/svg" width="800" height="800" viewBox="0 0 800 800">
  <defs>
    <style>
      .cls-1 {
        fill: #35d629;
        stroke: #ff0;
        stroke-width: 1px;
        stroke-dasharray: 4 4;
        fill-rule: evenodd;
      }
    </style>
  </defs>
  <path id="形状_1" data-name="形状 1" class="cls-1" d="M288.113,315H298.1l2,3c1.555,0.559,3.317-2.763,3.993-3h8.984c2.751,3.384,7.483,4.346,10.981,7.008,4.247,3.232,8.8,11.97,10.98,17.02,6.115,14.182,8.667,39.292,7.986,59.069-0.193,5.616-3.628,25.853-1,32.037l3.993,3q1,23.526,2,47.055c0.835,3.707,6.131,12.9,3,19.022-3.755,7.33-10.436,17.311-16.97,22.026-21.117,15.237-48.156,9.522-60.892-9.011-1.5-2.189-5.312-5.225-5.989-8.009-1.993-8.193,5.149-17.158,2.994-27.031-2.523-11.562-6.056-22.257-5.989-36.042,4.174-1.2,6.243-3.279,6.988-8.01-2.976-4.724-.551-12.745-2-19.022-5.871-25.484-9.177-67.62,3.993-87.1C276.7,321.755,284.176,319.842,288.113,315Z"/>
</svg>
