<?xml version="1.0" encoding="utf-8"?>
<!-- Generator: Adobe Illustrator 19.0.0, SVG Export Plug-In . SVG Version: 6.00 Build 0)  -->
<svg version="1.1" id="图层_1" xmlns="http://www.w3.org/2000/svg" xmlns:xlink="http://www.w3.org/1999/xlink" x="0px" y="0px"
	 viewBox="94 -4 800 800" style="enable-background:new 94 -4 800 800;" xml:space="preserve">
<style type="text/css">
	.st0{fill:#35D629;stroke:#FFFF00;stroke-dasharray:4,4;}
</style>
<path id="形状_1" class="st0" d="M440,471.9h3v3c-20.2,0-41.1,0-56.1,4c-5.7,1.5-18.2,4.9-23,2h2c1.5-2.1,1.8-1.9,2-6
	c-6.3-9.5-2.2-23.7-5-37c-3-14.5-1.4-32-2-49c-0.8-24.6-4.6-45.1,13-56.9c5-3.4,11-4.9,19-5c13.2-0.1,25.2-0.3,33,5
	c18.2,12.2,15.3,48.5,15,74.9c-2.6,0.4-1.3-0.7-2,2c2.2,3.5,1,12.7,1,18L440,471.9L440,471.9z"/>
</svg>
