<?xml version="1.0" encoding="utf-8"?>
<!-- Generator: Adobe Illustrator 19.0.0, SVG Export Plug-In . SVG Version: 6.00 Build 0)  -->
<svg version="1.1" id="图层_1" xmlns="http://www.w3.org/2000/svg" xmlns:xlink="http://www.w3.org/1999/xlink" x="0px" y="0px"
	 viewBox="94 -4 800 800" style="enable-background:new 94 -4 800 800;" xml:space="preserve">
<style type="text/css">
	.st0{fill:#35D629;stroke:#FFFF00;stroke-dasharray:4,4;}
</style>
<path id="形状_1" class="st0" d="M439,477c-0.1-16.9,12.3-42.5,17-57.9c2.7-8.8,2.3-16.2,5-25c4.3-13.9,9-29.3,14-43
	c4.3-11.8,5.2-23,15-29c6.5-4,23.7-8.3,36-5c6.5,1.8,16.4,3.1,23,6c17.6,7.6,19,27.5,19,52.9v22c-4.1,12.5-14.6,24.8-22,35l-12,12
	c-7.5,12.4-12.3,27-16,43h-6c-4-4.3-11.2-3.3-18-5C477.6,478.9,459.4,477,439,477z"/>
</svg>
