<svg xmlns="http://www.w3.org/2000/svg" width="800" height="800" viewBox="0 0 800 800">
  <defs>
    <style>
      .cls-1 {
        fill: #35d629;
        stroke: #ff0;
        stroke-width: 1px;
        stroke-dasharray: 4 4;
        fill-rule: evenodd;
      }
    </style>
  </defs>
  <path id="形状_1" data-name="形状 1" class="cls-1" d="M410.475,310h13.972c1.179,0.636,3.522,4.466,4.99,5l1-1c50.252-2.439,23.307,83.711,13.971,108.894q-2.495,10.49-4.99,20.98c2.921,1.922,5.4,3.458,5.988,7.992-10.277,10.254-18.629,29.438-20.957,46.954,4.363,0.753,7.917,1.605,8.982,6-8.531,11.437-14.958,22.084-28.942,27.972-5.23,2.2-11.564,2-18.962,2-28.162.006-42.379-12.908-48.9-33.967-4.078-13.166,12.231-28.549,15.968-37.963V431.882l7.983-4c0.385-6.823,2.627-13.249,3.992-18.981q0.5-7.493,1-14.986c4.4-17.756,8.027-45.286,16.966-58.942,3.478-5.314,9.808-14.271,14.97-17.983C401.219,314.32,408.039,313.931,410.475,310Z"/>
</svg>
