<svg id="组_1" data-name="组 1" xmlns="http://www.w3.org/2000/svg" width="800" height="800" viewBox="0 0 800 800">
  <defs>
    <style>
      .cls-1 {
        fill: #fff100;
        fill-rule: evenodd;
      }
    </style>
  </defs>
  <path id="_1" data-name="1" class="cls-1" d="M460,101l6-1v2c-5.643,7.811-4.82,19.664-8,30-8.123,26.4-14.131,52.857-23,80-13.885,42.494-22.07,88.694-35,131-4.49,14.692-5.236,28.337-10,43-6.327,19.472-10.3,39.539-17,60-3.54,10.811-8.3,22.661-9,36-13.677-.049-21.58-1.8-32-1a158.993,158.993,0,0,0-4-34c-1.849-8.39-.392-17.57-2-25V398c-1.1-7.452-1.628-20.559,0-28V344c3.4-30.369,3.807-61.785,12-89,12.068-40.086,24.6-76.588,40-113,4.255-10.064,8.359-20.416,13-31,2.731-6.228,7.665-11.212,9-19,6.638,0.989,9.84,2.412,17,2q-0.5-4.5-1-9a50.65,50.65,0,0,1-8-6h2a9.974,9.974,0,0,1,5-3c6.074,4.481,14.378,6.194,18,13,4.693,8.817-2.177,39.754-8,43-4.966-3.436-15.279.378-19,2a21.509,21.509,0,0,0-1,7,11.725,11.725,0,0,1,2,5c4.814,2.088,7.766,1.92,13,4-2.74,13.489-12.212,24.516-16,37-8.987,29.618-25.939,78.521-28,119h1v-2c5.651-13.231,10.5-38.448,16-55,8.036-24.206,15.946-49.716,25-73,1.615-4.153,7.639-21.234,7-22a60.407,60.407,0,0,0,8-13c1.624-3.959-1.133-6.571,0-10,5.278-15.979,17.286-33.928,32-41v2C461.994,94.124,460.585,96.325,460,101Zm51-13c4.4,2.019,11.94,5.586,14,10a17.172,17.172,0,0,0-9,2C514.563,93.795,510.95,93.048,511,88ZM311,91c4.569-.119,10.239.06,13,2,11.649,2.93,16.487,11.332,13,28h1v-2c3.071-3.326,3.492-7.95,6-12l12-15,1,1c1.834,1.285,1.712,1.968,4,3l2-2v2c-4.1,5.371-5.1,12.349-8,19-6.793,15.592-12.914,31.726-20,48-12.134,27.868-21.528,59.357-31,91-5.447,18.195-4.581,35.019-9,55-2.305,10.42-1.686,25.337-4,36v19c-1.864,8.657-1,21.674-1,32,0,32.6,1.742,60.462,7,88-11.1.329-18.086,6.4-29,8-3.8-17.568-10.133-34.079-15-50-4.023-13.16-4.9-27.681-8-41-3.218-13.813-2.6-23.444-4-41-1.28-16.053-2.348-42.107,1-57,2.812-12.508,1.855-23.33,5-35,8.008-29.721,15.859-62.588,27-89,7.739-18.346,13.363-34.322,22-51,1.174-2.266,5.926-16.217,7-17h13c1.359-1.262,1.768-1.365,4-2v-6c-3.064-1.849-9.3-4.109-12-6C309.619,95.327,310.3,93.7,311,91ZM510,267h-4a21.509,21.509,0,0,0-1,7c-0.8,1.18-.773,1.681-1,4l4,4c-0.86,3.453-1.758,4.384-2,9-5.9-.964-12.133-7.473-16-6-2.058,2.4-4.155,9.712-3,12,4.358,3.174,9.218,1.86,10,9-6.567,6.806-11.254,12.717-11,26a18.262,18.262,0,0,1,8,5c-1.606,4.939-3.958,19.083-8,24l1,3c-5.233,7.974-11.042,17.949-14,28-1.494,5.078-.653,7.748-2,12-6.825,21.548-23.49,36.079-38,56-5.19,7.126-7.339,27.662-11,32v1c-6.272-1.332-12.077-3.53-19-5v-7c2.73-9.625,4.86-21.763,8-32,6.6-21.5,10.737-43.007,18-65,21.941-66.44,34.37-140.1,56-206,5.187-15.8,8.431-32.027,13-47,2.65-8.685,3.2-18.421,8-25,8.617,4,20.532,6.577,29,10,3.783,8.147,2.354,25.051-1,32-2.493-.684-1.856-2.358-3-1-1.541,2.312-1.119,8.1-1,12,5.513,5.455,1.188,18.408-2,27C520.236,206.923,515.39,244.418,510,267ZM276,121c1.621,3.916-10.51,28.289-13,34-13.432,30.8-22.8,64.266-33,98-12.356,40.859-17.874,108.448-7,155q2,15,4,30,9,32.5,18,65c-5,1.594-6.31,5.276-11,7v-2c-4.986-6.717-5.136-17.263-8-26-7.145-21.8-11.8-45.13-17-70h-1v7c1.683,2.866.066,7.854,1,12,2.16,9.584,3.214,19.82,6,29,3.979,13.111,6.575,26.494,11,40,1.195,3.648,3.675,10.077,4,14,0.364,4.4-6.735,11.387-8,16-2.186,7.972.449,20.735,2,26,5.9,20.027,11.725,37.7,20,55h-2c-1.5-3.161-2.431-4.787-6-6v1c1.889,1.816,2.424,2.642,3,6h-1c-1.021-.8-0.274-0.355-2-1-0.041-.9-6.651-30-10-34v3c1.051,1.521,1.586,4.915,2,7-3.2.257-3.191,0.994-5,0-7.027-2.662-9.968-12.212-14-18-12.67-18.191-21.043-35.589-44-44-2.3-5.661-5.41-17.158-4-26,0.29-1.822,3.754-3.943,2-7-2.913-5.076-6.5-16.339-9-24-3.251-9.954-3.856-18.783-7-29-1.987-6.456-5.222-11.413-6-19,1.766-.961,1.68-1.257,4-2v1c8.47,6.15,18.145,30.913,21,43,0.8-1.021.355-.274,1-2,2.741-2.033,3.422-5.962,6-8,1.458-1.152,5.169-1.419,6-3v-4c-3.853-5.9-1.32-16.008-3-24-2.908-13.837-5.38-40.871-2-56,3.862-17.286,2.615-35.922,7-54,5.323-21.946,5.627-46.738,12-69,6.808-23.782,13.634-49.163,23-72a29.369,29.369,0,0,0,6-4c5.746,1.759,9.319,2.1,15,1,3.052-9.918,10.278-18.7,9-22-0.931-3.069-2.077-3.749-3-7h11c1.829,2.029,4.412,4.806,7,6C262.666,134.014,271.191,128.047,276,121Zm50,17c-10.3,7.568-23.21,6.592-23,25,4.36,2.914,6.331,4.388,13,3,3.841-9.774,10.161-17.878,13-28h-3Zm-81,39c-5.777,6.946-15.427,7.462-17,19,2.256,3.731,2.215,11.789,7,10,4.269-2.254,10.625-22.978,12-29h-2ZM658,297c3.721,1.935,8.262,7.991,9,13-3.46,5.056-3.686,11.757-6,18-4.342,11.714-8.657,24.933-14,36-0.8-1.021-.355-0.274-1-2-2.546-2.664-4.6-6.276-7-9,3.718-2.454,2.3-6.381,4-11C648.176,327.924,652.168,311.359,658,297ZM199,440c0.473-4.357,3.372-6.618,3-10-0.232-2.107-3.235-5.963-4-8a180.21,180.21,0,0,1-9-31c3.227-1.346,8.406-2.823,10-6,2.828-3.55,3.1-9.541,3-16l-3-1c-1.964-1.562-5.154-2.367-8-3-2.242,3.153-6.215,3.6-8,7-7.508,8.018.122,13.17-1,21-1.348,9.406,9.543,35.333,13,46C196.18,439.8,196.681,439.773,199,440Zm439-66h2c0.476,4.066.7,5.243,0,9h-2l-1-1C637.716,379.674,637.916,378.7,638,374ZM295,399c0.752,1.073.6,0.946,1,3h-1v-3Zm-68,19a19.54,19.54,0,0,1,2,4h-2v-4Zm2,11c0.752,1.073.6,0.946,1,3h-1v-3Zm68,6c0.752,1.073.6,0.946,1,3h-1v-3Zm-67,3c2.467,1.3.681-.429,2,2l1,1h-2Zm4,14c2.542,1.455,1.128-.217,2,3h-1Zm360,15h2c-13.58,28.61-37.063,52.2-58,74-5.163,5.376-11.073,12.531-17,17-9.449,7.124-19.577,16.013-30,24l-1-1c-3.249-2.1-16.779-15.6-18-19h1l1-3c33.725,0.455,55.941-23.249,73-42a116.685,116.685,0,0,0,11-15,9.847,9.847,0,0,0,1-4c5.421-5.049,9.382-7.436,14-14,1.916-2.724,4.132-8.455,7-10C586.422,470.541,591.2,473.975,594,467Zm-352,8a11.568,11.568,0,0,1,2,3h-2v-3Zm-56,3v4h2l1,1v-3c-0.8-1.021-.355-0.274-1-2h-2Zm58,4a11.568,11.568,0,0,1,2,3h-2v-3Zm1,138a10.087,10.087,0,0,1,7,7c0.752,1.073.6,0.946,1,3l-1,1h-2C248.975,626.741,246.78,623.622,245,620Zm260,30h2c-1,2.273-.745,2.774-3,4v-1C504.752,651.927,504.6,652.054,505,650Zm-2,8h2l-6,13h-2v-1C499.969,667.023,501.281,662.208,503,658Z"/>
</svg>
