<svg id="组_1" data-name="组 1" xmlns="http://www.w3.org/2000/svg" width="800" height="800" viewBox="0 0 800 800">
  <defs>
    <style>
      .cls-1 {
        fill: #fff100;
        fill-rule: evenodd;
      }
    </style>
  </defs>
  <path id="_2" data-name="2" class="cls-1" d="M265,117.219c2.542,1.454,1.128-.217,2,3a24.223,24.223,0,0,0-4,11.994l1,1c-1.666,1-2.333,2-4,3-2.1,3.572-4.292,9.5-6,12.993-3.912-.684-8.409-1.766-10-5,5.5-9.777,10.195-18.688,14-24.987C261.382,119.081,263.156,118.724,265,117.219Zm256,0h2C521.812,118.826,522.582,118.442,521,117.219ZM382,386.082h7l3-3v-4h5c2.069-3.318,3.769-6.608,2-9-1.3-2.466.429-.68-2-2-1.18-.8-1.681-0.772-4-1,0.374-12.614,6.267-21.714,8-31.984l6-1q0.5-1.5,1-3c2.953-4.943-2-7.074-1-11.994,0.865-4.259,4.212-7.733,5-12.993h-2c-2.089-1.742-5.469-1.534-7-4,5.9-2,16.417-1.079,24-1,3.322-2.172,12.859-1.13,18-1,0.316-5.2,1.53-9.5,0-13.993-9.643,3.249-24.535,2.055-37,2,0.507-9.082,4.117-17,7-23.988,7.921-19.192,16.165-37.073,25-54.972,4.244,0.96,7.091,1.951,13,2,5.555-11.688,5.882-5.912,13-10.994,3.243-3.382,4.174-8.088,6-12.994-4.022-2.1-5.946-2.51-6-9,4.08-3.7,3.751-8.112,6-13.993,1.22-3.192,16.681-27.672,19-28.985v1c5.118,5.888,12.1,14.3,14,22.988,1.231,5.639-3.375,12.224-5,15.992-6.285,14.573-11.749,28.307-18,42.978-28.32,66.471-53.888,136.233-82,202.9h-2c-0.842-2.387-.4-1.644-2-3,2.26-5.633.613-8.117-1-13.993a21.513,21.513,0,0,0-7-1l-5,5v-5C380.934,399.924,381.87,391.01,382,386.082ZM236,161.2c4.121,0.123,8.432,1.223,10,4-2.317,3.192-.886,10.755,1,12.994,5.929,5.431,21.939,5.207,31,7v2c-4.556,6.284-4.827,15.3-8,22.988-5.887,14.272-11.575,30.649-17,44.978-2.663,7.034-3.831,21.7-12,22.988-4.247-3.126-14.764-3.083-20-2-1.864,2.881-4.969,5.31-6,9-1.038,3.712.539,9.821,1,11.994,1.294,6.1-1.057,11.147-2,14.993-7.467.345-14.651,2.613-21,5V295.128c2.525-4.317.679-11.46,2-16.991l7-32.983A546.725,546.725,0,0,1,236,161.2ZM193,330.111l19-4v3c-5.977,5.356-12.127,9.315-12,20.989,6.1,4.958-.894,11.544,2,22.989,3.331,13.173,12.733,20.172,16,32.983-4.735,2.517-6.81,28.28-4,36.981,3.9,12.068,13.428,18.865,20,27.986,4.42,6.134,7.909,12.507,12,18.99,3.015,4.779,6.658,8.422,8,14.993h-1c-2.069-1.664-4.155-1.909-8-2C210.747,450.925,193.611,410.911,193,330.111Zm191,94.951h5c2.575,3.752,5.338,4.008,6.244,9.941-4.354,7.935-9.019,23.937-14.244,35.037-11.45,24.325-20.283,50.892-31,75.961,2.389,0.841,1.645.4,3,2h-4c-5.782-4.179-21.651-3.63-25-10,13.018-11.287,25.128-23.335,34-35.982,3.228-4.6,8.608-13.436,8-15.992-0.764-3.207,5.065-6.667,4-9.994C378.844,459.091,384.181,449.694,384,425.062Z"/>
</svg>
