<svg id="组_1" data-name="组 1" xmlns="http://www.w3.org/2000/svg" width="800" height="800" viewBox="0 0 800 800">
  <defs>
    <style>
      .cls-1 {
        fill: #fff100;
        fill-rule: evenodd;
      }
    </style>
  </defs>
  <path id="_3" data-name="3" class="cls-1" d="M455.019,77c17.411,0.787,36.053,27.906,44,40,2.635,4.011,8.691,11.02,9,14-3.07,2.542-17.241,8.537-20,7-1.631-2.476-.678-5.778-2-9-3.885-9.472-8.241-20.236-14-28-5.24-7.066-21.5-11.907-24-16A91.65,91.65,0,0,0,455.019,77Zm-29,1h2l-1,3-8,3V83h1C421.72,80.6,424,79.968,426.022,78ZM357.028,95q0.5-3.5,1-7c2.09-1.121,1.831-1.434,5-2,5.385,4.635,13.044,3.535,20,7,8.155,4.063,25.475,17.608,27,28-3.735,2.51-5.394,6.355-10,8C396.243,110.483,379.226,96.013,357.028,95Zm-28-1h2v4c-14.186,5.454-11.126,11.124-14,24l-1-1c-1.142-1.69-1.066-4.9-1-8,1.979-2.824,2.016-7.2,4-10C321.525,99.478,326.35,97.442,329.03,94Zm194.983,6c3.245,0.828,1.528-.49,3,2h-1c-1.179.8-1.681,0.773-4,1v-2C523.767,100.369,522.985,100.807,524.013,100Zm45,77c-0.782-15.685-3.384-37.766-11-50-3.92-6.3-13.13-10.535-15-18l6-5h10l15,19c2.266,3.77,3.878,12.372,5,14,1.141,1.657,3.284-.164,5,1,3.4,2.31,7.3,12.191,8,17-3.212-.944-4.831-0.32-8,1-2.007,5.046-6.151,7.413-8,12-0.658,1.633,0,9,0,9h-2C572.212,176.112,572.2,176.7,569.009,177ZM417.022,134c2.156,2.679,3.1,4.149-1,5C414.671,135.677,414.692,137.831,417.022,134Zm-99.991,3h4c1.148,16.6,7.886,36.782,15,45,0.4,4.589,4.453,18.7,9,25-0.1,5.924,2.272,8.563,4,14,1.624,5.113,1.252,14.873,4,22,6.446,16.717,13.387,31.677,15,54-0.667,0-1.334,0-2.193-.054-4.689-22.594-16.38-46.056-23.805-63.946-5.538-13.343-8.142-26.047-13-41C323.567,175.181,317.834,158.319,317.031,137Zm175.985,15c6.833-.421,13.362-3.6,19-6l3,20h-2C507.757,161.147,494.118,157.578,493.016,152Zm-81.993,0c5.795,0.608,9.851,2.725,15,4,19.271,41.258,43.167,81.113,34,149-1.754.631-.972,0.193-2,1h-2c-1.294-2.467.429-.681-2-2-2.364-9.254-7.5-29.76-10-38-6.9-22.719-11.894-43.487-20-65C418.555,186.489,411.922,170.059,411.023,152Zm87.992,22c4.633,1.277,17.2,6.678,19,11,3.882,5.091,2.974,14.079,5,21,5.761,19.685,7.675,44.421,9,68,0.463,8.235.163,32.321-4,35-2.349-24.956-5.411-47.05-12-68q-1-8-2-16C508.77,210.06,501.813,190.675,499.015,174Zm71.994,17h7l1,1c0.063,7.129,2.112,10.8,3,17h-2c-0.968-.251-0.379-0.784-1,0C573.119,204.508,570.707,202.154,571.009,191Zm4,31,8,3q3,17,6,34c3.374,15.431-1.706,32.706-2,46h-2v-2c-3.89-6.457-.219-18.895-2-27C579.192,258.636,577.145,238.8,575.009,222ZM671,426c2.873,1.12,1.842.174,3,3,0.752,1.073.6,0.946,1,3-6.578,5.775-13.628,25.443-16,41-0.8,5.282-.666,10.667-1,16l3,1c5.162,8.481,3.947,24.263-1,30-9.863.3-18.212,4.668-24,0-1.52,1.954-2.171,2.221-5,3v-2c15.31-40.851,9.147-46.2,16-66C651,443.45,663.122,434.2,671,426Z"/>
</svg>
