<svg id="组_1" data-name="组 1" xmlns="http://www.w3.org/2000/svg" width="800" height="800" viewBox="0 0 800 800">
  <defs>
    <style>
      .cls-1 {
        fill: #fff100;
        fill-rule: evenodd;
      }
    </style>
  </defs>
  <path id="_4" data-name="4" class="cls-1" d="M490.878,510h-3c-0.372-2.076-.242-1.924-1-3-1.021.8-.274,0.355-2,1V483c-3.274-5.553-1-31.265-1-40,0-20.565.925-43.171-3-61q-1-13-2-26c-11.986-48.319-20.991-96.824-35.98-142-6.177-18.619-11.9-38.168-18.989-57-4.182-11.113-9.88-23.376-11.993-36,3.152,0.088,5.211.475,6,0,0.8-1.021.354-.274,1-2-2.713-3.215-2.5-7.2-5-11-4.364-6.647-10.46-1.964-12.993-11h3c5.408,4.269,12.846,5.62,17.989,10,3.435,2.925,4.206,8.25,8,11v-1c-1.26-1.879-1.018-5.673-1-9C429,92.355,442.208,90.086,456.9,90v1c-4.381,2.222-6.782,5.6-8,11l2,1c2.2,1.628,5.175,1.917,9,2,1.689,6.9,6.39,13.017,9,19,9.195,21.118,17.463,42.273,25.985,63,10.067,24.482,16.8,51.187,23.987,77,3.8,13.646,4.515,26.686,8,41,4.646,19.1,6.992,37.045,7,62,0,5.666-1,11.334-1,17q-5,29.5-10,59c-5.835,21.09-10.686,42.957-18.449,63.963-3.818-.08-7.72-0.2-9.535,1.037,4.146-.195,6.423-0.6,8,2h-4c-2.676,1.816-5.63.634-7-2l1-1h-2v3ZM350.957,123c6.979-.2,10.565-2.385,17.136-2.987,4.783,13.843,10.191,27.584,14.845,38.987,12.687,31.083,23.883,62.2,32.982,93,11.716,39.663,20.156,80.1,29.983,121q1,13.5,2,27c7.285,32.926,6.374,118.2,4,121-3.785,1.576-7.083,2.251-9,4a19.487,19.487,0,0,0-2,4h-2c0.1-10.18-2.132-32.091-4-45-3.211-22.214-4.8-43.418-9.994-64q-1-8.5-2-17c-2.363-7.723-7.52-15.008-9.994-22h-2v1c2.41,3.423,3.084,10.435,4,15h-2c-2.425-3.043-6.583-3.979-9-7q-1.5-5.5-3-11c-1.309-2-5.831-2.277-7-4v-8c1.789-2.823.771-7.767,1-12,0.866-16.049,2.826-49.41,1-63l-1-24c-5.816-25.4-6-50.308-14.992-71-7.375-16.972-19.483-30.1-29.983-44l-11.993-11c-8.409-15.406,8.573-41.284,19.989-39,0.63,1.754.192,0.971,1,2C355.714,111.358,351.447,112.074,350.957,123Zm177.9,385h3c0.929-13.98,9.67-35.762,13.992-49,6.988-21.406,8.622-42.767,13.993-66,2.195-9.5,3.832-38.783,1-51-10.7-46.135-16.7-92.539-31.981-133-4.721-12.5-8.822-27.71-14.992-40-7.652-15.243-16.649-34.261-20.988-52h1c2.752,4.338,7.113,7.913,9.994,12,1.255,1.78,1.41,5.6,3,7,1.653,1.452,4.629.294,6,2l11.993,26c-4.319.034-2.877-2.189-4,2,3.3,4.459,3.279,11.988,7,16a19.07,19.07,0,0,1,4-3c2.068,8.943,7.641,17.139,10.994,25,9.582,22.467,16.14,46.247,22.987,70,3.291,11.415,4.071,21.79,7,34a377.245,377.245,0,0,1,8,50c0.867,8.769-2.343,36.2-3,43-1.473,15.282-3.684,22.286-7,34-5.2,18.382-10.153,37.489-16.989,54-3.176,7.668-6.45,20.716-8,24-1.807,2.105-2.917,2-7,2-1.627-1.088-5.856-1.593-8-2C529.877,510.33,529.574,511.282,528.856,508ZM397.93,621c-3.243.828-1.527-.49-3,2,1.9,1.179,1.208-.063,1,2-1.2,2.385-2.609,2.664-4,5,2.265-.4,1.084-0.918,3,0-0.682.771-1.311,2.232-2,3-1.152,1.568-1.922.352-2,6-3.032,1.543-4.566,6-6,9h-2c0.4-8.5.63-17.363-5-20-1.294-.877-2.465-0.894-5-1-3.9,8.187-2.118,15.238-2,28-8.111-.081-12.048-0.228-17.991,1a25.118,25.118,0,0,0-1,8c0.8,1.021.355,0.274,1,2l12.993,2c-1.02.8-.274,0.355-2,1-1.382,1.983-10.343,8.327-13.992,9,0.058-2.906.964-1.389,0-3-1.02.8-.274,0.355-2,1v3h-5l1-1c1.923-.775-2-1-2-1v1l-1-1c-0.751,1.073-.6.946-1,3-7.107-1.043-9.4.395-15.963-1-1.455,2.542,2.188-.872-1.028,0v-2c4.058-3.833,6.143-13.372,10.994-16,0.438-.237,3.067.693,5,0,7.545-2.709,9.106-6.039,9-17-5.593-8.385,1.416-15.727,4-21q1-4.5,2-9c3.954-9.409,10.976-18.81,12.993-30-4.7.99-7.5-2.011-12.993-3-4.894,11.088-8.608,23.133-14.992,33-4.976,7.691-11.939,3.461-13.992,17,2.089,2.826,2.889,6.293,3,11-3.913,1.071-3.836,1.141-4,6-1.8,1.665,3.088,4.837,5,6v1c-9.079,3.194-10.067,16.834-18.989,19-6.874-5.61-23.978-5.335-25.986-14,6.665-4.9,10.189-14.159,14.992-21,18.3-26.071,26.4-48.008,34.98-85,1.056-4.552,4.637-40.9,3-45-2.6-6.509-3.586-.774-1-10-7.175-5.954-10.72-16.068-15.991-24-16.16-24.318-36.868-57-26.985-81h5c0.88,2.4.761,3.707,3,5v-1l1,1c8.04,8.107,10.583,19.215,16.991,29,4.767,7.28,12.192,13.281,14.991,23h2v-4c-3.825-6.553-.994-23.333-3-32l-9-63c-7.77-30.105-13.595-62.3-21.988-92-3.447-12.2-4.356-22.907-8-35-4.709-15.644-7.833-33.782-11.993-50q-1.5-12-3-24c-2.256-9.073-4.776-17.876-5-29h2c5.62-3.69,19.258.538,25.985,1v1c-3.92,2.509-8.023,7.681-9,13-0.652,1.418.528,5.719,1,9a68.334,68.334,0,0,1,9.994,8c9.218,0.024,14.947-2.849,22.987-4,9.538,5.84,17.977,10.577,19.989,29-4.747,4.022-13.687,8.535-13.992,16,4.023,2.732,4.934,6.016,10.993,7,2.734-2.861,6.584-4.844,9-8h1c5.039,14.255,10.843,29.265,14.991,43,5.375,17.8,8.659,36.657,13.992,54,2.777,9.029.914,38.637-1,47q-1,20-2,40-3.5,24-7,48l1,1c4.63,0.6,6.428,1.81,11.993,2,1.224-2.281,1.637-2.251,2-6,3.246-5.441.306-16.185,4-21,1.878,0.889,3.6-1.328,7,0,5.763,2.251,16.884,8.8,18.99,15,4.9,7.223,2.664,20.48,5,30,6.429,26.238,8.454,56.994,9.994,88-2.614-.007-0.882-1.3-3,1-0.642.9-.3,1.976-1,4l-3-1c0.374,2.4.63,1.538,0,4-2.456-.287-0.481-0.659-3,0-2.5,8.087-8.252,19.169-11.993,29-4.157,10.924-3.735,25.165-7,34C402.3,610.415,398.721,614.6,397.93,621ZM456.9,148c-0.547,6-6.109,14.163-8,16l6,14,1-1c6.02-2.965,12.6-10.547,12.993-19a71.333,71.333,0,0,1-8-10h-4ZM344.96,166c3.766,1.484,4.823,4.839,8,7v1c-2.629.759-2.384,1.2-5,2v-2C346.4,172.036,345.593,168.846,344.96,166Zm13.992,25v-3c2.63-.759,2.384-1.2,5-2v1c19.1,13.088,17.79,58.7,17.99,90h-1v-1c-3.9-6.156-2.845-15.287-5-23C371.981,238.808,359.8,203.4,355,193,354,193,359.951,191,358.952,191ZM600.815,358h2c0.429,12.91,5.407,29.217,2,44-4.163,18.062-7.2,36.509-12.992,52-1.665,6.333-4.332,12.667-6,19-8.081,15.955-21.339,30.1-30.983,45h-2v-2c-0.752-1.073-.6-0.946-1.227-3.122,8.272-8.276,14.876-24.568,21.215-35.878,13-23.2,19.979-46.02,26.984-76C602.926,387.687,600.977,371.089,600.815,358Zm-181.9,189q-1,2-2,4h1c0.961-1.766,1.256-1.68,2-4h-1Zm-4,5-1,3h1v-1c0.566-.713,1.442-0.042,1-2h-1Zm-3,4v2h1v-2h-1Zm-2,5v2h1v-2h-1Zm-2,4c0.372,2.076.242,1.924,1,3v-3h-1Zm-1,6q-0.5,1.5-1,3h1v-1c0.565-.713,1.441-0.042,1-2h-1Zm-2,6v2h1v-2h-1Zm-2,6c0.372,2.076.242,1.924,1,3v-2l1-1h-2Zm-1,6c0.372,2.076.242,1.924,1,3v-2l1-1h-2Zm-5,25q-0.5,1.5-1,3h1v-2C397.182,614.032,397.714,614.621,396.931,614Z"/>
</svg>
