<svg xmlns="http://www.w3.org/2000/svg" width="800" height="800" viewBox="0 0 800 800">
  <defs>
    <style>
      .cls-1 {
        fill: #13d904;
        fill-rule: evenodd;
      }
    </style>
  </defs>
  <path id="形状_10" data-name="形状 10" class="cls-1" d="M370.326,681c7.143-1.294,10.594.815,12.946,2v2c-12.759,3.448-22.664,17.713-27.884,29-0.8-1.021-1.353-.274-2-2-6.927-10.886,2.35-29.9,13.951-30C368.2,681.351,369.474,681.662,370.326,681Zm12.946,20c0.323-6.292,2.8-9.6,4.98-14l1.992,1c2.361,3.157,4.117,4.157,5.975,13H383.272Zm-3.983-9c0.979,2.282-1.569,7.778-2.988,11l-6.971,1v-1h1C372.873,696.831,376.2,695.267,379.289,692Zm6.971,13h9.959a11.547,11.547,0,0,0,.107,1.946c-2.928,6.527-4.34,14.195-15.045,17.054V707C382.574,706.526,385.224,705.786,386.26,705Zm24.9,0v3a38.47,38.47,0,0,0-8.963,1,16.593,16.593,0,0,0-1.992,8c3.862,2.349,5.571,3.1,10.955,2v4c-3.46.131-8.2,0.334-10.157-1-3.247-1.037-3.7-1.784-4.781-5-1.917-2.887-.165-6.333,1-9C401.535,704.143,404.2,704.962,411.157,705Zm20.913,10c-5.073-.118-11.372-0.245-14.938,1l1,2c5.8,2.589,16.2,2.1,24.9,2l1-3c-5.162-2.075-10.935-2.426-8.963-11l2.987-1c2.142-1.438,7.278-.113,10.955,0v2h-1c-1.7,1.082-7.044,1.361-8.963,2l1,2A27.775,27.775,0,0,1,450,717c-0.628,1.754-.192.971-1,2-1.115,2.873-.173,1.842-2.987,3-6.447,4.512-32.679,2.753-33.059-2.861A53,53,0,0,1,413.149,709c3.388-2.923,4.149-4.632,13.942-4,1.017,0.8.273,0.355,1.992,1,0.957,1.766,1.252,1.68,1.991,4C431.948,711.3,431.965,712.467,432.07,715Zm-11.95-7c-0.958,1.766-1.252,1.68-1.992,4h8.963v-2l-1.992-2H420.12Zm-45.806,18c-4.869-.414-12.208-1.321-13.951-5a43.985,43.985,0,0,0,2.992-6c3.984-2.387,6.294-4.11,11.95-5v1C373.355,714,374.332,721.638,374.314,726Z"/>
</svg>
