<svg id="CF" xmlns="http://www.w3.org/2000/svg" width="800" height="800" viewBox="0 0 800 800">
  <defs>
    <style>
      .cls-1 {
        fill: #13d904;
        fill-rule: evenodd;
      }
    </style>
  </defs>
  <path id="形状_17" data-name="形状 17" class="cls-1" d="M331,680c6.279-.169,13.187.285,14.937,3.03-5.05,4.921-11.663,7.3-15.937,12.97-3.609,4.791-7.7,14.225-13.091,17.009v-1c-6.263-6.71-1.247-21.745,4-25.981C323.771,683.722,328.1,682.187,331,680Zm26.948,19.018-12.011,1c0.3-6.09,2.666-9.945,5-13.99l1,1C355.5,689.628,359.722,694.277,357.948,699.018Zm-16.015-7.994c2.32,5.382-2.139,12.143-9.009,12.991v-3C336.136,698.8,339.8,694.286,341.933,691.024Zm61.058,10.992v3c5.681,1,10.7,2.309,9.167,8.026-1.958,1.533-1.441,1.933-4.162,2.966-6.127,4.351-24.037,5.48-30.292,2.291a11.817,11.817,0,0,0-.738-3.29c-1.845-2.67-.664-7.108,0-9.993a29.371,29.371,0,0,0,6.006-4c3.585-1.7,6.845-.741,10.01,1,1.757,2.689,4.873,3.9,2.135,8a8.16,8.16,0,0,0-1.134.993c-4.445,1.334-10.666.178-13.013,3,2.673,1.44,4.225,1.992,9.009,2,4.041-2.418,12.216-.5,16.015-3,0.8-1.021.356-.274,1-2-5.111-1.871-9.875-1.637-9.109-8.972,1.648-1.154.944-1.106,3.1-2.02,2.151-1.833,8.118-3.007,10.01-2h1c-0.631,1.753-.193.971-1,2C409.17,701.291,405.737,701.723,402.991,702.016Zm-32.03,0,3,1c-0.632,1.752-.193.97-1,2-3.961,2.374-7.075.272-9.009,5-0.878,1.294-.895,2.465-1,5,2.747,1.385,8.51,1.828,12.012,3q-0.5,1-1,2c0.34,1.456-6.19,1.038-10.01,1-1.334-1.332-3.62-1.671-4.954-3-5.172-6.32,2.453-11.513,5.955-14.984C367.677,703.023,369.557,702.977,370.961,702.016Zm-12.012,1q-1,5-2,9.993c-2.9,4.151-6.066,8.847-12.947,10.991-0.533-4.643-.069-11.091-0.065-16.987l2-1C348.9,703.652,353.7,703.05,358.949,703.016Zm31.03,5v-3h-2c-1.074-.751-0.947-0.6-3-1l-3,3-1,1h9.009ZM336.928,725c-5.725-.14-7.677-1.8-12.011-3v-5c4.332-2.737,7.45-6.421,13.012-8v2C336.179,713.651,336.8,720.7,336.928,725Z"/>
</svg>
