<svg xmlns="http://www.w3.org/2000/svg" width="800" height="800" viewBox="0 0 800 800">
  <defs>
    <style>
      .cls-1 {
        fill: #1200ff;
        fill-rule: evenodd;
      }
    </style>
  </defs>
  <path id="形状_1_拷贝_11" data-name="形状 1 拷贝 11" class="cls-1" d="M411.034,416.946c7.024-5.866,16.209-8.52,23.093-10.516-0.178,1.715.266,0.334-.986,2.179-0.092,2.559-1.061,2.049-1.973,4.358l0.675,0.832-1.661,1.347,0.519,2.337-2.647,3.526,0.519,2.337q-0.831.673-1.661,1.348l0.207,5.347-1.661,1.347q-0.053,4.179-.1,8.358-0.961,5.6-1.922,11.21l1.35,1.663q-0.649,2.593-1.3,5.189l1.349,1.663q-0.572,1.842-1.142,3.684,1.919,10.851,3.838,21.7c-0.778.172-3.008,0.193-3.786,0.365L413.675,479.6l-4.047-4.988-0.831.674c-1.966-1.482-4.5-8.139-5.085-9.662l-3.891-6.493,0.83-.674q-0.935-2-1.868-4,0.494-1.089.986-2.179l-1.349-1.662q0.493-1.091.986-2.179-0.674-.832-1.349-1.663,0.494-1.091.986-2.179l-0.207-5.347L400.5,437.9l-0.519-2.336,1.661-1.348-0.519-2.337q3.219-5.367,6.437-10.737l4.152-3.369Zm59.319,0.126-20.7,16.8c-5.222-9.05-6.226-19.54-7.735-28.143,1.512-.062.036-0.2,1.5,0.158C450.543,404.789,463.956,410.519,470.353,417.072Zm-26.211,25.4c-2.923,3.751-6.649,8.152-9.572,11.9l-0.675-.831c0.941-3.044-.494-4.5-0.726-7.684q0.572-1.842,1.142-3.684l-1.349-1.663c0.744-4.739,1.64-10.931,2.384-15.671-0.121-1.281.408-1.761,0.287-3.041l1.661-1.348,0.675,0.832C437.327,425.036,441.273,438.116,444.142,442.475Zm9.945,0.254c7.446-9.329,12.275-13.687,19.483-20a16.811,16.811,0,0,1,4.878,4.314l-0.83.674,2.7,3.326-0.83.674,2.023,2.494-0.83.674,2.387,6.336-0.831.673,1.349,1.663q-0.648,2.595-1.3,5.19c0.331,7.718-1.166,13.449-5.187,20.7-1.349-1.663-3.192-3.8-4.541-5.463C468.9,460.917,457.266,446.876,454.087,442.729Zm-9.43,46.206A45.218,45.218,0,0,1,439.1,477c2.833-6.724,4.2-17.316,10.018-23.3l0.675,0.832c-0.252,4.791,12.532,18.987,17.178,24.566a11.317,11.317,0,0,1-2.647,3.527c-2.785-.117-5.076,2.806-7.992,3.727l-0.675-.831-2.491,2.021C450.427,488.29,447.831,487.488,444.657,488.935Z"/>
</svg>
