<svg id="Pro_44_-_Open_Back" data-name="Pro 44 - Open Back" xmlns="http://www.w3.org/2000/svg" width="800" height="800" viewBox="0 0 800 800">
  <defs>
    <style>
      .cls-1 {
        fill: #1200ff;
        fill-rule: evenodd;
      }
    </style>
  </defs>
  <path id="形状_1_拷贝_7" data-name="形状 1 拷贝 7" class="cls-1" d="M487.428,442.893c8.668,1.886,16.165,7.337,21.789,11.419-1.418.883-.1,0.4-2.255,0.541-2.013,1.452-2.2.407-4.509,1.084q-0.117.505-.235,1.011l-2.02-.47-1.479,1.788-4.275.072-1.479,1.787-2.02-.469L486.976,463l-2.02-.469-6.459,4.892-9.723,5.2q-0.236,1.011-.47,2.022l-4.745,2.095q-0.234,1.01-.47,2.022l-3.5,1.318-14.328,15.851c-0.594-.493-1.937-2.187-2.532-2.681q-0.845-5.523-1.69-11.049l1.41-6.066-1.01-.234c-0.035-2.387,3.554-8.285,4.37-9.641q1.326-3.421,2.654-6.843l1.01,0.235,1.95-3.81,2.254-.541q0.236-1.011.47-2.022l2.255-.542q0.234-1.011.47-2.022l2.254-.542,3.97-3.34,2.019,0.47,1.48-1.788,2.02,0.47,1.48-1.788,12.048-1.462,5.049,1.173Q487.31,443.4,487.428,442.893Zm35.2,45.477-25.174-5.85c3.819-9.382,11.25-16.392,16.937-22.666,0.948,1.12.177-.094,0.775,1.246C520.241,465.9,523.836,479.575,522.627,488.37Zm-35.039-4.946c-4.611-.006-10.2-0.238-14.807-0.244q0.117-.505.235-1.011c2.889-1.091,3.148-3.053,5.449-5.127l3.5-1.318q0.235-1.011.47-2.022c4.071-2.251,9.343-5.25,13.414-7.5,0.908-.854,1.59-0.735,2.5-1.589l2.02,0.469q-0.119.505-.235,1.011C496.88,467.831,489.216,478.634,487.588,483.424Zm5.722,7.763c11.571,0.148,17.78,1.251,26.9,3.015a16.3,16.3,0,0,1-.4,6.3l-1.01-.235-0.939,4.044-1.01-.234-0.7,3.033-1.01-.235-3.429,5.6-1.01-.235q-0.236,1.011-.47,2.022l-4.744,2.1c-5.711,4.846-10.988,7.11-18.933,8.348,0.47-2.022,1.01-4.7,1.48-6.725C488.2,513.347,492.028,496.088,493.31,491.187Zm-40.977,20.276a43.837,43.837,0,0,1,5.832-11.354c6.833-1.832,15.753-7.089,23.791-6.193q-0.117.505-.235,1.011c-3.817,2.658-7.075,20.89-8.581,27.765a10.956,10.956,0,0,1-4.274.072c-1.569-2.2-5.169-2.214-7.609-3.9q0.117-.505.235-1.011l-3.03-.7C456.26,515.5,455.329,513.031,452.333,511.463Z"/>
</svg>
