<svg xmlns="http://www.w3.org/2000/svg" width="800" height="800" viewBox="0 0 800 800">
  <defs>
    <style>
      .cls-1 {
        fill: #35d629;
        stroke: #ff0;
        stroke-width: 1px;
        stroke-dasharray: 4 4;
        fill-rule: evenodd;
      }
    </style>
  </defs>
  <path id="形状_1" data-name="形状 1" class="cls-1" d="M335,260c3.664,1.82,4.04,2.339,4,8q2.5,18.99,5,37.984c7.943,27.966,14.319,55.465,28,77.965,10.793,17.75,22.969,32.687,36,47.979,4.692,5.506,15.19,7.861,17,15.992-5.952,5.136-6.212,15.592-9,23.99-6.271,18.89-12.755,38.356-21,55.975-12.239.332-18.746,5.235-28,8-6.932,2.068-14.863,2.582-21,4-22.041,5.085-57.721-8.652-70-14.994-6.8-3.512-17.694-6.179-21-12.994,7.554-8.761,7.481-26.555,11-38.983,8.831-31.191,19.221-66.054,18-105.953-0.8-26.223-6.164-61.949,3-83.962,3.361-8.074,10.058-16.5,19-18.992C318.313,260.566,325.557,268.663,335,260Z"/>
</svg>
