<svg id="缝线" xmlns="http://www.w3.org/2000/svg" viewBox="0 0 800 800"><defs><style>.cls-1{fill:#1200ff;fill-rule:evenodd;}</style></defs><title>STITCHING-2的副本-1</title><path id="形状_140" data-name="形状 140" class="cls-1" d="M400.27,465h5v2h-5Zm8,0,3,1v1c-2.13-.09-3.18.49-4-1h1v-1Zm10,0v2h-5v-1h2v-1h3Zm-27,1h7v1h-5c-.18,11.94-3.13,30.17-1,38,2,7.53-1.32,22.86,0,28h1v8h1v7h1c.7,2.27.25,4,1,6l13,3v1h8c2.35.67,18.68,3.4,22,2,.42-.18.17-1.32,3-2v1h-1v1a15.8,15.8,0,0,1-6,1c-1.86,1.34-4.9-1.06-9,0v1h-5c-.34-.67-.67-1.33-1-2l-6,1-1-2-5,1v-1l-8-1-1-2h-6v-8h-1v-4h-1c.34-1,.67-2,1-3h-1c-.63-2.51,1.06-5.53,1-6h-1v-4h-1a1.7,1.7,0,0,1,1-2c.28-2.13-1.65-3.63-1-7h1v-1h-1V489h-1v-4a74.55,74.55,0,0,0,2-19Zm29,0h4v1h-4Zm6,0,5,1v1h-5v-2Zm6,1c.76.38,7,7,7,7h-2v-1a9.08,9.08,0,0,1-5-6Zm10,10,3,1v1c-2.39-.61-1.86-.32-3-2Zm6,5,3,1v1c-2.4-.61-1.87-.32-3-2Zm5,4c2.62.62,2.85,1.06,4,3,1.13.84.14-.13,1,1-2.83-.67-3.77-1.85-5-4Zm6,5,7,5,1,2h2l2,3h1v2h-1v-1l-3-1-6-7-3-1v-2Zm21,21h-2c-.65-2.74-1.31-2.28-2-5h1c.84,1.14-.13.14,1,1,.95,1.8,1.39,1.57,2,4Zm1,1c1.91,1.26,1.66,1,2,4h-1v3h-1v1h-1v-3h1Zm-3,9h1c.71,2.15-1.13,2.35-2,3-.85,1.14.12.15-1,1,.56-2.44,1-2.21,2-4Zm-4,9-3,1v-2l2-1c.84-1.14-.13-.15,1-1Zm-7,4c.42.58,1.64.15,1,2h-1s-1.05,2.4-2,1Zm-5,4c.42.58,1.64.15,1,2h-1c-.81,1.14-.69,2.34-3,2Zm-6,6c.42.58,1.64.15,1,2h-1s-1,2.4-2,1Zm-3,4-1,4-3,1v-1h-1v-1c2.12-1.21,2.17-2.25,5-3Zm-6,5c-.61,2.39-.32,1.86-2,3v1h-1v-1h-1v-1c1.79-1,1.57-1.39,4-2Z"/></svg>