<svg xmlns="http://www.w3.org/2000/svg" width="800" height="800" viewBox="0 0 800 800">
  <defs>
    <style>
      .cls-1 {
        fill: #13d904;
        fill-rule: evenodd;
      }
    </style>
  </defs>
  <path id="形状_11" data-name="形状 11" class="cls-1" d="M360.875,679c4.673,1.333,9.347,3.667,14.02,5l-1,1c-3.378,3.138-8.159,5.291-12.017,8-6.994,4.909-14.078,12.09-18.026,20h-2v-2c-7.433-8.9.179-24.8,7.011-27C351.618,681.585,357.627,681.131,360.875,679Zm19.027,9c4.806,3.1,7.8,8.259,8.012,16h-1c-2.48-1.644-8.913-1.123-13.018-1v-2Q376.9,694.5,379.9,688Zm-10.014,5h2l-5.007,11c-1.524,1.051-4.922,1.586-7.01,2v-2ZM447,699c-4.809.463-8.591,1.945-10.015,6h2c1.631,1.088,5.868,1.593,8.012,2a18.321,18.321,0,0,1,1,6c-0.805,1.021-.355.274-1,2-9.36,4.73-29.384,14.725-37.054,8-1.9-3.236-2.907-4.357-3-10,3.04-3.115,3.862-6.795,9.013-9h10.014c1.95,3.086,2.891,3.43,3,9-4.023,2.1-10.619,3.047-16.023,4,0.631,1.754.193,0.971,1,2,1.922,1.772,3.141,1.9,7.01,2,6.092-3.987,19.3-2.735,22.032-10l-1-1a38.9,38.9,0,0,1-9.013-1,18.321,18.321,0,0,1-1-6c0.805-1.021.355-.274,1-2,4.247-2.419,8.377-4.683,14.021-6v4Zm-42.061,11-8.011,1c-6.146,8.527-5.722,12.975,9.013,12-0.373,2.076-.243,1.924-1,3-1.551,1.049-4.091,1.031-7.01,1-2.025.967-3.937-.241-7.01-1-2.007-3.415-2.992-4.94-3-11,5.1-5.24,1.661-7.506,17.024-9v4Zm-32.046,18c-0.791-5.446-2.221-13.962,1-18v-1l14.02-2,1,1C387.261,717.205,382.147,726.49,372.892,728Zm43.062-20c-1.285,2.072-2.08,2.3-3,5h5.007c1.44-1.05,3.928-1.558,6.009-2v-2l-1-1h-7.01Zm-52.075,21c-7.009.046-17.062-4.914-13.018-9,3.2-5.492,8.149-5.6,14.02-8,0,2.333,1,4.667,1,7C364.542,720.992,363.776,725.507,363.879,729Z"/>
</svg>
