<svg xmlns="http://www.w3.org/2000/svg" width="800" height="800" viewBox="0 0 800 800">
  <defs>
    <style>
      .cls-1 {
        fill: #13d904;
        fill-rule: evenodd;
      }
    </style>
  </defs>
  <path id="形状_12" data-name="形状 12" class="cls-1" d="M322.9,679c3.695-.333,7.881-2.691,11.086-1,1.383,2.542,3.828,3.368,2.016,8-7.064,9.444-15.821,16.04-23.181,21a12.4,12.4,0,0,1-10.079-1c-6.909-10.871-2.015-24.073,12.9-22.265,1.694,2.821,3.753,2.412,4.36,6.265-1.077,2.623-9.3,8.06-13.228,12a15.932,15.932,0,0,0,5.039,1c5.2-5.8,13.456-9.716,20.082-18.982A14.451,14.451,0,0,0,326.929,683c-1.694,1.344-3.168,1.637-6.047,2a18.071,18.071,0,0,0-3.024-4c1.421-7.748,5.511-14.418,11.142-15,0,1.333-.055,3.667-0.055,5C325.851,672.89,323.688,674.652,322.9,679Zm-10.079,10c-4.2.206-5.195,0.651-7.055,3a19.477,19.477,0,0,0-2.016,4h3.024a21.259,21.259,0,0,1,6.047-4v-3Z"/>
</svg>
