<svg id="_1" data-name="1" xmlns="http://www.w3.org/2000/svg" width="800" height="800" viewBox="0 0 800 800">
  <defs>
    <style>
      .cls-1 {
        fill: #e60012;
        fill-rule: evenodd;
      }
    </style>
  </defs>
  <path id="形状_1" data-name="形状 1" class="cls-1" d="M373.91,73h8v2l-11.994,2V76h1Zm31.983,2a23.625,23.625,0,0,1,8,1c-1.02.8-.274,0.355-2,1l-3,3c-1.8-.779-4.529-1.774-6-3h1Zm-36.98,16c2.466,1.295.68-.429,2,2-5.3,4.815-6.9,13.972-9.994,21-7.089,16.092-13.768,33-20.989,50-13.069,30.769-23.869,64.114-33.981,99-4.387,15.132-3.465,31.915-7,47v12c-1.348,6.012-1.555,15.7-3,22v21c-1.818,8.22-3.2,26.227-1,36,2.447,10.881-.646,24.325,2,36a254.257,254.257,0,0,1,6,47h-2c-2.11-1.207-2.23-.483-5,0-1.158-15.854-2.773-32.29-6-47-1.564-7.138.283-17.1-1-23-2.033-9.353-.721-26.212,1-34,3.032-13.728-.677-28.935,2-41q0.5-13,1-26,3.5-24.5,7-49c9.626-35.684,20.617-69.148,33.981-100,7.309-16.872,13.947-33.829,20.989-50,3.006-6.9,3.908-18.346,10.994-21C366.685,92.318,368.145,91.689,368.913,91ZM394.9,91l6,1v2c-3.231,3.589-3.751,8.236-6,13-7.769,16.479-14.231,34.152-21.989,52-13.9,31.978-25.574,66.341-35.98,103-4.945,17.42-4.016,37.008-8,55v12c-4,18.38-6.376,59.653-2,80v20c3.57,16.489,1.823,36.41,7,52h-4c-1.9-.933-1.169-0.379-4,0v-8c-3.743-5.9-1.335-16.443-3-24-5.538-25.154-2.079-59.278-2-87,0.194-66.634,12.925-126.465,32.983-175,9.525-23.05,18.78-46.4,28.984-70C386.5,108.677,392.035,99.965,394.9,91Zm-99.946,3c3.243,0.828,1.527-.49,3,2h-2c-1.849,2.4-2.838,2.724-7,3V98h1C291.39,96.183,293.343,95.58,294.953,94Zm36.98,4c3.695,0.887,4.8,1.54,6,5,4.814,4.905,2.376,12.661,0,18h-2C337.319,111.016,335.873,104.575,331.933,98Zm139.924,0c3.243,0.828,1.527-.49,3,2-6.416,8.77-6.258,22.62-9.994,34-8.413,25.626-13.41,51.624-21.988,78-18.144,55.789-27.607,116.344-45.976,173-6.388,19.7-10.534,39.813-16.99,61-3.228,10.592-7.517,21.856-8,35l-2,2c-3.744-1.409-3.719-1.29-8-1v-1c4.806-6.754,4.323-18.347,7-27,5.641-18.261,9.787-37.222,15.991-56,23.367-70.726,35.618-148.659,58.968-219,5.969-17.982,9.6-36.249,14.992-54,2.528-8.325,2.2-17.973,7-24C467.389,99.648,470.166,99.252,471.857,98Zm26.985,4c3.369,1.547,6.02,2.88,7,7-6.608,8.946-6.176,23.338-10,35-7.146,21.824-11.55,44.274-18.99,67-9.84,30.061-15.219,62.232-24.986,94-13.559,44.1-24.721,90.659-37.98,134-5.1,16.686-5.26,33.31-10.994,50a73.929,73.929,0,0,0-8-2v-3c5.92-9.11,5.43-24.225,9-35,6.77-20.466,12.642-42.339,18.989-63,2.237-7.282,1.663-12.849,4-20,9.538-29.2,16.168-60.874,24.987-90,4.4-14.538,4.565-27.472,9-42C474.056,190.735,487.283,146.1,498.842,102Zm-196.893,9c2.466,1.3.68-.429,2,2-11,12.3-16.98,37.47-23.987,54-12.89,30.405-22.264,64.624-31.983,99-3.931,13.9-1.654,27.745-5,43-1.974,9.006-3.328,48.71-1,59,2.5,11.035,1.1,24.167,4,36,4.571,18.638,6.709,37.945,12.993,55,2.157,5.854,10.728,28.27,9,33-1.179.8-1.68,0.773-4,1l-1-1c-1.427-20.74-10.934-40.925-15.992-60-5.932-22.374-4-46.739-9-70V341c-0.006-24.717.969-46.117,6-65,6.87-25.8,9.342-49.273,17.99-73,11.341-31.113,24.379-61.313,36.98-91C301.025,111.628,300.874,111.758,301.949,111Zm-20.989,6c2.466,1.3.681-.429,2,2-10.033,11.21-17.418,38.474-23.987,54-12.809,30.273-22.8,64.713-31.983,99-3.071,11.466-1.321,21.747-4,34-2.929,13.411-2,30.926-2,47v17c2.578,11.619,1.1,24.74,4,37,4.949,20.917,8.287,41.892,14.992,60,1.608,4.342,8.564,31.107,8,32-1.253,1.623-2.1,2.007-4,3v-2c-4.189-6.062-3.528-15.289-6-23-5.48-17.119-8.245-33.34-12.993-53-19.66-81.4-.939-173.083,23.987-234C259.275,164.833,265.651,137.1,280.96,117ZM213,173c2.466,1.295.68-.429,2,2-3.91,6.147-3.714,13.721-6,19h-2v-2C210.363,187.484,210.677,178.207,213,173ZM666.752,307c3.237,1.273,2.63.879,3,5-3.556,4.816-3.719,11.866-6,18-4.687,12.626-9.3,26.908-14.992,39-0.8-1.021-.354-0.274-1-2-2.374-3.851,1.386-11.766,3-16C656.081,337.033,660.7,321.073,666.752,307Zm-179.9,51c4.644,7.181-10.2,33.737-12.993,39h-2v-3c1.923-2.828,1.506-6.476,3-10C478.351,375.746,483.079,367.064,486.849,358ZM207,411h2c2.487,26.063,10.3,54.823,17.99,78,2.247,6.767,5.755,14.043,7,22-2.07,1.283-2.3,2.077-5,3v-2c-5.052-7.489-4.993-18.8-8-28-3.372-10.326-7.2-23.13-9.994-34Q209,430.5,207,411Zm391.788,51h6v1c-3.974,4.279-5.325,10.309-9,15-1.834,2.344-8.262,5.548-10.994,9-1.293,1.635-2.557,10.467-5,14a273.4,273.4,0,0,1-50.973,55c-11.036,8.881-21.677,25.185-35.98,30v-1c-2-1.4-2.065-1.346-3-4,11.2-5.672,19.321-16.7,28.985-24C551.782,532.115,575.994,493.827,598.788,462ZM572.8,475h6v2c-5.2,5.837-9.145,17.2-16.991,20v-3A47.981,47.981,0,0,0,572.8,475Z"/>
</svg>
