<svg id="_2" data-name="2" xmlns="http://www.w3.org/2000/svg" width="800" height="800" viewBox="0 0 800 800">
  <defs>
    <style>
      .cls-1 {
        fill: #e60012;
        fill-rule: evenodd;
      }
    </style>
  </defs>
  <path id="形状_2" data-name="形状 2" class="cls-1" d="M524,116l6,1v2a18.334,18.334,0,0,0-3,7h-2C524.141,120.112,521.852,120.259,524,116Zm-4,21c2.467,1.295.681-.429,2,2-2.881,3.163-4.915,9.311-6,14l-1-1c-1.891-2.014-2.569-4.433-3-8C514.749,142.289,518.156,139.672,520,137Zm65,17c2.467,1.295.681-.429,2,2,1.5,1.624,1.552,2.023,2,5,0.057,5.584-5.949,17.926-8,25-5.653,19.5-13.651,40.136-16,63-0.667,0-2.333-4-3-4v-1c-1.238-1.838-1.089-5.7-1-9Zm-81,7c3.256,1.538,4.474,4.789,5,9-3.421,4.063-3.665,9.669-6,15-5.718,13.052-10.947,27.087-17,41-19.172,44.065-37.086,90.472-56,135-6.477,15.248-11.843,30.485-18,45-2.578,6.077-3.4,17.068-9,20-7.734-5.263.647-14.208,4-22,6.781-15.755,12.457-31.727,19-47,18.341-42.815,31.854-86.231,50-129,6.893-16.246,13.7-33.1,21-50C499.274,172.738,502.937,167.762,504,161Zm50,99c7.718,6.817,2.089,20.481,0,29-0.333,6.666-1.667,13.334-2,20-2.607,18.772-2.023,65.066,0,86q0.5,9.5,1,19c2.482,8.024,9.379,15.355,11,24-3.712,1.941.549,1.6-3,3v-2c-15.549-16.395-16-57.371-16-90V314C547.35,297.542,550.027,276.644,554,260ZM380,386h3c-0.452,7.907.62,17.761-1,26h-1A248.357,248.357,0,0,1,380,386Zm1,36c2.873,1.12,1.842.174,3,3,0.961,1.418.976,3.273,1,6-1.766.961-1.68,1.257-4,2v-1C382.869,429.163,381.4,425.752,381,422ZM350,547c0.791-12.727,11.351-30.108,16-41,10.537-24.686,17.781-50.176,29-74,2.852,1.772,4.267,2.9,5,7-5.464,10.841-9.433,23.976-14,35-10.077,24.324-20.5,49.512-31,74Z"/>
</svg>
