<svg id="_3" data-name="3" xmlns="http://www.w3.org/2000/svg" width="800" height="800" viewBox="0 0 800 800">
  <defs>
    <style>
      .cls-1 {
        fill: #e60012;
        fill-rule: evenodd;
      }
    </style>
  </defs>
  <path id="形状_3" data-name="形状 3" class="cls-1" d="M448.939,86.994c20.03,1.225,27.951,18.166,33.994,33.984,1.572,4.114,6.871,12.7,5,16.991-1.524,1.228-4.176,2.157-6,3C478.6,109.624,454.425,83.254,418,89.546c-2.646,3.573-4.769,6.494-6.057,12.441h-1v-9c1.882-2.016,2.849-6.342,5-8,2.7-2.081,7.127-.825,10-3,4.51-3.415-1.686-5.633,9-6l1-1v2a10.429,10.429,0,0,0-4,6c4.763,0.109,7.187,1.125,11,2,0.659-4.706,2.938-7.657,7-9a5.491,5.491,0,0,1,8,2c-5.1.345-6.7,1.989-8,6C449.187,85.068,449.337,84.941,448.939,86.994ZM319.962,120.978h-3c-0.269-10.679,1.536-17.258,8-20.99l6-2c0.739-3.534-2.251-5,4-7,1.073-.751.946-0.6,3-1q-0.5,3-1,6l14-1a19.84,19.84,0,0,1,2-8c2.476-1.113,3.232-1.687,7-2v2c-1.67,1.793-2.351,4.118-3,7h2c3.907,2.358,10.693,1.21,15,3,13.321,5.536,24.9,17.247,27,33.984a15.7,15.7,0,0,1-5,1c-7.9-33.731-36.282-36.495-70.987-26.987C322.1,109.841,320.031,112.81,319.962,120.978ZM562.918,177.95c2.265-33.054-17.706-68.412-45.258-70.918-0.37,1.342-2.424,2.252-4.733,2.951v-2c3.492-2.314,6.324-7.93,12-5,4.4-2.945,4.143-6.652,12-7a19.575,19.575,0,0,0,4,2v1c-5.366,0-7.817.892-10,4h-1q0.5,0.5,1,1a17.526,17.526,0,0,0,8,4c1.666-5.267,6.107-7.877,13-8,1.673,1.618,3.3,2.3,6,3v2c-6-2.258-12.246-.21-14,5h-1l1,1,15,14.992c7.832,11.99,10.444,32.524,11,50.976h-2C566.623,177.828,565.451,177.844,562.918,177.95ZM319.962,134.971h4c2.433,20.766,12.673,37.177,19,53.974,5,13.291,8.26,27.629,12,40.98,2.13,7.61,2.359,13.788,5,20.99,1.936,5.28,4.9,11.766,7,16.992,3.881,9.646,10.941,44.509,4,53.973v-1c-2.759-4.546-.48-10.6-2-16.992-2.771-11.653-3.275-25.831-7-36.982-2.464-7.381-6.544-15.553-9-22.989-6.305-19.109-8.06-37.121-15-54.973C331.528,172.4,321.767,156.728,319.962,134.971ZM458.937,304.889l-1,5a18.312,18.312,0,0,1-6,1c-1.441-2.669-1.993-4.219-2-9-7.252-10.984-6.6-28.67-11-41.98-5.885-17.822-12.695-36.818-19-53.973-6.768-18.424-7.845-38.512-15-55.973h3c0.771,0.681,2.231,1.31,3,2,5.821,8.728,6.3,28.092,10,38.981,12.171,35.868,25.723,75.528,34.994,113.945h3Zm164.97,142.93h-6q3-36.478,6-72.964V349.867c1.142-7.7,1.709-21.3,0-28.986V298.892c-6.113-27.3-5.607-56.537-13-80.961-4.306-14.23-9.813-53.37-21-57.972-2.477-1.5-5.348-.4-7-3,1.765-.961,1.68-1.256,4-2,1.417-.96,3.273-0.976,6-1,3.029,2.532,5.774,3.608,8,7,4.506-2.473,11.922-6.549,18-2,4.069,1.072,5.067,3.041,8.079,5.017,2.68,1.312,11.52,26.48,11.013,27.024-5.872-11.6-12.426-25.044-13.093-25.044-2.176-3.434-11.031-9.1-17-5-2.689.8-3.706,1.841-6,3,1.754,7.361,5.688,14.984,8,21.989,5.5,16.685,7.678,34.316,12,50.976,5.695,21.965,2.8,46.005,8,68.966v31.985c0,19.456.887,41.9-3,58.971v11C624.257,419.718,622.611,435.971,623.907,447.819ZM430,156c0.666,0,8.274,12.954,8.941,12.954,1,2.666,10.62,26.331,11.059,30.046-3.579-8.538-9.393-22.049-10.06-22.049v-2C438.321,173.279,430.7,158.694,430,156Zm61.931,12.954a13.668,13.668,0,0,1,8,6c5.772,7.785,4.707,19.662,8,29.985,7.052,22.117,13.3,49.291,16,72.965,1.654,14.536,7.107,29.914,2,43.978h-2c-1.441-2.668-1.993-4.219-2-9,2.557-4.012-2.6-32.347-4-37.982-3.97-16.019-3.414-30.366-8-45.978C504.284,209.707,496.5,188.7,491.931,168.954Zm76.986,21.99c3.841,1.541,3.292,4.708,3,10h-2c-2.094-3.1-4.093-3.416-5-8l1-1C567.993,191.572,567.842,191.7,568.917,190.944Zm0,27.986c3.683,0.8,5.716,1.634,7,5,3.988,5.942,2.1,15.962,4,23.988,6.254,26.427,8.4,63.474,0,86.958h-1V321.88c1.9-2.945.871-23.265,0-28.986C575.033,267.385,573.837,241.387,568.917,218.93ZM119,246.917h5c10.632,24.267,20.911,51.821,32.994,74.963,12.5,23.941,27.053,45.667,41.993,67.967,10.4,15.524,22.055,30.42,32.994,45.978,4.979,7.082,13.955,14.536,17,22.989h-1c-1.729,1.906-4.476,3.78-6,3-2.724-3.957-3.3-9.118-6-12.994C205.046,404.444,172,362.783,145.993,312.885,139.257,299.959,132.7,286,127,272.9c-3.447-7.919-1.347-13.87-13-13.993-1.669,1.727-9.465,1.243-12,21.089-2.751-12.5,6-19.09,6-20.09h2c2.533-2.208,9.132-2.132,11-5C118.085,252.75,117.782,250.571,119,246.917Z"/>
</svg>
