<svg id="_4" data-name="4" xmlns="http://www.w3.org/2000/svg" width="800" height="800" viewBox="0 0 800 800">
  <defs>
    <style>
      .cls-1 {
        fill: #e60012;
        fill-rule: evenodd;
      }
    </style>
  </defs>
  <path id="形状_4" data-name="形状 4" class="cls-1" d="M391.015,93c2.532,0.074,3.716.121,5,1,4.434,1.433,7.642,5.525,9,10h-2c-1.828-1.274-5.257-1.706-8-2C393.459,97.443,390.666,96.83,391.015,93Zm37,6c2.467,1.3.681-.429,2,2-2.4,3.529-.836,13.262,0,17h-2v-2c-2.872-2.6-4.6-4.751-5-10Zm-71.006,1h7l3,3v1h-2c-1.438,1.05-3.922,1.558-6,2C357.12,102.977,356.277,103.523,357.012,100Zm103.008,5h5c1.744,7.2,6.3,13.765,9,20,4.652,10.752,6.357,21.367,11,32,1.972,4.517,6.031,9.482,8,14l27,80c5.6,17.2,6.59,34.837,10,54,2.482,13.948,4.728,28.1,8,43,3.528,16.063-1.058,43.28-4,55q-2,13.5-4,27c-7.28,26.245-12.289,54.719-23,78-1.754-.631-0.971-0.193-2-1-1.754-.631-0.971-0.193-2-1,5.237-5.985,5.02-16.776,8-25,5.728-15.8,8.4-32.746,13-51,10.845-43.007,10.279-85.831,0-128-3.438-14.1-2.18-26.6-6-40-8.094-28.381-16.981-57.341-28.025-84-6.471-15.619-11.944-31.83-18.979-48C467.644,122.237,461.549,114.08,460.02,105Zm24,4c11.664,6.305,12.563,19.263,18,32,6.477,15.168,14.06,29.455,19.411,45.055C530.6,212.783,541.177,240.24,549.028,269q1,9,2,18c5.534,20.945,8.714,40.988,12.142,63.9,1.062,7.1.1,19.665-1.141,25.1v15c-4.6,18.87-7.57,40.284-13,58-5.686,18.549-8.515,45.446-19,59h-2c-0.631-1.754-.193-0.971-1-2,10.381-23.026,15.922-50.843,23-77q2-14.5,4-29c2.469-10.464,5.039-35.981,3-51-2.336-17.209-4.947-34.583-9-51q-0.5-7-1-14-5-21-10-42c-10.19-30.272-21.441-61.523-33.074-89.075C498.032,138.9,488.279,123.848,484.022,109Zm-4,399c-0.828,3.245.49,1.528-2,3v-6c2.749-4.308,0-24.653,0-34,0-20.3,3.68-41.185-1-61V393c-4.025-17.656-2.022-36.406-7-53-7.706-25.682-13.046-53.634-20.028-80.992-12.349-48.389-30.64-97.634-47.145-141,0.834-.007,1.5-0.007,2.168-0.007,2.486,1.734,5.1,1.651,7,4,5.68,7.728,6.159,19.643,10,29,7.686,18.716,14.171,37.452,21,58,15.467,46.529,25.011,98.7,37,150,3.243,13.874-.164,28.486,3,43,6.268,28.745,1.719,75.133,2,108a14.133,14.133,0,0,1-4,1v-2c1.754-.631.972-0.193,2-1h-3Zm-21,9-5-1v2c2.212,0.327,1.079-1.038,2,1l-4,1V484c-5.008-8.555.841-36.871-1-49-4.109-27.06-1.965-56.359-9-81-14.478-50.707-26.486-104.185-43-152-9.391-27.185-24.292-53.68-32-82l7-1c34.048,78.635,59.237,161.562,78.007,254,2.818,13.881-.154,26.609,3,41,3.243,14.8,1.215,33.225,3,50C459.727,480.041,458.832,499.843,459.02,517ZM269,122h4l1,1c0.056,11.088,3.626,22.372,6,32q1,9.5,2,19c4.343,16.163,8.349,34.435,13,50,8.141,27.235,11.675,55.658,19,82q0.5,5.5,1,11c11.143,38.769,19.779,86.811,21,134h-2v-2c-9.166-7.749-5.709-18.573-9-33q-4-29.5-8-59c-7-25.962-12.14-54.432-19-80-3.508-13.072-3.161-24.328-7-37-6.11-20.161-11.436-43.1-17-64q-2-15.5-4-31c-1.607-6.482-3.691-13.086-4-21A10.925,10.925,0,0,0,269,122ZM545.028,512c1.368-10.236,7.424-20.377,11-29,4.539-10.945,6.44-23.335,9.971-34,7.519-22.706,10.613-45.443,14.031-71,2.7-20.2-5.365-52.432-9-67-2.725-10.918-1.186-19.678-4-30-4.879-17.895-10.5-36.278-17-52-3.348-8.095-3.6-15.931-7-24-3.368-7.981-8.553-17.05-12-25-2.017-4.652-2.565-9.458-5.026-14-4.921-9.081-11.2-18.587-13.975-30h2c0.771,0.682,2.232,1.311,3,2,4.486,4.964,5.085,12.316,8,19,3.76,8.619,10.244,17.38,14,26,2.84,6.515,3.223,12.246,6,19,9.319,22.658,19.3,46.848,26,72,4.214,15.805,3.564,25.892,7.97,42,5,18.283,10.544,50.838,6.031,76-8.05,44.884-19.07,83.86-36,121A14.134,14.134,0,0,0,545.028,512Zm-26-373c5.908,2.219,23.926,36.295,26,44h-2C536.607,167.908,527.2,152.691,519.025,139ZM225,152h2c-0.06,10.241,1.948,20.261,4,29q1,12.5,2,25c4.644,18.855,7.18,39.535,12,58l3,23c9.081,35.31,11.545,73.728,20,110v16c0.008,22.456-2.584,38.971-9,54-2.336,5.471-3.022,14.263-9,16v-1c15.9-23.66,16.612-77.078,8-112-6.971-28.274-5.691-57.6-13-85-5.814-21.8-8.427-47.361-14-70q-1-9.5-2-19c-3-12.083-7.236-24.821-8-38A32.314,32.314,0,0,0,225,152ZM376.013,258c5.137,5.858,6.777,22.144,7,32h-2C379.794,279.871,373.017,267.6,376.013,258Zm35,123c5.861,2.731,10.407,14.257,11,22h-2c-2.8-4.061-5.6-4.1-6-11C412.263,389.536,411.675,384.359,411.016,381Zm11,29h2c3.13,21.159,7.839,45.587,11,66,1.518,9.8-.27,17.88,2,28a64.641,64.641,0,0,1,0,27c-2.45.6-2.965,2.349-4,1-4.909-7.3.267-21.722-2-32-4.618-20.931-5.313-43.24-10-63-1.73-7.292-.842-13.994-3-20,3.188-.506,2.92-0.872,5-2A15.732,15.732,0,0,1,422.017,410ZM570.03,479c2.468,1.3,28.734-56.455,30.97-89,2.091,35.552-33.127,100.336-35.971,105-3.981,6.529-8.985,13.32-13,20h-2v-2C555.658,508.415,567.8,486.818,570.03,479ZM329.009,492c3.632,1.361,5.872,5.252,7,9-1.65,1.79-1.746,2.512-2,6,3.364,1.121,3.314,1.133,4,5-2.887,4.9.434,14.484-1,21-3.87,17.579-2.4,35.445-8,51-7.06,19.628-16.746,38.968-28,55-5.128,7.3-11.688,13.64-16,22h-2c-1.97-2.311-3.647-1.786-5-5,9.023-6.306,14.829-18.724,21-28C325.583,588.061,328.861,555.487,329.009,492Z"/>
</svg>
