<svg xmlns="http://www.w3.org/2000/svg" width="800" height="800" viewBox="0 0 800 800">
  <defs>
    <style>
      .cls-1 {
        fill: #35d629;
        stroke: #ff0;
        stroke-width: 1px;
        stroke-dasharray: 4 4;
        fill-rule: evenodd;
      }
    </style>
  </defs>
  <path id="形状_1" data-name="形状 1" class="cls-1" d="M346,484.885h3v3c-20.229-.017-41.057.035-56.063,4-5.73,1.513-18.171,4.915-23.026,2h2c1.511-2.146,1.771-1.93,2-5.994-6.259-9.465-2.226-23.728-5-36.963-3.038-14.46-1.433-32.048-2-48.95-0.828-24.591-4.606-45.12,13.015-56.943,5.008-3.36,10.974-4.943,19.021-5,13.168-.084,25.189-0.266,33.038,5,18.2,12.2,15.34,48.522,15.017,74.925-2.62.383-1.311-.742-2,2,2.2,3.487,1,12.7,1,17.982v44.954Z"/>
</svg>
