<svg xmlns="http://www.w3.org/2000/svg" width="800" height="800" viewBox="0 0 800 800">
  <defs>
    <style>
      .cls-1 {
        fill: #35d629;
        stroke: #ff0;
        stroke-width: 1px;
        stroke-dasharray: 4 4;
        fill-rule: evenodd;
      }
    </style>
  </defs>
  <path id="形状_1" data-name="形状 1" class="cls-1" d="M345,490.012c-0.129-16.894,12.286-42.544,17-57.937,2.695-8.8,2.28-16.162,5-24.973,4.284-13.877,8.963-29.262,14-42.953,4.325-11.755,5.243-22.968,15-28.968,6.482-3.987,23.716-8.335,36-5,6.481,1.762,16.376,3.139,23,5.994,17.581,7.575,19,27.452,19,52.942V411.1c-4.061,12.48-14.558,24.79-22,34.962l-12,11.987c-7.5,12.393-12.255,27.041-16,42.953h-6c-3.965-4.3-11.231-3.288-18-5C383.632,491.879,365.426,490.047,345,490.012Z"/>
</svg>
