<svg id="缝线" xmlns="http://www.w3.org/2000/svg" viewBox="0 0 800 800"><defs><style>.cls-1{fill:#1200ff;fill-rule:evenodd;}</style></defs><title>STITCHING-1的副本-1</title><path id="形状_145" data-name="形状 145" class="cls-1" d="M564,528.93h3v2h-3Zm3,2a9.93,9.93,0,0,1,4,1v1c-3-.33-2.72-.16-4-2Zm-8,1h2l-1,3h-1Zm12,1,3,2v1h-2v-1c-1.14-1.16-.4,0-1-2Zm3,3h2v3h-1v-1c-1.14-1.16-.4,0-1-2Zm3,5v-2h1v1h1c-1.14,1.11,0,.37-2,1Zm-23,0c1.14,1.14.4,0,1,2h-1Zm27,7h-2v-5h1v1h1Zm-30-3h1v3h-1v1h-2v-1a7.65,7.65,0,0,0,2-3Zm28,5h2v3h-2Zm-33,2h1c.47,1.21-1.6,4.12-2,5h-1v-2a7.65,7.65,0,0,0,2-3Zm32,4h2v3h-2Zm-42,10h2l-1,3h-2v-1c1.14-1.18.4,0,1-2Zm-8,12h1v1l-1,2h-1c.33-1,.67-2,1-3Zm-5,7h2l-1,3h-2v-1c1.14-1.19.4-.06,1-2Zm-4,5h1c1,1.91-.68,4.16-1,5h-1v-3c1.14-1.19.4-.06,1-2Zm-4,9c2.66,1.46,7.16,5.73,8,9h-1c-1.89-3-5.13-3.92-7-7h-1c.33-.71.67-1.39,1-2.06Zm12,10c.72,2.76.28,2.24,3,3v2c-3.26-.78-5.55-3.44-7-6h2c1.14,1.08,0,.34,2,.94Zm19,2-4,1v-2c2.74-.64,2.28-1.31,5-2v1c-1.14,1.08-.4,0-1,1.94Zm-4,1v2c-2.44.58-2.21,1.05-4,2v-2c1.8-1,1.57-1.44,4-2.06Zm-12,2,3,1v1c1.51.55,3.88-1.13,4-1v2h-1v1h-4c-1-1.86-1.39-1.63-2-4.06Z"/></svg>