<svg id="缝线" xmlns="http://www.w3.org/2000/svg" viewBox="0 0 800 800"><defs><style>.cls-1{fill:#1200ff;fill-rule:evenodd;}</style></defs><title>STITCHING-2-02</title><path id="形状_146" data-name="形状 146" class="cls-1" d="M400,465h5v2h-5Zm11,0v2h-4v-1h1v-1Zm7,0v2h-5v-1h2v-1Zm-27,1h7v1a14.81,14.81,0,0,0-6,1c.49,1.37,1.67,3.41,1,6-.36,1.37-.77-.4-1,1-1.08,6.74-.75,20.61,0,25h-2q-.5-7.5-1-15C390.45,479.52,391,473.31,391,466Zm29,0h5v1h-5Zm6,0h5v1l3,1,6,7h-2c-1-1.27-2.22-1.05-3-2v-2l-3-1-1-2h-5Zm19,11v2c-2.39-.61-1.86-.32-3-2Zm2,4c2.39.61,1.86.32,3,2,1.14.84.14-.13,1,1C448.39,483.38,448.15,482.94,447,481Zm6,3v2c-1.14-.84-.14.13-1-1-1.14-.84-.14.13-1-1Zm1,3c2.61.62,2.85,1.06,4,3,1.14.84.14-.13,1,1C456.17,490.33,455.23,489.15,454,487Zm6,5c4,1,4.88,4.15,8,6v1h-2l-3-4-3-1Zm13,12-3-1v-3h1c.84,1.14-.13.14,1,1Zm-80,52v-4h-1v-1h1v-4l-2-1c.33-1.67.67-3.33,1-5h-1v-3h-1c.33-1.67.67-3.33,1-5h-1v-4c.25-1.39,1.17.4,1-1h-1v-4h-1v-1h1c1-5.61-2.17-16.36,1-20q.5,6,1,12v13h1c.08,1.35-1.61,1.62-1,4h1q.5,7,1,14h1c.83,2.79,0,5.44,1,8,2.57.11,3.48.13,5,1v1h4v1h7v1h5v1c3.66,1.08,8.33,0,11,1-.84,1.14.13.15-1,1v1h-4c-1.33-1.46-2.82-2.38-6-2v1h-1v-1h-9l-1-2h-6l-1-2Zm83-49c2.5,1.41,3.76,3.32,5,6h-2C477.81,510.79,476.67,510,476,507Zm5,6c2.16,1.42,2,2.37,2,6l-3,2v-2h1Zm-4,14h-2c.61-2.39.32-1.86,2-3,.84-1.14-.13-.15,1-1v2C476.86,526.14,477.6,525,477,527Zm-7,6,1-3h3v1h-1v1Zm-1,1c-.68,2.93-1.11,3.27-4,4C465.68,535.07,466.11,534.73,469,534Zm-8,5h2c-.33,3.69-.82,4.21-4,5C459.64,541.26,460.31,541.72,461,539Zm-5,6c.42.58,1.63.15,1,2h-1s-1,2.4-2,1Zm-6,4c1.72,1.13,1.36.63,2,3h-1v1h-1v-1h-1Zm-4,4h1v3c-1,.35-2,1.79-4,1Zm-5,4h1v1l-1,2h-1Zm-11,3h7v1h-2v1h-1v-1h-4Z"/></svg>