<svg xmlns="http://www.w3.org/2000/svg" width="800" height="800" viewBox="0 0 800 800">
  <defs>
    <style>
      .cls-1 {
        fill: #13d904;
        fill-rule: evenodd;
      }
    </style>
  </defs>
  <path id="形状_15" data-name="形状 15" class="cls-1" d="M140.028,353c25.73-.575,35.607,13.189,35,39l-1,1c-4.9-3.032-8.459-7.8-13-11-10.822-7.624-23.979-12.672-39-16v-3c2.546-1.594,4.531-4.526,7-6C132.443,354.961,137.1,355.337,140.028,353Zm-27,26c2.719-.007,4.6.039,6,1,5.845,2.012,8.925,8.092,13,12-0.631,1.754-.193.971-1,2-4.531,3.164-15.145,5.2-21,6-1.158-3.366-1.068-9.15-1-14,1.05-1.438,1.558-3.922,2-6C112.785,379.369,112,379.807,113.031,379Zm27,5c8.944,0.27,12.836,4.939,20,7v2h-15c-1.021-.8-0.274-0.355-2-1C142.054,388.346,140.79,388,140.028,384Zm32,18c-0.98,7.941-8.394,16.688-16,18l-1-1c-0.4-6.981-3.389-11.2-5-17,4.357-1.488,12.071-1.075,18-1C169.2,401.8,169.705,401.773,172.024,402Zm-34,1c6.411,2.169,11.5,12.006,12,20l-1,1c-12.9,1.306-29.407-1.4-33-12C122.08,408.868,132.3,407.234,138.028,403ZM269.016,633.949a46.7,46.7,0,0,1,17,3.051c-13.155,13.826-22.723,19-31,39-5.4-3.392-10.777-19.314-5-27C253.316,638.214,261.8,636.313,269.016,633.949ZM369,636c3.1,1.224,2.261.375,3,4-4.253,1.815-8.413,3.357-10,8h1c2.111,1.321,8.635,1.228,11,2,1.113,2.476,1.688,3.233,2,7-2.743,7.629-32.7,25.857-43.995,17-1.83-3.832-2.949-5.794-3-12,2.873-3.614,3.056-7.267,8-9,2.657-2.457,6.845-2.992,12-3l3,3c1.344,1.681,1.637,3.143,2,6a130.43,130.43,0,0,1-18,8c0.63,1.754.193,0.971,1,2,2.037,1.883,3.834,2,8,2,6.4-5.7,21.823-6.4,25-15-4.33-2.171-8.79-1.457-13-3a18.324,18.324,0,0,1-1-6C358.588,639.985,364.959,639.916,369,636Zm-75.991,4a23.377,23.377,0,0,1,12,16h-5c-2.534,1.69-8.178,1.923-12,2v-2C290.629,651.835,291.128,644.1,293.01,640Zm-11,8h2c-2.649,8.294-1.741,14.885-12,16v-2Zm53.994,14c5.091-.3,6.946-1.883,11-3v-3h-2c-3.469-1.969-6.343,1.244-9,3v3Zm-11-5v4c-4.22.785-7.891,2.016-10,5-2.3,2.815-1.759,5.326-1,9a18.068,18.068,0,0,1,4,3c2.878-.585,9.009-3.151,10-2,0.8,1.18.773,1.681,1,4h-2c-3.378,2.682-10.3,3.684-14,1-3.08-1.038-2.918-.967-4-4C300.609,666.818,315.86,657.33,325.006,657Zm-19,4c0.435,12.573-4.114,23.048-13,26v1q-0.5-.5-1-1c-3-3.912-3.635-14.011-4-20C293.117,664.039,298.078,661.362,306.008,661Zm-25,30c-6.963-.143-10.646-2.516-16-4v-6c0.8-1.021.355-.274,1-2,4.689-2.757,8.112-6.388,14-8v12C281.153,684.69,281.077,687.9,281.011,691Z"/>
</svg>
