<svg xmlns="http://www.w3.org/2000/svg" width="800" height="800" viewBox="0 0 800 800">
  <defs>
    <style>
      .cls-1 {
        fill: #13d904;
        fill-rule: evenodd;
      }
    </style>
  </defs>
  <path id="形状_16" data-name="形状 16" class="cls-1" d="M171,269c5.622,2.432,4.735,9.669,3,15-1.5,1.552-.777,1.838-3,3-3.468-3.352-11.6-4.827-14-9C160.021,274.909,166.249,271.448,171,269Zm-32,16h2c-2.187,4.759-7.344,16.691-12,19v-1a12.429,12.429,0,0,1-8-8C125.7,293.143,133.818,288.369,139,285Zm12,1c8.153,0.12,13.4,3.237,19,6v2c-5.832,6.428-10.073,13.629-28,14l-1-1Zm20,11c7.887,0,11.178,3.074,16,6-0.631,1.754-.193.971-1,2-1.455,2.542.217,1.128-3,2-2.752-2.947-5.11-3.966-11-4-2.143,3.614-3.735,5.06-4,11,3.206,2.793,11.828,6.987,9,11-1.516.536-.825,2.537-4,1-6.056-2.739-8.979-7.91-11-12-0.036-5.543,1.02-7.973,2-12Zm18,13c6.544-2.484,9.2-.047,13,2a19.69,19.69,0,0,0,4,6c0.409,4.695,1.523,7.589-1,11-1.038,3.081-.967,2.918-4,4-3.263-5.029-8.358-8.337-14-11v6c5.553,4.262,19.633,17.521,24,21v-2c1.077-3.5-5.387-14.443-1.087-20.022A23.226,23.226,0,0,1,217,326c3.511,4.251,10.411,3.207,9,11l-1,1h-2c-1.6-2.532-6.082-5.983-8-5-0.877,1.3-.894,2.467-1,5,2.9,3.074,3.135,7.777,3,14a24.935,24.935,0,0,0-5,4c-1.754-.631-0.971-0.193-1.566.1-2.259,1.436-25.367-20.689-27.434-24.1-1.967-3.245-2.048-7.869-2-13C182.745,315.305,185.05,311.821,189,310Zm4,5c-1.34,1.9-1.283.874-2,4,4.231,1.3,6.314,4.054,10,6v-7a9.257,9.257,0,0,1-4-3h-4Z"/>
</svg>
