<svg xmlns="http://www.w3.org/2000/svg" width="800" height="800" viewBox="0 0 800 800">
  <defs>
    <style>
      .cls-1 {
        fill: #00f900;
        fill-rule: evenodd;
      }
    </style>
  </defs>
  <path id="形状_1" data-name="形状 1" class="cls-1" d="M619.992,300.447c-2.764-.723-2.238-0.279-3-3-6.62-5.187,2.879-18.053,7-14.982h1C622.558,287.943,620.13,292.3,619.992,300.447Zm8-17.979h3a6.717,6.717,0,0,0,3,3v1h-1c-1.257,1.907-1.015,1.657-4,2Q628.5,285.466,628,282.468Zm-2,9.988h-2q0.5-2.5,1-4.994h1v2h1Q626.5,290.959,626,292.456Zm10-4q-0.5,4.994-1,9.988c-3.363-.891-4.343-3.578-5-6.991C632.747,289.875,631.795,288.99,636,288.461Zm-10,6.992h2c0.626,3.071,1.6,3.458,2,6.991-2.143.12-3.4,1.018-4,1v-1h-2C624.312,298.906,625.308,298.5,626,295.453Zm-72.036,268.68-2,6.992c-2.781-1.127-5.112-1.75-6-4.994l3-1v-1h5Zm2,1,5,1c1.207,2.013,5.826,6.334,4,7.99-1.14,1.137,0,.4-2,1v-1h-5c-0.092-.029.186-0.622-2-1v-7.99Zm0,24.97-10-1-4-4.994c-1.223-1.141-3.266-7.646-2-10.987h1q0.5-1.5,1-3h1v1h1q0.5,2.5,1,4.994h1v2l2,1v2l2,1C552.139,584.424,555.016,586.652,555.96,590.1Zm-8-16.98,4,1q0.5,2.5,1,4.994h-1C550.518,576.653,548.818,576.331,547.956,573.122Zm9,4.994,8,1q-0.5,3-1,5.993a10.615,10.615,0,0,1-4,1l-1-2h-1Q557.46,581.113,556.96,578.116Zm-191.1,43.948v2a28.694,28.694,0,0,0-9,4l-1,2h-2l-4,4.994h-2l-1,2-3,2v2l-5,4v2l-2,1v2l-2,1v2l-2,1q-0.5,2-1,4l-2,1v2l-1-1c-5.121-4.273-4.387-14.8-2-20.975v-3h1v-2l6-7.991h2q0.5-1,1-2l4-1v-1h2v-1h3c1.82-.68,5.667-2.928,9-2C358.263,620.018,361.819,621.581,365.864,622.064Zm-1,22.973c0.507-7.138,4.216-13,7-17.979h1v1c5.6,3.372,6.533,10.368,9,16.98h-3C376.329,642.645,367.685,644.452,364.864,645.037Zm-3-11.986-2,5.993h-1q-0.5,3-1,5.993l-2,1c-1.425,1.436-5.585,2.543-8,3v-2l3-2v-2l4-3v-2h1l4-4.994h2Zm1,40.951V652.029c5.82-1.037,10.907-2.852,18.009-3,0.844,1.133-.127.145,1,1C380.048,661.219,373.587,671.852,362.863,674Zm46.023-10.987q0.5,2,1,4l4,1v1H441.9q0.5-1.5,1-3c-1.139-1.138-.4,0-1-2-6.226-.953-11.042-3.507-11-10.987,5.187-2.8,8.535-4,17.008-4,0.845,1.133-.126.145,1,1v3l-12.006,2c0.574,2.007-.12.864,1,2,3.477,3.706,8.288,1.441,10,7.99h1v3c-1.3,1.046-1.49,2.04-3,3-4.26,4.282-31.1,1.721-38.019,1l-5-5.993a53.484,53.484,0,0,1,1-10.987l6-4.994,7-1v1h5c1.959,2.955,1.472.71,3,2,1.961,1.65,2.929,6.148,3,9.988C423.356,663.7,415.036,663.065,408.886,663.015Zm-8-12.984v4a60.758,60.758,0,0,0-12.006,1c-1.336,2.983-2.009,5.044-2,9.988a21.72,21.72,0,0,1,3,3h11.006V673H389.876v-1l-5-1a21.881,21.881,0,0,0-4-4.994c-0.121-5.39.574-8.575,2-11.986,1.827-1,4.148-3.327,6-4h12.006Zm9,8.989h12.006q-0.5-2-1-4a46.147,46.147,0,0,0-9-1C410.793,656.1,410.276,655.8,409.886,659.02ZM352.858,676c-3.75,0-14-3.1-15.008-4.994v-4c1.362-1.164,1.529-1.823,2-4,5.825-1.424,8.08-6.157,15.008-6.991v1C353.143,658.935,352.8,671.859,352.858,676Z"/>
</svg>
