<svg xmlns="http://www.w3.org/2000/svg" width="800" height="800" viewBox="0 0 800 800">
  <defs>
    <style>
      .cls-1 {
        fill: #54917e;
        fill-rule: evenodd;
      }
    </style>
  </defs>
  <path id="形状_1" data-name="形状 1" class="cls-1" d="M619.7,300.791c-2.987-.775-2.419-0.3-3.244-3.215-7.155-5.564,3.111-19.369,7.569-16.074h1.082C622.472,287.376,619.849,292.053,619.7,300.791ZM628.35,281.5h3.243a7.234,7.234,0,0,0,3.244,3.215v1.072h-1.081c-1.358,2.045-1.1,1.777-4.325,2.143Q628.89,284.718,628.35,281.5Zm-2.163,10.716h-2.163q0.541-2.678,1.082-5.358h1.081V289h1.081ZM637,287.932q-0.54,5.358-1.081,10.716c-3.635-.956-4.694-3.839-5.407-7.5C633.484,289.449,632.455,288.5,637,287.932Zm-10.813,7.5h2.163c0.677,3.3,1.726,3.711,2.162,7.5-2.316.128-3.679,1.091-4.325,1.071v-1.071h-2.163C624.368,299.138,625.445,298.7,626.187,295.433ZM365.864,622.064v2c-3.039.638-6.621,3.406-9,5l-1,2h-2l-4,4.994h-2l-1,2-3,2v2l-5,4v2l-2,1v2l-2,1v2l-2,1c-0.334,1.332-.667,1.664-1,3-0.667.333-1.334,1.666-2,2,0,0.666,1.154,1.314,1.154,1.98l-2.154-1.981c-5.121-4.273-5.387-14.8-3-20.975,0-1,1-2,1-3h1v-2l6-7.991h2q0.5-1,1-2l4-1v-1h2v-1h3c1.82-.68,5.667-2.928,9-2C358.263,620.018,361.819,621.581,365.864,622.064Zm-1,22.973c0.507-7.138,4.216-13,7-17.979,0.334,0,.667-1,1-1v1c5.6,3.372,8.277,10.952,9,17.98h-3C376.329,642.645,367.685,644.452,364.864,645.037Zm-3-11.986c-0.667,2-.334,4-1,5.993h-1c-0.334,2-1.667,4-2,5.993l-2,1c-1.425,1.436-5.586,2.543-8,3v-2l3-2v-2l4-3v-2h1l4-4.994h2Zm1,40.951V652.029c5.82-1.037,10.907-2.852,18.009-3,0.844,1.133-.127.145,1.076,0.93C381.561,659.833,373.859,671.6,362.863,674Zm46.023-10.987q0.5,2,1,4l4,1v1H441.9q0.5-1.5,1-3c-1.139-1.138-.4,0-1-2-6.226-.953-11.042-3.507-11.118-11.1,4.025-3.963,8.428-4.108,17.121-3.882,0.845,1.133-.126.145,1,1v3l-12.006,2c0.574,2.007-.133.877,1,2,3.689,3.649,9.732,1.051,10.333,7.9a1.074,1.074,0,0,0,.673.088c0,1,1,2,1,3-1.3,1.046-1.49,2.04-3,3-4.26,4.282-42.387,2.871-39.019,1l-5-5.993a53.484,53.484,0,0,1,1-10.987l6-4.994,7-1v1h5c1.959,2.955,1.472.71,3,2,1.961,1.65,3.929,6.148,4,9.988C424.356,663.7,415.036,663.065,408.886,663.015Zm-8-12.984v4a60.758,60.758,0,0,0-12.006,1c-1.336,2.983-1.009,5.044-1,9.988,0.9,0.52,2,3,2,3h11.006c0.549,1.52,1.2,3.012,0,4.994H389.876v-1l-5-1a21.881,21.881,0,0,0-4-4.994c-0.121-5.39.574-8.575,2-11.986,1.827-1,4.148-3.327,6-4h12.006Zm9,8.989h12.006q-0.5-2-1-4a46.147,46.147,0,0,0-9-1C410.793,656.1,410.276,655.8,409.886,659.02ZM353.858,676c-3.75,0-15-3.1-16.008-4.994v-4c1.362-1.164,1.529-1.823,2-4,5.825-1.424,8.08-6.157,15.008-6.991v1C353.5,663.129,353.8,671.859,353.858,676Z"/>
</svg>
