<svg xmlns="http://www.w3.org/2000/svg" width="800" height="800" viewBox="0 0 800 800">
  <defs>
    <style>
      .cls-1 {
        fill: #54917e;
        fill-rule: evenodd;
      }
    </style>
  </defs>
  <path id="形状_2" data-name="形状 2" class="cls-1" d="M294.789,250h-3.02v-2c-4.493-4.614-2.528-13.119-1.007-19,5.96-4.006,7.5-6.922,18.122-7v1C302.416,228.307,296.927,239.805,294.789,250Zm26.176-17-9.061,2a49.791,49.791,0,0,1,1.007-11h1.007C316.941,227.051,319.945,227.716,320.965,233Zm-14.095-4c1.247,1.838,1.1,5.7,1.007,9a9.311,9.311,0,0,0-4.027,3h-1.007v-2C304.728,236.626,306.058,232.2,306.87,229Zm16.109,7c0.261,7.186-1.243,13.842-6.041,16-0.335.333-.671-0.333-1.006,0v-2c-2.456-2.576-3.011-5.869-3.021-11a9.675,9.675,0,0,0,5.034-3h5.034Zm-13.088,20H300.83v-6l6.04-6h1.007v2C309.656,248.388,309.884,251.777,309.891,256Zm68.051,345c2.08,0.372,1.928.242,3.006,1,0.805,1.18.775,1.681,1,4-2.328,2.863-2.969,6.815-3.006,12l1,1c1.758-.631.974-0.193,2.348-1.741,9.059-5.539,7.118-10.331,18.7-8.259a18.368,18.368,0,0,0,4.336,5c2.142,10.838-13.367,44.81-18.366,50-8.574,8.907-24.119,3.6-27.056-5-2.757-3.2-1.512-8.711-1.161-13.985,4.113-9.253,9.879-16.814,24.208-11.015q0.5,1.5,1,3c-1.548,4.506-8.45,19.217-8.018,22,1.182,0.8,1.685.773,4.009,1,1.023-.8.275-0.355,2-1,3.807-8.666,15.134-30.694,16.035-42h-4.009c-4.091,5.655-10.3,11.918-18.192,10.2-0.87-1.008-.121-0.559-1.851-1.2-1.317-3.416-2.76-4.853-2-11C373.427,610.693,374.273,604.335,377.942,601Zm-8.018,39c-3.069,4.628-5.286,7.219-4.008,14,1.77,0.961,1.684,1.257,4.008,2,0.755-5.867,3.825-10.956,6.013-16h-6.013Zm11.024,34c1.627,1.35,1.124.64,2,3h-2v-3Z"/>
</svg>
