<svg xmlns="http://www.w3.org/2000/svg" width="800" height="800" viewBox="0 0 800 800">
  <defs>
    <style>
      .cls-1 {
        fill: #54917e;
        fill-rule: evenodd;
      }
    </style>
  </defs>
  <path id="形状_2" data-name="形状 2" class="cls-1" d="M625,280c-0.3.81-5.384,16.265-5,20,0-.333-2-0.667-2-1C609.243,290.779,617.2,281.972,625,280Zm3,2c1,0,2-1,3-1,1,1,2,3,3,4-0.333.333,0.333,0.667,0,1-1.568,1.829-1.882,1.395-5,2Q628.5,285,628,282Zm-3,5c1.96,2.511,1.321,1.64,1,5h-2v-2C624.752,288.927,624.6,289.054,625,287Zm11,1c2.225,3.858.079,8.815-1,10h-2v-1c-2.843-1.628-2.692-3.29-3-6C632.464,289.467,632.276,288.709,636,288Zm-5.99,14c-4,.606-2.857,1.472-6.01,0v-3c1.724-1.732,1.5-2.783,4-4v1C629.6,297.594,630.1,298.86,630.01,302ZM350,619c5.746-.062,14.916,1.186,17,5h-3c-7.923,7.725-18.4,13.89-25,23-3.158,4.357-6.722,13.212-10,14-8.336-8.6-4.854-31.17,5-35C339.308,623.937,343.612,619.906,350,619Zm22,8c6.111,3.725,8.007,8.795,10.015,17.961C381,645,380,645,379,645c-3.149-2.161-10.669-.758-14,0v-3C366.593,637.452,368.7,630.726,372,627Zm-12,6c3.011,0.451,3.875-5.385,2.321,1.5-2.96,3.443-3.307,9.909-6.321,12.5-1.964,1.562-5.154,1.367-8,2v-2C351.409,643.053,356.369,636.63,360,633Zm15,16h6a2.718,2.718,0,0,0,1.154.806C381.643,659.375,374.219,670.893,363,674V652h2C367.414,650.363,372.482,650.668,375,649Zm74,4-12,2c0.631,1.754.193,0.971,1,2,3.8,3.256,9.081,2.569,11,8,0.752,1.073-.4.946,0,3-1,1-1,2-2,3-2.138,3.781-32.035,3.031-39.469,1.275A37,37,0,0,0,403,666a50.073,50.073,0,0,1,1-11l6-5c5.326-.32,6.332-1.681,12,0,4.451,3.235,6.8,5.359,6,13-4.547.214-12.8,0.076-19,0v2c1.546,1.133.843,1.085,3,2,1.7,3.521,21.9.982,30,2l1-3h-1c-3.524-6.224-12.926-2.338-11-13,1.831-3.76,7.933-4.448,17-4l1,1v3Zm-48-3v4a56.259,56.259,0,0,0-12,1c-1.354,2.991-1.98,5.051-2,10,3.846,2.413,6.82,3.141,14,3,0.2,1.569.917,2.885,0,5-9.608.863-13.894-.162-16-2a24.935,24.935,0,0,0-4-5,26.847,26.847,0,0,1,2-12C388.122,648.992,391.946,648.257,401,650Zm9,9h12v-2c-1.546-1.133-.843-1.085-3-2-1.549-1.049-4.085-1.031-7-1l-2,2v3Zm-57,17c-7.01-.106-18.223-2.71-15-9,1.262-1.359,1.365-1.768,2-4,5.742-1.822,8.161-5.863,15-7v1C353.17,660.759,354.932,670.13,353,676Z"/>
</svg>
