<svg xmlns="http://www.w3.org/2000/svg" width="800" height="800" viewBox="0 0 800 800">
  <defs>
    <style>
      .cls-1 {
        fill: lime;
        fill-rule: evenodd;
      }
    </style>
  </defs>
  <path id="形状_3_拷贝" data-name="形状 3 拷贝" class="cls-1" d="M447.726,411.734h-2.009a7.709,7.709,0,0,1-2.01,4.021h-1v2.01l-2.009,1v1l-2.01,1v2.01l-2.01,1-10.048,18.093c-1.144-1.146-.4,0-1-2.011a16.756,16.756,0,0,1-4.02-6.03v-4.021c-3.18-10.011-1.3-19.036,3.015-27.138l1-4.02,2.009-1v-2.011l3.015-2.01q0.5-1.507,1-3.015l3.015-1,3.014-4.021h2.01v-1l6.029-2.01v-1l6.028-1c3.143-1.159,10.49-3.712,16.077-2.011l15.072,5.026c-1.144,1.144,0,.4-2.009,1-2.24,2.484-5.218,2.245-8.039,4.021q-0.5,1-1,2.01l-4.02,1q-1,1.507-2.009,3.015H463.8l-3.014,4.021h-2.01l-5.024,6.03C451.376,407.079,448.747,407.86,447.726,411.734ZM505,416.76l-18.086-1v1H479.88q2.511-8.543,5.024-17.087h1v-2.01h1c2.155-3.99.135-6.344,6.028-7.036l3.015,5.025,2.009,1v2.011l2.01,1C502.29,403.318,504.684,411.248,505,416.76Zm-28.134-19.1-1,3.015h-1v2.01h-1V405.7h-1q-0.5,2.01-1,4.021h-1v3.015c-0.763,1.878-2.139,4.949-3.015,7.036-5.68.419-9.288,2.92-14.067,4.02v-1c2.559-2.186,3.02-5.211,5.024-8.041l5.024-4.02v-2.01l3.015-2.01,8.038-9.046h2.01ZM505,423.8c0.088,19-13.4,31.748-27.13,37.19v-5.026c-3.24-3.5-.241-25.982,1-29.148l7.034-1v-1Zm-41.2,9.046c1.524,1.846.123,4.365,0,8.041V444.9h-1c-1.727,6.022.872,14.21-1,19.1-7.793-1.081-22.232-3.614-23.11-11.056,2.54-2.229,1.409-4.676,3.014-7.036l2.01-1v-1Z"/>
</svg>
