<svg xmlns="http://www.w3.org/2000/svg" width="800" height="800" viewBox="0 0 800 800">
  <defs>
    <style>
      .cls-1 {
        fill: #13d904;
        fill-rule: evenodd;
      }
    </style>
  </defs>
  <path id="形状_13" data-name="形状 13" class="cls-1" d="M413,580a62.5,62.5,0,0,1-13-1v-2c-0.8-1.18-.773-1.681-1-4,1.666-2.333,2.329-4.667,4-7,2.76-2.065,6.674-2.616,9-5h2c0.631,1.754.193,0.971,1,2-0.631,1.754-.193.971-1,2-2.556,2.581-6.286,4.635-9,7v2h2c2.014,1.126,4.981.213,9,0,3.754,2.88,4.983,3.192,3,9-0.8,1.021-.355.274-0.785,2.016-7.209,6.9-21.024,17.205-37.206,17.984-6.712-3.409-8.951-4.14-8-15,3.306-6.952,6.566-11.692,19-12,3.555,2.961,6.84.971,5.287,9.692-3.554,3.872-8.826,6.782-17.284,8.308l1,2c2.476,1.113,3.232,1.688,7,2C392.5,590.967,410.5,589.065,413,580ZM312.026,564c5.254,0,11.759.506,16,2v2c-7.628,2.839-15.9,14.351-20.022,21-3.19,5.148-3.683,16.111-10,18-1.875-3.915-5.192-7.974-5.969-12C287.829,573.221,303.556,566.759,312.026,564Zm35.991,21c-6.894.032-9.613,1.632-16,2a44.651,44.651,0,0,1,4-18h2a32.821,32.821,0,0,1,10,12v4Zm-22.994-8c2.542,1.455,1.128-.217,2,3a48.09,48.09,0,0,1-2,10c-2.745,3.762-5.411,4.113-9,4v-2A73.065,73.065,0,0,1,325.023,577Zm58.986,5q-2.5,2.5-5,5v2h4c3.177-2.387,6.335-1.856,8-6l-1-1h-6Zm-15,2v4c-5.3,2.115-10.376,2.838-11,10-0.589.962-.107,1.913,0,5,2.541,1.372,3.5,1.917,8,2,2.212-1.913,5.011-3.395,8.1-2.173-0.1,1.506-.1,2.84-0.1,4.173h-2c-3.787,3.659-9.966,4.723-16.405,2.283C346.338,597.534,353,585.859,369.012,584Zm-19,5c0.468,11.94-2.6,23.157-11,26-1.073.752-.946,0.6-3,1-0.695-5.162-5.219-16.245-3-20C336.128,592.092,344,589.755,350.017,589Zm-25.994,12c1.16,6.279,4.082,12.37,2.139,18.985-5.76,1.725-9.858-.537-16.135-2.985-1.041-2.211-1.782-4.458,0-7C315.167,604.323,317.674,600.5,324.023,601Z"/>
</svg>
