<svg xmlns="http://www.w3.org/2000/svg" width="800" height="800" viewBox="0 0 800 800">
  <defs>
    <style>
      .cls-1 {
        fill: #13d904;
        fill-rule: evenodd;
      }
    </style>
  </defs>
  <path id="形状_14" data-name="形状 14" class="cls-1" d="M325.219,508.95l13.027,1.99,1,2.985c1.4,2.228.547,3.259,0.3,6.281-10.49,6.759-23.953,13.923-39.626,12.288-1.419-2.849-2.594-2.674-3.76-5.634-6.9-7.03,1.422-17.5,9.019-17.91,3.1-2.114,7.3-.191,10.021,1,1.65,2.811,2.616,3.407,3.006,7.96l-17.036,5.97,1,1.99a10.983,10.983,0,0,1,3.007,1.99c5.558-2.343,26.143-6.206,29.061-11.94l-1-1c-7.6-.41-13.826-0.479-14.03-8.955,0.806-1.016.356-.273,1-1.99,4.579-2.148,7.622-4.446,14.03-4.975l1,1c-0.632,1.745-.193.967-1,1.99-2.331,1.838-6.114,2.8-9.019,3.98v2.985ZM239.038,500h8.017v1.99a14.1,14.1,0,0,0-7.015,7.96h-1V500Zm15.031,1.99c7.328,2.941,11.761,6.976,15.032,13.93-6.626.683-10.561,3.435-16.034,4.975V504.97C253.82,503.9,253.67,504.029,254.069,501.985Zm-8.017,7.96c1.767,2.84.171,10.573,0,15.92l-7.014,3.98v-3.98C240.649,522.03,243.822,514.274,246.052,509.945Zm57.121,2.985c-1.712,2.712-2.542,2.486-3.007,6.965h1c3.047-2.25,8.26-2.452,11.024-4.975l-2-1.99h-7.014Zm-16.034,1c2.01,1.39,2.07,1.339,3.006,3.98h-1c-4.791,3.981-9.625,2.078-10.021,10.945a19.455,19.455,0,0,1,2,3.98,10.963,10.963,0,0,1,3.006,1.99l11.024-2.985a14.023,14.023,0,0,1,1,3.98l-1,.995c-4.59,1.329-7.132,4.2-16.034,1.99-3.959-3.573-6.693-5.194-6.013-13.93l5.011-6.965C280.956,515.96,284.712,516.113,287.139,513.925ZM269.1,519.9h2c1.182,11.411-.105,23.87-9.019,27.86v1l-1-1c-3.735-4.869-4.695-12.814-7.015-18.9C258.86,524.352,265.3,521.951,269.1,519.9ZM252.065,554.72c-6.53,2.347-10.181,1.425-16.034,0-0.094-3.074-.14-6.3,1-7.96,1.749-5.276,6.174-7.767,9.019-11.94l1,1C249.844,539.97,251.356,549.464,252.065,554.72Z"/>
</svg>
