<?xml version="1.0" encoding="utf-8"?>
<!-- Generator: Adobe Illustrator 24.0.1, SVG Export Plug-In . SVG Version: 6.00 Build 0)  -->
<svg version="1.1" id="缝线" xmlns="http://www.w3.org/2000/svg" xmlns:xlink="http://www.w3.org/1999/xlink" x="0px" y="0px"
	 viewBox="0 0 800 800" style="enable-background:new 0 0 800 800;" xml:space="preserve">
<style type="text/css">
	.st0{fill-rule:evenodd;clip-rule:evenodd;fill:#1200FF;}
</style>
<polygon class="st0" points="564,529 567,530 567,531 564,531 "/>
<path class="st0" d="M570,531v2c-2.4-0.6-1.9-0.3-3-2H570z"/>
<polygon class="st0" points="573,534 573,536 572,536 572,535 571,535 571,534 "/>
<rect x="555" y="537" class="st0" width="2" height="3"/>
<polygon class="st0" points="576,537 576,539 575,539 575,538 574,538 574,537 "/>
<path class="st0" d="M577,541v-2h1v1h1C577.9,541.1,579,540.3,577,541L577,541z"/>
<rect x="579" y="544" class="st0" width="2" height="4"/>
<polygon class="st0" points="550,546 552,546 551,549 550,549 "/>
<rect x="579" y="550" class="st0" width="2" height="5"/>
<path class="st0" d="M546,552h1v1c-0.3,0.7-0.7,1.3-1,2h-1C545.3,553.9,545.7,552.9,546,552L546,552z"/>
<rect x="578" y="556" class="st0" width="2" height="2"/>
<path class="st0" d="M540,561h2v1C540,561.4,541.1,562.1,540,561L540,561z"/>
<path class="st0" d="M536,567c1.1,1.1,0.4,0,1,2h-1V567z"/>
<path class="st0" d="M532,572h1v1l-1,2h-1C531.3,573.9,531.7,572.9,532,572L532,572z"/>
<polygon class="st0" points="527,578 529,578 528,581 527,581 "/>
<path class="st0" d="M524,584h1v3h-1v1h-2v-1C522.9,586.1,523.6,585.1,524,584L524,584z"/>
<path class="st0" d="M519,591h1c0.9,1.8-0.7,3.1-1,4h-1C518,593.6,518.4,592.2,519,591L519,591z"/>
<path class="st0" d="M515,599c2.1,0.9,3.6,2.8,4,5h-1v-1h-2c-0.7-1-1.3-2-2-3L515,599z"/>
<path class="st0" d="M527,609c0.6,2.4,1,2.2,2,4h-2c-1.4-2.6-3.8-5.2-7-6c-0.3-1-0.7-2-1-3h2C522.2,606.4,524.4,608.2,527,609
	L527,609z"/>
<path class="st0" d="M546,611l-4,1v-2c2.7-0.6,2.3-1.3,5-2v1C545.9,610,546.6,608.9,546,611L546,611z"/>
<path class="st0" d="M542,612l-1,3h-3v-1h1C540.1,612.2,539.6,612.6,542,612L542,612z"/>
<path class="st0" d="M530,614c3.2,0.7,2,1.5,3,2h4v1h-1v1h-4C531.1,616.1,530.6,616.3,530,614L530,614z"/>
</svg>
