<?xml version="1.0" encoding="utf-8"?>
<!-- Generator: Adobe Illustrator 24.0.1, SVG Export Plug-In . SVG Version: 6.00 Build 0)  -->
<svg version="1.1" id="缝线" xmlns="http://www.w3.org/2000/svg" xmlns:xlink="http://www.w3.org/1999/xlink" x="0px" y="0px"
	 viewBox="0 0 800 800" style="enable-background:new 0 0 800 800;" xml:space="preserve">
<style type="text/css">
	.st0{fill-rule:evenodd;clip-rule:evenodd;fill:#1200FF;}
</style>
<path class="st0" d="M392.8,556v-8h-1v-2h-1c0.3-1.7,0.7-3.3,1-5h-1c-0.3-4-0.7-8-1-12c0.8-0.3,1.2-1.2,1-2h-1v-2h-1
	c-0.4-1.7,0.9-1.7,1-2c0.6-2.8-1-5.2-1-6h1v-18h-1c-0.2-0.8,0.2-1.7,1-2c-0.3-1-0.7-2-1-3h1c0.3-1.1-0.1-2.3-1-3
	c0.3-2.7,0.7-5.3,1-8c-0.3-1-0.7-2-1-3h1v-3h1v-9h-1c0.3-1,0.7-2,1-3c3.1,1,4.2,0.1,7,1v1c-1.7,0-3.4,0.3-5,1
	c-0.1,12.5-3.1,28.7-1,37c1.7,6.9-0.7,16.8,1,23v12h1v7h1c0.8,2.6,0.1,4.7,1,7c5.8,0.3,9.5,2.6,14,4h8v1l20,1v-1l4-1v1h-1v1
	c-1.9,0.8-5.3,2.5-8,2c0,0-0.2-1.2-2-1c-0.3,0.8-1.2,1.2-2,1v-1l-6,1v-1h-3v-1l-5,1v-1h-2v-1c-1.7-0.4-1.8,1-2,1l-9-1v-1h-2
	c-0.3-0.7-0.7-1.3-1-2c-1.1-0.4-2.3,0-3,1L392.8,556z"/>
<rect x="399.8" y="465" class="st0" width="5" height="2"/>
<path class="st0" d="M407.9,465l3,1v1c-2.1-0.1-3.2,0.5-4-1h1V465z"/>
<polygon class="st0" points="416.9,465 416.9,467 412.9,467 412.9,466 413.9,466 413.9,465 "/>
<path class="st0" d="M420.9,465h1v1l2-1c0.3,0.7,0.7,1.3,1,2c-1.9,1.3-5,0-5,0L420.9,465z"/>
<path class="st0" d="M425.9,466l9,2v3h-1c-1.8-2.1-4.1-2.9-8-3L425.9,466L425.9,466z"/>
<path class="st0" d="M434.9,471c2.7,0.6,3.7,1.9,6,3v2h-1c-1.2-1.4-1.8-1.5-4-2C435.5,473,435.2,472,434.9,471L434.9,471z"/>
<path class="st0" d="M441.9,479c-0.3-1-0.7-2-1-3h2c1.1,1.7,2.1,2.1,4,3v2h-1C444.7,479.6,444.1,479.5,441.9,479L441.9,479z"/>
<path class="st0" d="M447.9,484c-0.3-1-0.7-2-1-3h2c1.1,1.7,2.1,2.1,4,3v2h-1C450.7,484.6,450.1,484.5,447.9,484L447.9,484z"/>
<path class="st0" d="M452.9,486c2.6,0.6,2.8,1.1,4,3c1.1,0.8,0.1-0.1,1,1h-2c-1.1-1.1,0-0.4-2-1C453.6,488,453.2,487,452.9,486z"/>
<path class="st0" d="M469.9,501h-2l-5-6h-2v-1l-2-1v-2h1c1.4,1.6,3.5,2.5,5,4l2,3l3,1V501z"/>
<path class="st0" d="M470.9,502l3,1v2h-1c-1.1-1.1,0-0.4-2-1V502z"/>
<path class="st0" d="M480.9,513h2c0,2.8-0.7,5.5-2,8h-2v-1c2.2-1.4,2-2.4,2-6c-3-1.7-5.2-4.6-6-8h1
	C477.6,508.8,479.9,509.4,480.9,513z"/>
<path class="st0" d="M476.9,522h2c-0.3,3.7-0.8,4.2-4,5C475.6,524.3,476.2,524.7,476.9,522L476.9,522z"/>
<path class="st0" d="M473.9,528v3h-1c-0.8,0.9-1.9,1.6-3,2v-2c1.1-1.1,0.4,0,1-2L473.9,528z"/>
<path class="st0" d="M466.9,534h2c-0.7,2.9-1.1,3.3-4,4v-1C466.6,535.9,466.3,536.4,466.9,534L466.9,534z"/>
<path class="st0" d="M460.9,539h2v3h-1v1h-3v-1C460.6,540.9,460.3,541.4,460.9,539z"/>
<path class="st0" d="M456.9,545c-0.7,2.8-0.3,2.2-3,3C454.6,545.2,454.2,545.8,456.9,545z"/>
<path class="st0" d="M451.9,548h1v3l-4,3v-1c-1.1-1.1-0.4,0-1-2C449.4,550.3,450.8,549.2,451.9,548L451.9,548z"/>
<path class="st0" d="M445.9,553h1v3c-1,0.4-2,1.8-4,1L445.9,553z"/>
</svg>
