<svg xmlns="http://www.w3.org/2000/svg" width="800" height="800" viewBox="0 0 800 800">
  <defs>
    <style>
      .cls-1 {
        fill: #13d904;
        fill-rule: evenodd;
      }
    </style>
  </defs>
  <path id="形状_9" data-name="形状 9" class="cls-1" d="M181.812,398c6.1-.117,16.881,2,19.094,6h-1c-3.043,2.825-7.547,3.564-11.054,6-10.346,7.184-28.592,26.735-32.158,40l-1-1c-14.173-14.527,1.444-39.785,12.059-46C171.919,400.555,178.25,400.973,181.812,398ZM220,430c-5.977-.761-14.188-1.188-20.1,0v-4c3.837-5.18,3.75-13.267,9.045-17,0.972-.251.381-0.784,1,0A30.525,30.525,0,0,1,220,430Zm-24.118-16c1.352,2.606-4.552,16.324-8.04,18-2.218,1.774-5.5,2.569-9.044,3v-2C183.192,429.635,192.781,418.672,195.882,414ZM220,435c0.118,14.506-9.784,28-22.109,30-0.242-8.745-.242-17.255,0-26l3.015-1C204.9,435.28,213.826,435.009,220,435Zm-34.168,8c2.3,3.675.16,17.168,0,24a15.845,15.845,0,0,1-5.025,1c-5.939-3.78-13.6-1.4-14.069-11,1.268-1.359,1.372-1.768,2.01-4C173.647,450.694,181.906,446.776,185.832,443Z"/>
</svg>
