<svg xmlns="http://www.w3.org/2000/svg" width="800" height="800" viewBox="0 0 800 800">
  <defs>
    <style>
      .cls-1 {
        fill: #54917e;
        fill-rule: evenodd;
      }
    </style>
  </defs>
  <path id="形状_1" data-name="形状 1" class="cls-1" d="M549,564c3.12-.886,3.718-0.237,5,1q-1,3-2,6c-2.743-1.269-5.7-2.177-7-5C546.257,565.35,548.071,564.911,549,564Zm7,1c1.268-1.522,3.082-.5,5,1,3.416,2.439,3.869,5.264,5,8-0.667,0-1.333,1-2,1-1.208.691-5.266-1.395-8-2v-8Zm-14,5c6.071,5.156,6.4,13.933,14,18-0.333.333,0.333,1.667,0,2-1.748,1.284-5.222.683-8,1-6.915-6.106-9.917-4.482-9-19A10.925,10.925,0,0,0,542,570Zm6,3c3.081,1.038,3.918,1.967,5,5h-2c0-.333-1-0.667-1-1C548.376,575.65,548.879,575.36,548,573Zm9,5c3.373-.908,5.85-0.811,8,1,1.392,3.9.184,4.649-2,7-1.754-.631-0.971.807-2,0-2.467-1.295-1.681.429-3-2C556.505,582.376,557.448,580.977,557,578Z"/>
</svg>
