<svg xmlns="http://www.w3.org/2000/svg" width="800" height="800" viewBox="0 0 800 800">
  <defs>
    <style>
      .cls-1 {
        fill: #54917e;
        fill-rule: evenodd;
      }
    </style>
  </defs>
  <path id="形状_3" data-name="形状 3" class="cls-1" d="M422.18,492.063c10.916-.457,21.4,1.569,24.227,9.033l1.009,1c-7.092,1.023-10.647,4.527-19.423,4.9C422.971,501.429,419.777,497.314,422.18,492.063Zm-17.161,16.059c0-1-1.019-1.118-1.019-2.122,3.365-3.345,5.453-9,11.114-10.926,1.77,0.633.98,0.193,2.018,1,2.35,3.366,3.379,9.432,5.048,13.048H409.057C407.866,508.32,407.36,508.35,405.019,508.122Zm47.445,1.007c0.569,6.092,1.152,11.317-.857,16.381-5.366,1.3-12.54-3.782-17.314-11.366C440.35,512.806,446.408,510.467,452.464,509.129Zm-49.588,5.037c14.674,9.179,22.617,15.647,43.531,20.052v1H445.4c-3.3,5.154-6.042,6.316-13.132,8.026C414.55,547.521,399.233,529.82,402.876,514.166Zm9.209-.022,14.133,1q2.017,3.511,4.038,7.025h-2.019C423.356,518.609,415.815,518.838,412.085,514.144Z"/>
</svg>
