<?xml version="1.0" encoding="utf-8"?>
<!-- Generator: Adobe Illustrator 19.0.0, SVG Export Plug-In . SVG Version: 6.00 Build 0)  -->
<svg version="1.1" id="图层_1" xmlns="http://www.w3.org/2000/svg" xmlns:xlink="http://www.w3.org/1999/xlink" x="0px" y="0px"
	 viewBox="94 -4 800 800" style="enable-background:new 94 -4 800 800;" xml:space="preserve">
<style type="text/css">
	.st0{fill:#35D629;}
</style>
<path id="形状_1" class="st0" d="M550.7,505h-3c-5.9-8.5-17.8-11.8-27.9-16c-27.2-11.4-64.3-14.8-101.8-15
	c0.4-13.1,15.9-39.9,21-52.1c4.1-9.8,4.7-19.4,9-29c5.4-12.3,12.5-26.9,18-39.1c4.2-9.2,5.1-16.9,13-22c11.4-7.4,30.2-4.8,42.9-1
	c9.1,2.7,16.3,3.2,23,8c14,10.2,11,28.5,11,52.1C555.7,430.1,551.1,465.2,550.7,505z"/>
</svg>
