<svg xmlns="http://www.w3.org/2000/svg" width="800" height="800" viewBox="0 0 800 800">
  <defs>
    <style>
      .cls-1 {
        fill: #35d629;
        fill-rule: evenodd;
      }
    </style>
  </defs>
  <path id="形状_1" data-name="形状 1" class="cls-1" d="M456.729,518h-2.993c-5.858-8.5-17.8-11.757-27.943-16.025C398.637,490.545,361.47,487.211,324,486.951c0.421-13.111,15.949-39.926,20.957-52.082,4.053-9.837,4.723-19.407,8.982-29.046,5.448-12.33,12.468-26.914,17.963-39.062,4.152-9.179,5.084-16.883,12.974-22.035,11.352-7.412,30.22-4.763,42.912-1,9.077,2.69,16.348,3.213,22.954,8.012,14,10.174,10.981,28.509,10.977,52.083C461.714,443.113,457.074,478.182,456.729,518Z"/>
</svg>
