<svg xmlns="http://www.w3.org/2000/svg" width="800" height="800" viewBox="0 0 800 800">
  <defs>
    <style>
      .cls-1 {
        fill: #35d629;
        fill-rule: evenodd;
      }
    </style>
  </defs>
  <path id="形状_1" data-name="形状 1" class="cls-1" d="M289.135,316.624c7.689-.06,12.56.895,15.966,0,10.827-2.843,15.384,4.356,19.957,7.991,20.667,16.429,12.3,37.183,18.959,65.923q-0.5,19.475-1,38.954c0.577,1.592,3.38,2,3.992,3,3.064,4.967.971,18.087,1,24.971C348.068,472.693,352,483.8,352,498.411c-6.4,5.431-8.019,15.934-14.968,20.975-12.586,9.132-36.409,14.144-51.888,4-6.885-4.514-10.27-12.3-15.966-17.979q1-14.483,2-28.966c-2.916-12.745-4.967-20.971-4.989-34.959,2.922-1.475,3.823-2.98,5.987-4.994-1.075-29.069-14.244-71.681-2-99.883C273.879,328.075,281.626,323.805,289.135,316.624Z"/>
</svg>
