<svg xmlns="http://www.w3.org/2000/svg" width="800" height="800" viewBox="0 0 800 800">
  <defs>
    <style>
      .cls-1 {
        fill: #35d629;
        fill-rule: evenodd;
      }
    </style>
  </defs>
  <path id="形状_1" data-name="形状 1" class="cls-1" d="M251,500c-0.135-12.542,4.924-26.681,3-36.113-1.842-9.032.792-22.879,1-33.1,0.709-34.8-.259-77.51,26-87.273,13.4-4.983,40.938-4.883,51,2.006,11.414,7.815,11.227,24.281,16,39.122,5.428,16.88,9.913,37.865,15,56.176,2.022,7.279.844,12.413,3,20.063,2.774,9.843,7.878,15.353,8,29.091h-2c-7.333-4.691-21.466.123-31-2.007-18.643-4.164-48.33-.13-64,5.016C268.944,495.624,261.626,499.632,251,500Z"/>
</svg>
