<?xml version="1.0" encoding="utf-8"?>
<!-- Generator: Adobe Illustrator 19.0.0, SVG Export Plug-In . SVG Version: 6.00 Build 0)  -->
<svg version="1.1" id="图层_1" xmlns="http://www.w3.org/2000/svg" xmlns:xlink="http://www.w3.org/1999/xlink" x="0px" y="0px"
	 viewBox="94 -4 800 800" style="enable-background:new 94 -4 800 800;" xml:space="preserve">
<style type="text/css">
	.st0{fill:#35D629;}
</style>
<path id="形状_1" class="st0" d="M345,487c-0.1-12.5,4.9-26.7,3-36.1c-1.8-9,0.8-22.9,1-33.1c0.7-34.8-0.3-77.5,26-87.3
	c13.4-5,40.9-4.9,51,2c11.4,7.8,11.2,24.3,16,39.1c5.4,16.9,9.9,37.9,15,56.2c2,7.3,0.8,12.4,3,20.1c2.8,9.8,7.9,15.4,8,29.1h-2
	c-7.3-4.7-21.5,0.1-31-2c-18.6-4.2-48.3-0.1-64,5C362.9,482.6,355.6,486.6,345,487z"/>
</svg>
