<svg xmlns="http://www.w3.org/2000/svg" width="800" height="800" viewBox="0 0 800 800">
  <defs>
    <style>
      .cls-1 {
        fill: #35d629;
        stroke: #ff0;
        stroke-width: 1px;
        stroke-dasharray: 4 4;
        fill-rule: evenodd;
      }
    </style>
  </defs>
  <path id="形状_1" data-name="形状 1" class="cls-1" d="M410.494,310h13.975l4.991,5,1-1c48.871-2.805,24.507,80.809,14.974,106a94.727,94.727,0,0,0-5.989,24c2.48,1.769,3.951,3.492,6.987,5-7.516,16.277-18.962,28.374-21.961,50,4.364,0.753,7.919,1.606,8.984,6-8.66,11.62-14.706,22-28.949,28-5.422,2.284-12.288,2-19.965,2-27.584,0-41.516-13.322-47.915-34-4.079-13.179,12.234-28.578,15.972-38V432l7.986-4c0.384-6.83,2.627-13.262,3.993-19q0.5-7.5,1-15c4.4-17.773,8.029-45.331,16.97-59,3.479-5.319,9.811-14.285,14.973-18C401.235,314.324,408.057,313.935,410.494,310Z"/>
</svg>
