<svg xmlns="http://www.w3.org/2000/svg" width="800" height="800" viewBox="0 0 800 800">
  <defs>
    <style>
      .cls-1 {
        fill: #54917e;
        fill-rule: evenodd;
      }
    </style>
  </defs>
  <path id="形状_1" data-name="形状 1" class="cls-1" d="M579.909,297.437c2.467,1.293.681-.429,2,2-2.7,3.206-2.334,10.741-6,12.983v-1c-1.882-2.035-2-3.83-2-7.989C575.91,299.44,577.073,296.085,579.909,297.437Zm5,0a8.438,8.438,0,0,1,4,2c0.752,1.072-.4.945,0,3h-2c-0.968.251-.38,0.783-1,0C585.105,301.252,585.135,299.751,584.908,297.436Zm-3,4.994c1.076,1.735,1.035,2.268,0,4v-4Zm7,1c2.822,0.288,1.567-1.966,3,4a19.563,19.563,0,0,0-2,3.994l-2-1a14.14,14.14,0,0,1-1-4h-1l1-1Zm-6,5.992c2.466,1.293.68-.429,2,2,0.752,1.072.6,0.945,1,3-1.754.63-.971,0.193-2,1-1.753-.63-0.971-0.193-2-1-0.8-1.019-.355-0.273-1-2h1Q582.409,310.919,582.909,309.421ZM269.991,543.11c11.675-.328,20.007,1.04,26.993,4.994v1c-12.672,3.334-30.965,19.52-37.99,28.962-4.214,5.663-7.55,15.763-14,18.975-3.578-7.122-9.668-9.428-9-20.973,2.844-8.75,6.941-17.151,14-23.968C255.657,546.629,263.278,544.414,269.991,543.11Zm49.987,36.951c-8.58-.148-15.555-0.229-23.994,0,0.166-11.053,5.473-19.045,10-25.965l1,1C313.59,559.442,319.246,570.1,319.978,580.061Zm-29.992-17.976h2c-2.11,4.922-6.234,18.6-11,20.972-2.1,1.782-8.626,3.764-10,3-0.708-1.543-.129-0.135,0-3,4.258-3.28,6.725-8.66,10-12.983C283.386,566.907,287.636,565.415,289.986,562.085Zm3,60.919c-0.433-9.646-.432-21.313,0-30.959,2.281-1.223,2.25-1.636,6-2,4.2-2.872,13.427-3.027,20-3a18.275,18.275,0,0,1,1,5.992c-1.415,4.933-3.664,12.663-8,17.976-4,4.9-10.575,7.532-15,11.984h-4Zm-13-25.965a252.436,252.436,0,0,0-2,28.961h-8c-5.964-7.363-14.354-11.713-12-17.976C266.125,605.472,270.535,598.629,279.988,597.039Z"/>
</svg>
