<svg xmlns="http://www.w3.org/2000/svg" width="800" height="800" viewBox="0 0 800 800">
  <defs>
    <style>
      .cls-1 {
        fill: #54917e;
        fill-rule: evenodd;
      }
    </style>
  </defs>
  <path id="形状_1" data-name="形状 1" class="cls-1" d="M295,251c-1.006,0-2.226-1-3.232-1v-2c-5.169-4.859-3.419-12.441-1.007-18,5.958-4.006,4.046-8.633,18.117-8v1C302.95,227.486,297.019,238.839,295,251Zm26.07-18.153c-3.134.82-6.154,1.486-9.173,2.153a49.791,49.791,0,0,1,1.007-11h1.006C317.072,226.866,320.787,226.583,321.07,232.847ZM306.865,229c2.2-.076,1.535,4.82,1.006,9a9.311,9.311,0,0,0-4.025,3h-1.007v-2C304.723,236.626,306.053,232.2,306.865,229Zm16.1,7c0.261,7.186-1.173,13.842-5.969,16-0.335.333-.741-0.333-1.077,0v-2c-2.455-2.576-3.009-5.869-3.019-11a9.673,9.673,0,0,0,5.032-3h5.033Zm-12.857,19.961c-3.247.039-6.267,0.039-9.286,0.039v-6l6.039-6h1.006c0,0.667.129,0.333,0.129,1C309.933,247.361,310.923,251.6,310.112,255.961Z"/>
</svg>
