<svg id="PANCAKE_TRAINER" data-name="PANCAKE TRAINER" xmlns="http://www.w3.org/2000/svg" width="800" height="800" viewBox="0 0 800 800">
  <defs>
    <style>
      .cls-1 {
        fill: #1200ff;
        fill-rule: evenodd;
      }
    </style>
  </defs>
  <g id="_1" data-name="1">
    <path id="形状_21" data-name="形状 21" class="cls-1" d="M580.039,329.156c5.414-1.2,11.831-.378,11.981,2.988-9.309,4.145-17.781,16.708-22.964,25.9h-2v-1.992c-4.469-5.44-1.548-13.916-.059-19.048C570.53,334.759,570.423,331.6,580.039,329.156ZM604,345.092l-10.983,1c0.3-5.152,1.914-7.614,3-11.952h2c0,0.332-.011-0.468-0.011-0.136C601.428,336.2,603.324,340.089,604,345.092ZM590,337c1.136,2.395-2.07,8.479-3,12l-6,1c0-.332.037-1.588,0.037-1.92,0.333,0-.37-0.08-0.037-0.08C582.366,345.173,586.366,340.451,590,337Zm15.078,11.832c-0.275,10.072-5.158,15.589-12.059,17.176v-1c-1.746-2.633-1.125-9.656-1-13.944,0.666,0,1.314-1.068,1.98-1.068C596.48,348.7,599.943,348.118,605.078,348.832ZM586.03,368c-5.156.474-7.195,0.242-10.983-1.992a5.564,5.564,0,0,1,0-4.98c2.883-3.886,5.971-6.452,10.983-6.972v8.964C585.442,363.978,585.923,364.925,586.03,368Z"/>
  </g>
</svg>
