<svg xmlns="http://www.w3.org/2000/svg" width="800" height="800" viewBox="0 0 800 800">
  <defs>
    <style>
      .cls-1 {
        fill: #13d904;
        fill-rule: evenodd;
      }
    </style>
  </defs>
  <path id="形状_7_拷贝" data-name="形状 7 拷贝" class="cls-1" d="M247,597h-2c-2.018-8.245-8.583-9.68-9-21l6-15c10.038-15.165,33.967-24.208,55-13v1c-3.5.725-5.456,2.562-8,4h-2l-1,2h-2l-1,2h-2l-2,3h-2l-9,10-9,8v2l-3,2v2l-3,2-1,4-2,1-1,3h-1Zm73-17h-7v-1l-17,1a25.183,25.183,0,0,1,3-12v-2h1v-2h1v-3h1v-2h1v-2h1l2-3h1v1C312.764,558.345,319.577,571.213,320,580Zm-37,3-12,4v-1h-1l1-3c2.7-1.793,3.1-4.357,5-7l5-4v-2l2-1,3-4h2l2-3h2v1C289.094,565.574,284.029,578.27,283,583Zm271-19q-1,3.5-2,7c-2.779-1.128-5.11-1.752-6-5l3-1v-1h5Zm2,1,5,1c1.206,2.016,5.823,6.342,4,8-1.139,1.139,0,.4-2,1v-1h-5c-0.092-.029.186-0.623-2-1v-8Zm0,25-10-1-4-5c-1.222-1.143-3.264-7.656-2-11h1q0.5-1.5,1-3h1v1h1q0.5,2.5,1,5h1v2l2,1v2l2,1C552.182,584.315,555.056,586.545,556,590Zm-8-17,4,1q0.5,2.5,1,5h-1C550.561,576.535,548.862,576.212,548,573Zm9,5,8,1q-0.5,3-1,6a10.6,10.6,0,0,1-4,1q-0.5-1-1-2h-1Q557.5,581,557,578ZM293,623c-0.154-6-2.877-19.3-1-26h1v-5c2.612-1.382,1.693-1.769,6-2,2.532-2.312,14.8-3.037,20-3a15.682,15.682,0,0,1,1,6c-2.092,2.3-.752,4.906-2,8h-1l-1,4-2,1v2l-2,1v2l-6,5-1,2h-2l-1,2h-2l-1,2h-2v1h-4Zm-13-26a64.014,64.014,0,0,1-2,10v19h-8c-3.437-5.886-11.475-9.9-12-18l3-1v-1h2l1-2,4-1,1-2h2C273.945,599.342,275.582,597.543,280,597Z"/>
</svg>
