<svg xmlns="http://www.w3.org/2000/svg" width="800" height="800" viewBox="0 0 800 800">
  <defs>
    <style>
      .cls-1 {
        fill: #54917e;
        fill-rule: evenodd;
      }
    </style>
  </defs>
  <path id="形状_1" data-name="形状 1" class="cls-1" d="M270,542.062c11.679-.328,20.012,2.041,27,6v1c-12.675,3.336-30.973,19.531-38,28.978-4.215,5.667-7.552,15.773-14,18.986-2.528-8-9.4-10.487-10-20.984,3.375-10.277,7.12-19.132,15-24.982C255.8,546.752,263.623,546.289,270,542.062Zm50,37.973c-8.582-.149-15.559-0.229-24,0,0.165-11.06,5.475-19.057,10-25.981l1,1C313.61,559.4,319.268,570.064,320,580.035Zm-30-17.987h2c-2.111,4.925-6.236,18.614-11,20.984-2.1,1.784-8.628,3.766-10,3-0.707-1.544-.129-0.135,0-3,4.26-3.282,6.727-8.665,10-12.99C283.4,566.872,287.65,565.38,290,562.048ZM293,623c-0.433-9.652-.432-21.325,0-30.976,2.281-1.224,2.251-1.637,6-2,4.2-2.873,13.43-3.029,20-3a18.3,18.3,0,0,1,1,6c-3.81,5.533-4.234,12.812-8,17.986-3.724,5.116-10.577,7.536-15,11.991h-4Zm-13-25.98A252.736,252.736,0,0,0,278,626h-8c-3.928-5.917-11.048-9.365-12-17.986C266.133,605.46,270.544,598.613,280,597.022Z"/>
</svg>
