<svg xmlns="http://www.w3.org/2000/svg" width="800" height="800" viewBox="0 0 800 800">
  <defs>
    <style>
      .cls-1 {
        fill: lime;
        fill-rule: evenodd;
      }
    </style>
  </defs>
  <path id="svg_拷贝_3" data-name="svg 拷贝 3" class="cls-1" d="M422.418,492c7.007-.249,14.88.329,18.993,3l2,3c2.493,1.883,1.881-1.092,3,3,1.134,0.844.145-.127,1,1-4.194.4-4.39,1.866-7,3l-12,2C425.908,502.5,420.735,497.65,422.418,492Zm-16.994,16v-3c2.442-1.561.611-1.137,2-3l8-7c2.009,0.574.864-.12,2,1h1q0.5,3.5,1,7h1v3h1q0.5,1.5,1,3h-13v-1h-4Zm46.982,2c0.443,6.773,1.509,9.395-1,15-1.488-.484-1.583-1.132-4-1v1h-1v-1c-4.714-1.959-9.582-5.759-12-10Zm-48.981,4,14,11,5,1v1l6,2v1l17.993,4v1h-1c-3.113,5.57-16.959,10.656-25.99,7v-1l-6-2-4-5-2-1q-0.5-2-1-4l-2-1v-3h-1V514Zm26.99,8c-5.022-.8-15.771-4.52-17.993-8h4c0.943,0.865,5.325,1.117,10,1C427.771,517.912,429.552,518.8,430.415,522Z"/>
</svg>
