<svg xmlns="http://www.w3.org/2000/svg" width="800" height="800" viewBox="0 0 800 800">
  <defs>
    <style>
      .cls-1 {
        fill: #1200ff;
        fill-rule: evenodd;
      }
    </style>
  </defs>
  <path id="形状_186" data-name="形状 186" class="cls-1" d="M425.876,546v2c-3.52.746-5.477,2.563-8.042,4h-2.01l-1,2-4.021,1-2.01,3h-2.011l-3.015,4c-15.866,11.357-27.677,28.369-37.192,46h-1l-1-3h-1.006v-2h-1l-1-7h-1v-4h-1c-1.677-5.661.914-12.776,2.01-16l1-7h1v-2h1.006l2.01-6,3.015-2v-2l5.026-4,1.006-2h2.01l2.01-3h3.016l1-2h2.01v-1h3.016v-1H391.7v-1h3.016v-1h3.016v-1h5.025C413.477,540.875,417.147,545.043,425.876,546Zm8.041,8h3.016c1.4,2.427,3.808,3.287,5.026,5v2l2.01,1v2c3.048,5.369,5.764,9.544,6.031,18h-5.026v-1c-6.729-1.87-15.531.728-21.109,1C423.89,570.184,431.693,563.374,433.917,554ZM410.8,585c-5.852.43-9.874,2.9-15.078,4v-1c2.56-2.172,3.041-5.166,5.026-8l3.016-2v-2l10.051-9c2.386-2.371,3.162-4.973,7.037-6v1c-3.66,3.112-4.044,8.123-6.031,13h-1.006v3h-1Zm39.2,4c0.071,8.939-3.326,18.784-7.036,24l-7.037,6-3.015,4c-2.832,1.99-5.86,2.45-8.042,5h-4.02V614h-1l1-20,3.015-1C427.576,589.557,442.385,588.959,450,589Zm-70.363,35c0.176-5.035,2.09-6.7,3.016-11l3.015-2v-1h2.011l1.005-2,18.093-9v8c-1.968,2.269-.008,6.468-1,10h-1c-1.356,4.818.359,11.263-1,15l-17.088-4v-1C384.035,625.649,382.713,624.731,379.637,624Z"/>
</svg>
